<svg width="20" height="20" viewBox="0 0 20 20" fill="none" xmlns="http://www.w3.org/2000/svg">
<g id="3d_mapp_fff_20">
<g id="Vector">
<path d="M9.5 17.9978C9.43134 17.9979 9.36336 17.9843 9.3 17.9578L2.3 14.9578C2.21056 14.9188 2.1345 14.8545 2.08119 14.7727C2.02789 14.691 1.99966 14.5954 2 14.4978V7.49784C1.99971 7.41467 2.02017 7.33274 2.05953 7.25947C2.09889 7.18621 2.15591 7.12392 2.22541 7.07824C2.29492 7.03257 2.37472 7.00495 2.45759 6.9979C2.54046 6.99084 2.62378 7.00457 2.7 7.03784L9.7 10.0378C9.78944 10.0769 9.8655 10.1412 9.91881 10.223C9.97212 10.3047 10.0003 10.4003 10 10.4978V17.4978C10 17.6304 9.94732 17.7576 9.85356 17.8514C9.75979 17.9452 9.63261 17.9978 9.5 17.9978ZM3 14.1678L9 16.7398V10.8278L3 8.25584V14.1678Z" fill="white"/>
<path d="M11.5 17.9991C11.3674 17.9991 11.2402 17.9465 11.1464 17.8527C11.0527 17.7589 11 17.6317 11 17.4991V10.4991C10.9997 10.4016 11.0279 10.306 11.0812 10.2243C11.1345 10.1425 11.2106 10.0782 11.3 10.0391L18.3 7.03914C18.3762 7.00732 18.4591 6.9946 18.5413 7.00209C18.6236 7.00958 18.7028 7.03707 18.772 7.08214C18.8416 7.12727 18.8989 7.18902 18.9387 7.26182C18.9785 7.33462 18.9996 7.41617 19 7.49914V14.4991C19.0003 14.5967 18.9721 14.6923 18.9188 14.774C18.8655 14.8558 18.7894 14.9201 18.7 14.9591L11.7 17.9591C11.6366 17.9856 11.5687 17.9992 11.5 17.9991ZM12 10.8291V16.7411L18 14.1691V8.25714L12 10.8291Z" fill="white"/>
<path d="M10.5 8.99971C10.4313 8.9999 10.3633 8.9863 10.3 8.95971L3.3 5.95971C3.20981 5.92129 3.1329 5.8572 3.07884 5.77541C3.02478 5.69363 2.99596 5.59775 2.99596 5.49971C2.99596 5.40167 3.02478 5.3058 3.07884 5.22401C3.1329 5.14223 3.20981 5.07814 3.3 5.03971L10.3 2.03971C10.3622 2.0135 10.429 2 10.4965 2C10.564 2 10.6308 2.0135 10.693 2.03971L17.693 5.03971C17.7832 5.07814 17.8601 5.14223 17.9142 5.22401C17.9682 5.3058 17.997 5.40167 17.997 5.49971C17.997 5.59775 17.9682 5.69363 17.9142 5.77541C17.8601 5.8572 17.7832 5.92129 17.693 5.95971L10.693 8.95971C10.6297 8.98627 10.5617 8.99987 10.493 8.99971M4.769 5.49971L10.5 7.95571L16.23 5.49971L10.5 3.04471L4.769 5.49971Z" fill="white"/>
</g>
</g>
</svg>
