<svg width="20" height="20" viewBox="0 0 20 20" fill="none" xmlns="http://www.w3.org/2000/svg">
<g id="ci_fff_20">
<g id="Vector">
<path d="M3.83594 10.0433C3.83594 6.38328 6.19094 4.23828 8.99594 4.23828C9.60655 4.24405 10.2097 4.37327 10.7691 4.61816C11.3284 4.86305 11.8325 5.21855 12.2509 5.66328L11.0809 7.07328C10.821 6.78899 10.5063 6.56009 10.1558 6.40029C9.80523 6.24049 9.42605 6.15308 9.04094 6.14328C7.36094 6.14328 6.10094 7.58328 6.10094 9.96828C6.10094 12.3833 7.23994 13.8383 8.99494 13.8383C9.43455 13.8294 9.86717 13.7266 10.2638 13.5369C10.6605 13.3472 11.0121 13.0749 11.2949 12.7383L12.4649 14.1183C12.0357 14.6407 11.4941 15.0596 10.8805 15.3435C10.2668 15.6275 9.59701 15.7693 8.92094 15.7583C6.11594 15.7583 3.83594 13.7483 3.83594 10.0433Z" fill="white"/>
<path d="M16.1653 4.44922H13.9453V15.5492H16.1653V4.44922Z" fill="white"/>
</g>
</g>
</svg>
