<svg width="20" height="20" viewBox="0 0 20 20" fill="none" xmlns="http://www.w3.org/2000/svg">
<g id="edit_pencil_fff_24">
<g id="Vector">
<path d="M11.2636 5.27216L3.5138 13.0224C3.41175 13.1224 3.33949 13.2487 3.30505 13.3874L2.52132 16.525C2.50633 16.5868 2.49919 16.6502 2.50007 16.7137C2.49974 16.8169 2.51977 16.9191 2.55901 17.0144C2.59825 17.1098 2.65593 17.1965 2.72874 17.2696C2.80154 17.3426 2.88805 17.4006 2.9833 17.4401C3.07855 17.4796 3.18067 17.5 3.2838 17.5C3.3474 17.499 3.41069 17.4911 3.47255 17.4763L6.60997 16.6912C6.74831 16.6567 6.87455 16.585 6.97496 16.4837L14.7248 8.73351L11.2636 5.27216Z" fill="white"/>
<path d="M16.7843 3.21696C16.3251 2.75789 15.7024 2.5 15.0531 2.5C14.4038 2.5 13.7811 2.75789 13.3219 3.21696L12.1494 4.3895L15.6119 7.85209L16.7831 6.68081C17.2421 6.22159 17.5 5.59884 17.5 4.94951C17.5 4.30018 17.2421 3.67743 16.7831 3.21821" fill="white"/>
</g>
</g>
</svg>
