<svg width="101" height="101" viewBox="0 0 101 101" fill="none" xmlns="http://www.w3.org/2000/svg">
<g id="Ring Chart5">
<path id="&#237;&#140;&#168;&#236;&#138;&#164; 91533" d="M50.0793 0.5C59.8739 0.500013 69.4565 3.35284 77.6562 8.70993C85.8559 14.067 92.3178 21.6964 96.2523 30.666C100.186 39.6355 101.423 49.5566 99.8108 59.2173C98.1987 68.878 93.8077 77.86 87.1743 85.066L64.3463 64.054C66.8979 61.2824 68.587 57.8277 69.2071 54.1118C69.8273 50.396 69.3516 46.5799 67.8383 43.13C66.325 39.6802 63.8397 36.7458 60.6859 34.6854C57.5321 32.6251 53.8465 31.5279 50.0793 31.528V0.5Z" fill="#0077FF"/>
<path id="&#237;&#140;&#168;&#236;&#138;&#164; 91534" d="M87.6944 84.1181C83.0189 89.2709 77.3183 93.3899 70.9581 96.2109C64.5978 99.032 57.7182 100.493 50.7604 100.5C43.8026 100.493 36.923 99.032 30.5627 96.2109C24.2025 93.3899 18.5019 89.2709 13.8264 84.1181L36.5554 62.9551C38.3537 64.9367 40.5462 66.5208 42.9924 67.6057C45.4386 68.6906 48.0844 69.2524 50.7604 69.2551C53.4364 69.2524 56.0823 68.6906 58.5284 67.6057C60.9746 66.5208 63.1671 64.9367 64.9654 62.9551L87.6944 84.1181Z" fill="#16A3E9"/>
<path id="&#237;&#140;&#168;&#236;&#138;&#164; 91535" d="M13.8263 84.296C8.15081 78.1308 4.10143 70.6482 2.04431 62.5248C-0.0128171 54.4014 -0.0128164 45.8934 2.04431 37.77L32.1223 45.387C31.3309 48.5114 31.3308 51.7838 32.1219 54.9082C32.913 58.0327 34.4704 60.9107 36.6533 63.282L13.8263 84.296Z" fill="#27D4FF"/>
<path id="&#237;&#140;&#168;&#236;&#138;&#164; 91536" d="M2.04443 38.5428C4.79899 27.6677 11.1018 18.0218 19.9554 11.1318L39.0134 35.6168C35.6085 38.267 33.1846 41.9771 32.1254 46.1598L2.04443 38.5428Z" fill="#64EBA7"/>
<path id="&#237;&#140;&#168;&#236;&#138;&#164; 91537" d="M19.7373 11.1319C24.1341 7.71003 29.0676 5.04053 34.3373 3.23193L44.4123 32.5779C42.386 33.2735 40.489 34.3001 38.7983 35.6159L19.7373 11.1319Z" fill="#9DFFBE"/>
<path id="&#237;&#140;&#168;&#236;&#138;&#164; 91538" d="M34.2114 3.232C39.48 1.42324 45.012 0.500072 50.5824 0.5V31.528C48.4388 31.5277 46.3099 31.8829 44.2824 32.579L34.2114 3.232Z" fill="#8972FF"/>
</g>
</svg>
