<svg width="101" height="101" viewBox="0 0 101 101" fill="none" xmlns="http://www.w3.org/2000/svg">
<g id="Ring Chart5">
<path id="&#237;&#140;&#168;&#236;&#138;&#164; 91533" d="M50.0801 0.5C59.8747 0.500013 69.4572 3.35284 77.6569 8.70993C85.8567 14.067 92.3185 21.6964 96.2531 30.666C100.187 39.6355 101.424 49.5566 99.8115 59.2173C98.1994 68.878 93.8084 77.86 87.1751 85.066L64.3471 64.054C66.8987 61.2824 68.5877 57.8277 69.2078 54.1118C69.828 50.396 69.3524 46.5799 67.8391 43.13C66.3258 39.6802 63.8404 36.7458 60.6866 34.6854C57.5328 32.6251 53.8472 31.5279 50.0801 31.528V0.5Z" fill="#0068E6"/>
<path id="&#237;&#140;&#168;&#236;&#138;&#164; 91534" d="M87.6951 84.1181C83.0197 89.2709 77.3191 93.3899 70.9588 96.2109C64.5985 99.032 57.719 100.493 50.7611 100.5C43.8033 100.493 36.9237 99.032 30.5635 96.2109C24.2032 93.3899 18.5026 89.2709 13.8271 84.1181L36.5561 62.9551C38.3544 64.9367 40.5469 66.5208 42.9931 67.6057C45.4393 68.6906 48.0852 69.2524 50.7611 69.2551C53.4371 69.2524 56.083 68.6906 58.5292 67.6057C60.9754 66.5208 63.1679 64.9367 64.9661 62.9551L87.6951 84.1181Z" fill="#0D7EFF"/>
<path id="&#237;&#140;&#168;&#236;&#138;&#164; 91535" d="M13.8268 84.296C8.1513 78.1308 4.10192 70.6482 2.0448 62.5248C-0.0123289 54.4014 -0.0123281 45.8934 2.0448 37.77L32.1228 45.387C31.3314 48.5114 31.3313 51.7838 32.1224 54.9082C32.9135 58.0327 34.4709 60.9107 36.6538 63.282L13.8268 84.296Z" fill="#00B8E6"/>
<path id="&#237;&#140;&#168;&#236;&#138;&#164; 91536" d="M2.04492 38.5428C4.79948 27.6677 11.1023 18.0218 19.9559 11.1318L39.0139 35.6168C35.6089 38.267 33.1851 41.9771 32.1259 46.1598L2.04492 38.5428Z" fill="#64EBA7"/>
<path id="&#237;&#140;&#168;&#236;&#138;&#164; 91537" d="M19.7383 11.1319C24.135 7.71003 29.0686 5.04053 34.3383 3.23193L44.4133 32.5779C42.387 33.2735 40.49 34.3001 38.7993 35.6159L19.7383 11.1319Z" fill="#97F5B6"/>
<path id="&#237;&#140;&#168;&#236;&#138;&#164; 91538" d="M34.2119 3.232C39.4805 1.42324 45.0125 0.500072 50.5829 0.5V31.528C48.4393 31.5277 46.3104 31.8829 44.2829 32.579L34.2119 3.232Z" fill="#7451FE"/>
</g>
</svg>
