<svg width="146" height="20" viewBox="0 0 146 20" fill="none" xmlns="http://www.w3.org/2000/svg">
<g id="&#234;&#183;&#184;&#235;&#163;&#185;_181295" clip-path="url(#clip0_5416_3692)">
<g id="&#234;&#183;&#184;&#235;&#163;&#185; 181286">
<g id="Clip path group">
<mask id="mask0_5416_3692" style="mask-type:luminance" maskUnits="userSpaceOnUse" x="0" y="0" width="146" height="20">
<g id="clip-path">
<path id="&#236;&#130;&#172;&#234;&#176;&#129;&#237;&#152;&#149; 42447" d="M145.539 0H0V20H145.539V0Z" fill="white"/>
</g>
</mask>
<g mask="url(#mask0_5416_3692)">
<g id="&#234;&#183;&#184;&#235;&#163;&#185; 181285">
<path id="&#237;&#140;&#168;&#236;&#138;&#164; 92823" d="M41.5491 5.00584C42.0326 5.00584 42.5052 4.86247 42.9071 4.59388C43.3091 4.32529 43.6224 3.94353 43.8074 3.49688C43.9924 3.05022 44.0409 2.55874 43.9465 2.08458C43.8522 1.61041 43.6194 1.17486 43.2776 0.83301C42.9357 0.491157 42.5002 0.258352 42.026 0.164035C41.5518 0.0697176 41.0604 0.118125 40.6137 0.303134C40.167 0.488144 39.7853 0.801447 39.5167 1.20342C39.2481 1.6054 39.1047 2.078 39.1047 2.56145C39.1047 3.20974 39.3623 3.83148 39.8207 4.28989C40.2791 4.7483 40.9008 5.00584 41.5491 5.00584Z" fill="#0068E6"/>
<path id="&#236;&#130;&#172;&#234;&#176;&#129;&#237;&#152;&#149; 42446" d="M43.9935 7.4502H39.1056V19.6703H43.9935V7.4502Z" fill="#0068E6"/>
</g>
</g>
</g>
</g>
<g id="&#234;&#183;&#184;&#235;&#163;&#185; 181288">
<g id="Clip path group_2">
<mask id="mask1_5416_3692" style="mask-type:luminance" maskUnits="userSpaceOnUse" x="0" y="0" width="15" height="20">
<g id="clip-path-2">
<path id="&#237;&#140;&#168;&#236;&#138;&#164; 92824" d="M0 0.118042V9.89378C0.00043088 11.6097 0.452435 13.2953 1.3106 14.7812C2.16877 16.2672 3.40287 17.5011 4.88893 18.359C6.37499 19.217 8.06066 19.6687 9.77659 19.6689C11.4925 19.669 13.1783 19.2176 14.6645 18.36V9.89378C14.6645 11.1902 14.1495 12.4336 13.2327 13.3503C12.316 14.2671 11.0726 14.7821 9.77619 14.7821C8.47972 14.7821 7.23636 14.2671 6.31962 13.3503C5.40289 12.4336 4.88787 11.1902 4.88787 9.89378V0.118042H0Z" fill="white"/>
</g>
</mask>
<g mask="url(#mask1_5416_3692)">
<g id="&#234;&#183;&#184;&#235;&#163;&#185; 181287">
<path id="&#236;&#130;&#172;&#234;&#176;&#129;&#237;&#152;&#149; 42448" d="M14.6645 0.118042H0V19.6704H14.6645V0.118042Z" fill="url(#paint0_linear_5416_3692)"/>
</g>
</g>
</g>
</g>
<g id="&#234;&#183;&#184;&#235;&#163;&#185; 181290">
<g id="Clip path group_3">
<mask id="mask2_5416_3692" style="mask-type:luminance" maskUnits="userSpaceOnUse" x="0" y="0" width="146" height="20">
<g id="clip-path_2">
<path id="&#236;&#130;&#172;&#234;&#176;&#129;&#237;&#152;&#149; 42447_2" d="M145.539 0H0V20H145.539V0Z" fill="white"/>
</g>
</mask>
<g mask="url(#mask2_5416_3692)">
<g id="&#234;&#183;&#184;&#235;&#163;&#185; 181289">
<path id="&#237;&#140;&#168;&#236;&#138;&#164; 92825" d="M29.3291 1.42577C27.8426 0.568398 26.1567 0.117065 24.4407 0.117065C22.7247 0.117065 21.0389 0.568398 19.5524 1.42577V0.117117H14.6646V19.6704H19.5524V9.89375C19.5524 8.59729 20.0674 7.35393 20.9842 6.43719C21.9009 5.52045 23.1443 5.00544 24.4407 5.00544C25.7372 5.00544 26.9806 5.52045 27.8973 6.43719C28.814 7.35393 29.3291 8.59729 29.3291 9.89375V19.6704H34.2169V9.89375C34.2173 8.17766 33.7658 6.49172 32.9077 5.00553C32.0497 3.51933 30.8154 2.28531 29.3291 1.42757" fill="#0068E6"/>
<path id="&#237;&#140;&#168;&#236;&#138;&#164; 92826" d="M63.6414 2.39214H57.5116V19.6785H55.0113V2.39214H48.8815V0.29541H63.6414V2.39214Z" fill="black"/>
<path id="&#237;&#140;&#168;&#236;&#138;&#164; 92827" d="M72.1103 8.22654C71.4649 8.22265 70.8207 8.28573 70.1883 8.41478C69.6231 8.52862 69.0759 8.71859 68.5617 8.97949C68.0512 9.26899 67.5925 9.64156 67.2044 10.0819C66.7879 10.5378 66.496 11.0933 66.3569 11.695C66.1901 12.4904 66.1092 13.3014 66.1155 14.1141V19.6793H63.7495V6.23699H66.1155V8.60302C66.723 7.83707 67.4826 7.20533 68.3465 6.74766C69.5057 6.14291 70.8042 5.85549 72.1103 5.91455V8.22654Z" fill="black"/>
<path id="&#237;&#140;&#168;&#236;&#138;&#164; 92828" d="M84.8276 19.6794H82.3805V18.1483C81.9026 18.5691 81.3689 18.9218 80.7945 19.1966C80.2826 19.469 79.7351 19.6682 79.1679 19.7884C78.4816 19.9235 77.7831 19.9866 77.0838 19.9766C76.6473 19.9617 76.2162 19.8756 75.8075 19.7217C75.3389 19.5641 74.8986 19.3324 74.5034 19.0354C74.1192 18.727 73.8149 18.3307 73.6162 17.8799C73.4132 17.4041 73.3123 16.8911 73.3199 16.374C73.2966 15.4183 73.6215 14.4868 74.2341 13.753C74.8249 13.0395 75.6093 12.5119 76.4929 12.2336C77.0796 12.0438 77.6826 11.9091 78.2942 11.831C78.864 11.7481 79.4387 11.7029 80.0145 11.6959H82.3805V10.5926C82.3702 10.3244 82.3294 10.0582 82.2589 9.79916C82.1784 9.467 82.0373 9.15253 81.8428 8.87149C81.5807 8.54872 81.2437 8.29489 80.8611 8.13205C80.3558 7.91284 79.8085 7.80738 79.2579 7.82312C78.5461 7.80198 77.8443 7.99392 77.2423 8.37432C76.9749 8.54409 76.757 8.78135 76.6106 9.06218C76.4642 9.34301 76.3944 9.65748 76.4083 9.97389H73.6739C73.6651 9.44086 73.7753 8.91259 73.9963 8.42746C74.2408 7.93425 74.5989 7.50611 75.0411 7.17825C75.5903 6.77692 76.2041 6.47233 76.8559 6.27759C77.6323 6.03028 78.4431 5.90747 79.2579 5.91373C80.7587 5.80863 82.2423 6.28532 83.401 7.2449C83.8565 7.65206 84.2194 8.15217 84.4651 8.7115C84.7109 9.27083 84.8339 9.87637 84.8258 10.4873L84.8276 19.6794ZM82.3805 14.5979V13.4684C81.968 13.4684 81.4751 13.4732 80.9016 13.4829C80.199 13.5032 79.4986 13.5703 78.8049 13.6837C78.0868 13.7721 77.3977 14.0205 76.7883 14.4105C76.491 14.5833 76.2434 14.8302 76.0698 15.1271C75.8962 15.424 75.8024 15.7608 75.7976 16.1047C75.7713 16.3894 75.8164 16.6762 75.9291 16.939C76.0417 17.2018 76.2182 17.4324 76.4425 17.6097C76.9364 17.9333 77.5197 18.0934 78.1096 18.0672C78.4671 18.051 78.8219 17.9967 79.1679 17.9051C79.5987 17.8066 80.0178 17.6622 80.418 17.4746C81.0936 17.1001 81.6662 16.5645 82.0851 15.9155C82.3015 15.5113 82.4037 15.0558 82.3805 14.5979Z" fill="black"/>
<path id="&#237;&#140;&#168;&#236;&#138;&#164; 92829" d="M96.9513 2.36511C96.5319 2.2117 96.1001 2.09478 95.6607 2.01566C95.2166 1.94177 94.767 1.90592 94.3169 1.90848C93.8951 1.88762 93.4736 1.95638 93.0803 2.11023C92.7706 2.26444 92.5099 2.50175 92.3273 2.79563C92.1835 3.06503 92.0838 3.35572 92.0319 3.65666C91.9732 4.02081 91.9461 4.38934 91.9509 4.75816V6.23704H95.957V8.14553H91.9509V19.6794H89.4506V8.14553H87.0035V6.23704H89.4497V5.26973C89.4485 4.66334 89.4786 4.0573 89.5398 3.45401C89.6054 2.8442 89.8126 2.25818 90.145 1.74276C90.5038 1.21234 90.9971 0.786814 91.5744 0.509758C92.4037 0.146121 93.3037 -0.0280279 94.2088 -1.40248e-05C94.7041 -0.00304739 95.1989 0.0327887 95.6886 0.107164C96.1365 0.179217 96.5568 0.250669 96.9495 0.321521L96.9513 2.36511Z" fill="black"/>
<path id="&#237;&#140;&#168;&#236;&#138;&#164; 92830" d="M107.006 2.36511C106.587 2.2117 106.155 2.09478 105.716 2.01566C105.272 1.94177 104.822 1.90592 104.372 1.90848C103.95 1.88762 103.529 1.95638 103.135 2.11023C102.826 2.26444 102.565 2.50175 102.382 2.79563C102.239 3.06503 102.139 3.35572 102.087 3.65666C102.028 4.02081 102.001 4.38934 102.006 4.75816V6.23704H106.012V8.14553H102.006V19.6794H99.5056V8.14553H97.0594V6.23704H99.5056V5.26973C99.5044 4.66334 99.5345 4.0573 99.5957 3.45401C99.6613 2.8442 99.8685 2.25818 100.201 1.74276C100.559 1.21246 101.052 0.786947 101.629 0.509758C102.459 0.146121 103.359 -0.0280279 104.264 -1.40248e-05C104.759 -0.00304739 105.254 0.0327887 105.744 0.107164C106.192 0.179217 106.612 0.250669 107.005 0.321521L107.006 2.36511Z" fill="black"/>
<path id="&#237;&#140;&#168;&#236;&#138;&#164; 92831" d="M111.334 3.19913H108.403V0.29541H111.334V3.19913ZM111.146 19.6812H108.645V6.23705H111.141L111.146 19.6812Z" fill="black"/>
<path id="&#237;&#140;&#168;&#236;&#138;&#164; 92832" d="M125.987 10.6457H123.406C123.416 9.91992 123.157 9.21609 122.68 8.66969C122.385 8.36831 122.027 8.13599 121.632 7.98944C121.237 7.84289 120.814 7.78576 120.395 7.82218C119.859 7.81224 119.328 7.92143 118.84 8.14183C118.352 8.36223 117.919 8.68835 117.572 9.09661C116.764 10.1122 116.362 11.3914 116.442 12.6866C116.443 13.0788 116.475 13.4703 116.537 13.8575C116.601 14.2686 116.714 14.6707 116.873 15.0554C117.048 15.5445 117.307 15.9993 117.639 16.3991C118.047 16.8758 118.545 17.2683 119.104 17.5547C119.428 17.6981 119.766 17.8062 120.113 17.8771C120.62 17.9899 121.139 18.044 121.658 18.0383C122.232 18.0269 122.805 17.9688 123.369 17.8645C124.145 17.7158 124.886 17.4287 125.56 17.017V18.9795C124.736 19.4159 123.846 19.7155 122.925 19.8667C122.019 20.0106 121.097 20.0379 120.184 19.9477C119.371 19.8697 118.577 19.6611 117.83 19.3299C117.128 19.0391 116.487 18.6197 115.939 18.0933C115.311 17.4454 114.814 16.6828 114.474 15.847C114.068 14.8351 113.871 13.7514 113.895 12.6614C113.884 11.7496 114.021 10.842 114.3 9.97385C114.562 9.17662 115.003 8.45007 115.59 7.8501C116.163 7.23391 116.865 6.75171 117.646 6.43786C118.538 6.07722 119.494 5.89899 120.456 5.91368C121.181 5.90372 121.903 6.01264 122.593 6.23612C123.212 6.44299 123.797 6.7424 124.327 7.12417C124.815 7.52309 125.221 8.01238 125.524 8.56522C125.855 9.20827 126.017 9.92533 125.994 10.6484" fill="black"/>
</g>
</g>
</g>
</g>
<g id="&#234;&#183;&#184;&#235;&#163;&#185; 181292">
<g id="Clip path group_4">
<mask id="mask3_5416_3692" style="mask-type:luminance" maskUnits="userSpaceOnUse" x="136" y="2" width="5" height="16">
<g id="clip-path-4">
<path id="&#237;&#140;&#168;&#236;&#138;&#164; 92833" d="M136.374 4.39432V15.3932C136.374 15.8794 136.567 16.3457 136.911 16.6895C137.255 17.0333 137.721 17.2264 138.207 17.2264C138.693 17.2264 139.16 17.0333 139.504 16.6895C139.847 16.3457 140.04 15.8794 140.04 15.3932V4.39432C140.04 3.90811 139.847 3.4418 139.504 3.09799C139.16 2.75418 138.693 2.56104 138.207 2.56104C137.721 2.56104 137.255 2.75418 136.911 3.09799C136.567 3.4418 136.374 3.90811 136.374 4.39432Z" fill="white"/>
</g>
</mask>
<g mask="url(#mask3_5416_3692)">
<g id="&#234;&#183;&#184;&#235;&#163;&#185; 181291">
<path id="&#236;&#130;&#172;&#234;&#176;&#129;&#237;&#152;&#149; 42450" d="M140.04 2.56152H136.374V17.226H140.04V2.56152Z" fill="url(#paint1_linear_5416_3692)"/>
</g>
</g>
</g>
</g>
<g id="&#234;&#183;&#184;&#235;&#163;&#185; 181294">
<g id="Clip path group_5">
<mask id="mask4_5416_3692" style="mask-type:luminance" maskUnits="userSpaceOnUse" x="0" y="0" width="146" height="20">
<g id="clip-path_3">
<path id="&#236;&#130;&#172;&#234;&#176;&#129;&#237;&#152;&#149; 42447_3" d="M145.539 0H0V20H145.539V0Z" fill="white"/>
</g>
</mask>
<g mask="url(#mask4_5416_3692)">
<g id="&#234;&#183;&#184;&#235;&#163;&#185; 181293">
<path id="&#237;&#140;&#168;&#236;&#138;&#164; 92834" d="M130.875 9.89375C130.875 9.40765 131.068 8.94146 131.411 8.59774C131.755 8.25402 132.221 8.06091 132.707 8.06091H143.706C144.192 8.06091 144.658 8.25402 145.002 8.59774C145.346 8.94146 145.539 9.40765 145.539 9.89375C145.539 10.3798 145.346 10.846 145.002 11.1898C144.658 11.5335 144.192 11.7266 143.706 11.7266H132.707C132.221 11.7266 131.755 11.5335 131.411 11.1898C131.068 10.846 130.875 10.3798 130.875 9.89375Z" fill="#27D4FF"/>
</g>
</g>
</g>
</g>
</g>
<defs>
<linearGradient id="paint0_linear_5416_3692" x1="3.48531e-09" y1="20.0028" x2="14.6646" y2="20.0468" gradientUnits="userSpaceOnUse">
<stop offset="0.546875" stop-color="#0068E6"/>
<stop offset="1" stop-color="#0032A0"/>
</linearGradient>
<linearGradient id="paint1_linear_5416_3692" x1="138.207" y1="2.56152" x2="138.207" y2="17.226" gradientUnits="userSpaceOnUse">
<stop stop-color="#27D4FF"/>
<stop offset="0.502" stop-color="#0082F0"/>
<stop offset="1" stop-color="#27D4FF"/>
</linearGradient>
<clipPath id="clip0_5416_3692">
<rect width="145.539" height="20" fill="white"/>
</clipPath>
</defs>
</svg>
