<svg width="20" height="20" viewBox="0 0 20 20" fill="none" xmlns="http://www.w3.org/2000/svg">
<g id="linked_group_line_fff_20">
<path id="&#237;&#140;&#168;&#236;&#138;&#164; 86013" d="M17.9978 10.0024C17.9964 9.42721 17.7731 8.87476 17.3744 8.46023C16.9757 8.04569 16.4324 7.80106 15.8578 7.77736C15.5421 6.9495 15.0548 6.19781 14.428 5.57167C13.8012 4.94552 13.049 4.4591 12.2208 4.14436C12.1964 3.57057 11.9514 3.02837 11.5368 2.63098C11.1222 2.23358 10.5701 2.01172 9.99575 2.01172C9.42145 2.01172 8.86935 2.23358 8.45475 2.63098C8.04014 3.02837 7.79509 3.57057 7.77075 4.14436C6.94477 4.46174 6.19471 4.94916 5.5692 5.57502C4.94368 6.20088 4.45668 6.9512 4.13975 7.77736C3.56119 7.79471 3.01214 8.03673 2.60904 8.4521C2.20593 8.86748 1.98047 9.42354 1.98047 10.0024C1.98047 10.5812 2.20593 11.1372 2.60904 11.5526C3.01214 11.968 3.56119 12.21 4.13975 12.2274C4.45631 13.0546 4.94336 13.8061 5.56926 14.4328C6.19516 15.0596 6.94592 15.5477 7.77275 15.8654C7.7939 16.4412 8.03753 16.9864 8.45239 17.3863C8.86725 17.7862 9.42103 18.0097 9.99725 18.0097C10.5735 18.0097 11.1273 17.7862 11.5421 17.3863C11.957 16.9864 12.2006 16.4412 12.2218 15.8654C13.0494 15.548 13.801 15.0598 14.4275 14.4326C15.0539 13.8055 15.5413 13.0534 15.8578 12.2254C16.4321 12.2017 16.9751 11.9573 17.3738 11.5432C17.7724 11.1291 17.9959 10.5772 17.9978 10.0024ZM9.99775 3.01136C10.24 3.01136 10.4769 3.0832 10.6783 3.21781C10.8798 3.35241 11.0368 3.54373 11.1295 3.76757C11.2222 3.99141 11.2465 4.23772 11.1992 4.47534C11.1519 4.71297 11.0353 4.93124 10.864 5.10256C10.6926 5.27388 10.4744 5.39055 10.2367 5.43782C9.99911 5.48509 9.7528 5.46083 9.52896 5.36811C9.30513 5.27539 9.11381 5.11838 8.9792 4.91693C8.8446 4.71548 8.77275 4.47864 8.77275 4.23636C8.77302 3.91128 8.90227 3.5996 9.13213 3.36974C9.36199 3.13988 9.67368 3.01062 9.99875 3.01036M3.00675 10.0024C3.00636 9.75999 3.07787 9.52295 3.21223 9.32124C3.34659 9.11953 3.53777 8.9622 3.76158 8.86918C3.98538 8.77616 4.23175 8.75161 4.46951 8.79865C4.70727 8.84569 4.92573 8.96221 5.09725 9.13344C5.26877 9.30468 5.38564 9.52295 5.43307 9.76064C5.4805 9.99832 5.45635 10.2447 5.3637 10.4687C5.27104 10.6926 5.11403 10.8841 4.91253 11.0188C4.71104 11.1535 4.47412 11.2254 4.23175 11.2254C3.90737 11.2248 3.5964 11.0959 3.36684 10.8667C3.13727 10.6375 3.00781 10.3267 3.00675 10.0024ZM9.99775 16.9924C9.75547 16.9924 9.51863 16.9205 9.31718 16.7859C9.11573 16.6513 8.95872 16.46 8.866 16.2361C8.77328 16.0123 8.74902 15.766 8.79629 15.5284C8.84356 15.2907 8.96023 15.0725 9.13155 14.9012C9.30287 14.7298 9.52114 14.6132 9.75877 14.5659C9.99639 14.5186 10.2427 14.5429 10.4665 14.6356C10.6904 14.7283 10.8817 14.8853 11.0163 15.0868C11.1509 15.2882 11.2228 15.5251 11.2228 15.7674C11.2222 16.0921 11.093 16.4034 10.8634 16.633C10.6338 16.8626 10.3225 16.9918 9.99775 16.9924ZM12.0268 14.8464C11.851 14.4552 11.5659 14.1232 11.2058 13.8902C10.8458 13.6573 10.4261 13.5334 9.99725 13.5334C9.56841 13.5334 9.14871 13.6573 8.78866 13.8902C8.4286 14.1232 8.14353 14.4552 7.96775 14.8464C6.69853 14.3109 5.68801 13.3018 5.15075 12.0334C5.54242 11.8577 5.87493 11.5724 6.10823 11.2121C6.34152 10.8518 6.46565 10.4316 6.46565 10.0024C6.46565 9.57308 6.34152 9.15296 6.10823 8.79261C5.87493 8.43227 5.54242 8.14706 5.15075 7.97136C5.68833 6.70288 6.69871 5.69358 7.96775 5.15736C8.14394 5.54881 8.42955 5.88097 8.79019 6.11382C9.15082 6.34668 9.5711 6.47028 10.0004 6.46975C10.4296 6.46923 10.8496 6.34458 11.2097 6.11085C11.5697 5.87711 11.8545 5.54424 12.0298 5.15236C13.3006 5.68712 14.3107 6.69939 14.8428 7.97136C14.4514 8.14719 14.1191 8.43239 13.8861 8.79263C13.653 9.15287 13.529 9.57279 13.529 10.0019C13.529 10.4309 13.653 10.8508 13.8861 11.2111C14.1191 11.5713 14.4514 11.8565 14.8428 12.0324C14.305 13.3005 13.2946 14.3094 12.0258 14.8454M15.7638 11.2254C15.5215 11.2254 15.2846 11.1535 15.0832 11.0189C14.8817 10.8843 14.7247 10.693 14.632 10.4691C14.5393 10.2453 14.515 9.999 14.5623 9.76137C14.6096 9.52375 14.7262 9.30547 14.8975 9.13415C15.0689 8.96283 15.2871 8.84616 15.5248 8.7989C15.7624 8.75163 16.0087 8.77589 16.2325 8.86861C16.4564 8.96132 16.6477 9.11833 16.7823 9.31978C16.9169 9.52123 16.9888 9.75808 16.9888 10.0004C16.9885 10.3252 16.8593 10.6366 16.6297 10.8663C16.4 11.0959 16.0886 11.2251 15.7638 11.2254Z" fill="white"/>
</g>
</svg>
