<svg width="24" height="24" viewBox="0 0 24 24" fill="none" xmlns="http://www.w3.org/2000/svg">
<g id="machine_24" opacity="0.4">
<path id="&#237;&#140;&#168;&#236;&#138;&#164; 86645" d="M4 20.9998H7.178L4 18.2188V20.9998Z" fill="white"/>
<path id="&#237;&#140;&#168;&#236;&#138;&#164; 86646" d="M20 6V5L18.293 3.293C18.1055 3.10545 17.8512 3.00006 17.586 3H6.414C6.14881 3.00006 5.89449 3.10545 5.707 3.293L4 5V6H6V18H5.366L8.794 21H11.194L7.763 18H9.38L12.808 21H15.763L12.335 18H13.951L17.38 21H19.749L16.321 18H17.937L20 19.805V18H18V6H20ZM17 10H7V8H17V10Z" fill="white"/>
</g>
</svg>
