<svg width="131" height="131" viewBox="0 0 131 131" fill="none" xmlns="http://www.w3.org/2000/svg">
<path d="M65.2502 0.500488C78.6281 0.500537 91.6802 4.62841 102.625 12.3208C113.571 20.0132 121.876 30.8954 126.407 43.4825C130.938 56.0694 131.476 69.748 127.946 82.6515C124.415 95.5551 116.99 107.055 106.682 115.582C96.3743 124.11 83.6863 129.249 70.3496 130.299C57.0129 131.348 43.6772 128.257 32.1622 121.447C20.6474 114.638 11.5142 104.441 6.00899 92.2481C0.503762 80.0556 -1.10536 66.4614 1.4012 53.3205L40.6922 60.8205C39.7287 65.8742 40.3479 71.1022 42.4652 75.7911C44.5826 80.48 48.0949 84.4015 52.5232 87.0205C56.9521 89.6397 62.0813 90.8286 67.2109 90.4249C72.3405 90.0211 77.2206 88.0444 81.1852 84.7645C85.15 81.4847 88.0062 77.0614 89.3641 72.0983C90.7219 67.1351 90.5152 61.8738 88.7722 57.0325C87.0293 52.1912 83.8351 48.0056 79.6254 45.0469C75.4157 42.0882 70.3956 40.5005 65.2502 40.5005V0.500488Z" fill="#0068E6"/>
<path d="M1.40137 53.3205C4.23571 38.4626 12.163 25.0584 23.8177 15.4169C35.4723 5.77546 50.1246 0.500402 65.2504 0.500488V40.5005C59.4329 40.5005 53.7975 42.5294 49.315 46.2375C44.8325 49.9457 41.7836 55.1011 40.6934 60.8155L1.40137 53.3205Z" fill="#00B8E6"/>
</svg>
