<svg width="131" height="131" viewBox="0 0 131 131" fill="none" xmlns="http://www.w3.org/2000/svg">
<path d="M65.7502 0.500488C79.1281 0.500537 92.1802 4.62841 103.125 12.3208C114.071 20.0132 122.376 30.8954 126.907 43.4825C131.438 56.0694 131.976 69.748 128.446 82.6515C124.915 95.5551 117.49 107.055 107.182 115.582C96.8743 124.11 84.1863 129.249 70.8496 130.299C57.5129 131.348 44.1772 128.257 32.6622 121.447C21.1474 114.638 12.0142 104.441 6.50899 92.2481C1.00376 80.0556 -0.605362 66.4614 1.9012 53.3205L41.1922 60.8205C40.2287 65.8742 40.8479 71.1022 42.9652 75.7911C45.0826 80.48 48.5949 84.4015 53.0232 87.0205C57.4521 89.6397 62.5813 90.8286 67.7109 90.4249C72.8405 90.0211 77.7206 88.0444 81.6852 84.7645C85.65 81.4847 88.5062 77.0614 89.8641 72.0983C91.2219 67.1351 91.0152 61.8738 89.2722 57.0325C87.5293 52.1912 84.3351 48.0056 80.1254 45.0469C75.9157 42.0882 70.8956 40.5005 65.7502 40.5005V0.500488Z" fill="#0068E6"/>
<path d="M1.90137 53.3205C4.73571 38.4626 12.663 25.0584 24.3177 15.4169C35.9723 5.77546 50.6246 0.500402 65.7504 0.500488V40.5005C59.9329 40.5005 54.2975 42.5294 49.815 46.2375C45.3325 49.9457 42.2836 55.1011 41.1934 60.8155L1.90137 53.3205Z" fill="#00B8E6"/>
</svg>
