<svg width="131" height="131" viewBox="0 0 131 131" fill="none" xmlns="http://www.w3.org/2000/svg">
<path d="M65.7504 0.500488C79.1284 0.500537 92.1805 4.62841 103.126 12.3208C114.071 20.0132 122.376 30.8954 126.907 43.4825C131.439 56.0694 131.976 69.748 128.446 82.6515C124.916 95.5551 117.49 107.055 107.182 115.582C96.8746 124.11 84.1866 129.249 70.8499 130.299C57.5132 131.348 44.1774 128.257 32.6624 121.447C21.1476 114.638 12.0145 104.441 6.50923 92.2481C1.00401 80.0556 -0.605117 66.4614 1.90144 53.3205L41.1924 60.8205C40.229 65.8742 40.8481 71.1022 42.9655 75.7911C45.0828 80.48 48.5952 84.4015 53.0234 87.0205C57.4524 89.6397 62.5816 90.8286 67.7112 90.4249C72.8408 90.0211 77.7209 88.0444 81.6854 84.7645C85.6503 81.4847 88.5065 77.0614 89.8643 72.0983C91.2222 67.1351 91.0155 61.8738 89.2724 57.0325C87.5296 52.1912 84.3354 48.0056 80.1257 45.0469C75.916 42.0882 70.8959 40.5005 65.7504 40.5005V0.500488Z" fill="#0077FF"/>
<path d="M1.90137 53.3205C4.73571 38.4626 12.663 25.0584 24.3177 15.4169C35.9723 5.77546 50.6246 0.500402 65.7504 0.500488V40.5005C59.9329 40.5005 54.2975 42.5294 49.815 46.2375C45.3325 49.9457 42.2836 55.1011 41.1934 60.8155L1.90137 53.3205Z" fill="#27D4FF"/>
</svg>
