<svg width="131" height="131" viewBox="0 0 131 131" fill="none" xmlns="http://www.w3.org/2000/svg">
<g id="Ring Chart5">
<path id="&#237;&#140;&#168;&#236;&#138;&#164; 91533" d="M64.7031 0.499512C77.4365 0.499528 89.8941 4.20831 100.554 11.1727C111.214 18.1372 119.615 28.0557 124.73 39.7165C129.844 51.3771 131.452 64.2749 129.356 76.8342C127.26 89.3935 121.552 101.07 112.928 110.439L83.2508 83.1222C86.5679 79.519 88.7638 75.0277 89.57 70.197C90.3762 65.3662 89.7578 60.4052 87.7905 55.9202C85.8232 51.4352 82.5921 47.6205 78.492 44.9419C74.392 42.2634 69.6006 40.837 64.7031 40.8371V0.499512Z" fill="#0068E6"/>
<path id="&#237;&#140;&#168;&#236;&#138;&#164; 91534" d="M113.604 109.204C107.525 115.902 100.114 121.257 91.8456 124.925C83.577 128.592 74.6333 130.492 65.5879 130.501C56.5424 130.492 47.5987 128.592 39.3301 124.925C31.0616 121.257 23.6506 115.902 17.5723 109.204L47.1208 81.6909C49.4587 84.2672 52.309 86.3265 55.4892 87.7369C58.6693 89.1473 62.109 89.8777 65.5879 89.8812C69.0668 89.8777 72.5065 89.1473 75.6866 87.7369C78.8668 86.3265 81.7171 84.2672 84.0549 81.6909L113.604 109.204Z" fill="#00B8E6"/>
<path id="&#237;&#140;&#168;&#236;&#138;&#164; 91535" d="M17.5728 109.442C10.1944 101.427 4.9301 91.6995 2.25576 81.1388C-0.418587 70.578 -0.418586 59.5173 2.25576 48.9565L41.3583 58.8589C40.3295 62.9208 40.3293 67.175 41.3578 71.2369C42.3863 75.2988 44.411 79.0403 47.2488 82.1231L17.5728 109.442Z" fill="#64EBA7"/>
<path id="&#237;&#140;&#168;&#236;&#138;&#164; 91536" d="M2.25586 49.9581C5.83689 35.82 14.0309 23.2799 25.5409 14.3228L50.317 46.1542C45.8904 49.5995 42.7392 54.4228 41.3623 59.8605L2.25586 49.9581Z" fill="#97F5B6"/>
<path id="&#237;&#140;&#168;&#236;&#138;&#164; 91537" d="M25.2559 14.3245C30.9718 9.8759 37.3856 6.40544 44.2364 4.0542L57.3343 42.2051C54.7 43.1095 52.2338 44.444 50.0359 46.1547L25.2559 14.3245Z" fill="#7451FE"/>
<path id="&#237;&#140;&#168;&#236;&#138;&#164; 91538" d="M44.0752 4.05122C50.9246 1.69976 58.1163 0.499606 65.3581 0.499512V40.8371C62.5713 40.8367 59.8037 41.2984 57.1679 42.2035L44.0752 4.05122Z" fill="#6440F5"/>
</g>
</svg>
