<svg width="1808" height="107" viewBox="0 0 1808 107" fill="none" xmlns="http://www.w3.org/2000/svg">
<path d="M7.27453 9.5967H6.05353V11.7417H5.16253V9.5967H1.13653V8.8487L5.10753 3.5907H6.05353V8.8047H7.27453V9.5967ZM5.16253 5.4387C5.16253 5.34337 5.1662 5.23703 5.17353 5.1197C5.18086 4.99503 5.19186 4.87403 5.20653 4.7567L2.23653 8.8047H5.16253V5.4387ZM13.7063 7.7267C13.7063 8.43803 13.6293 9.0577 13.4753 9.5857C13.3213 10.1064 13.1123 10.539 12.8483 10.8837C12.5843 11.2284 12.2726 11.485 11.9133 11.6537C11.5539 11.815 11.1653 11.8957 10.7473 11.8957C10.3293 11.8957 9.9406 11.815 9.58127 11.6537C9.22193 11.485 8.9066 11.2284 8.63527 10.8837C8.37127 10.539 8.16227 10.1064 8.00827 9.5857C7.8616 9.0577 7.78827 8.43803 7.78827 7.7267C7.78827 7.00803 7.8616 6.38837 8.00827 5.8677C8.16227 5.3397 8.37127 4.90337 8.63527 4.5587C8.9066 4.21403 9.22193 3.96103 9.58127 3.7997C9.9406 3.63103 10.3293 3.5467 10.7473 3.5467C11.1653 3.5467 11.5539 3.63103 11.9133 3.7997C12.2726 3.96103 12.5843 4.21403 12.8483 4.5587C13.1123 4.90337 13.3213 5.3397 13.4753 5.8677C13.6293 6.38837 13.7063 7.00803 13.7063 7.7267ZM12.6943 7.7267C12.6943 7.09603 12.6393 6.56803 12.5293 6.1427C12.4266 5.71003 12.2836 5.36537 12.1003 5.1087C11.9243 4.8447 11.7189 4.6577 11.4843 4.5477C11.2496 4.43037 11.0039 4.3717 10.7473 4.3717C10.4906 4.3717 10.2449 4.43037 10.0103 4.5477C9.7756 4.6577 9.57027 4.8447 9.39427 5.1087C9.21827 5.36537 9.07527 5.71003 8.96527 6.1427C8.8626 6.56803 8.81127 7.09603 8.81127 7.7267C8.81127 8.35003 8.8626 8.87803 8.96527 9.3107C9.07527 9.73603 9.21827 10.0807 9.39427 10.3447C9.57027 10.6087 9.7756 10.7994 10.0103 10.9167C10.2449 11.0267 10.4906 11.0817 10.7473 11.0817C11.0039 11.0817 11.2496 11.0267 11.4843 10.9167C11.7189 10.7994 11.9243 10.6087 12.1003 10.3447C12.2836 10.0807 12.4266 9.73603 12.5293 9.3107C12.6393 8.87803 12.6943 8.35003 12.6943 7.7267Z" fill="black" fill-opacity="0.6"/>
<path d="M6.88953 48.8711H1.47753V48.1671L4.26053 45.4941C4.4732 45.2668 4.66753 45.0541 4.84353 44.8561C5.02686 44.6508 5.18086 44.4454 5.30553 44.2401C5.43753 44.0348 5.5402 43.8294 5.61353 43.6241C5.68686 43.4114 5.72353 43.1878 5.72353 42.9531C5.70886 42.4691 5.5622 42.1134 5.28353 41.8861C5.00486 41.6514 4.65653 41.5341 4.23853 41.5341C4.0112 41.5341 3.79853 41.5744 3.60053 41.6551C3.40253 41.7284 3.2302 41.8384 3.08353 41.9851C2.9442 42.1244 2.8342 42.2894 2.75353 42.4801C2.67286 42.6708 2.63253 42.8834 2.63253 43.1181L1.64253 42.9531C1.69386 42.5791 1.79653 42.2528 1.95053 41.9741C2.10453 41.6881 2.2952 41.4498 2.52253 41.2591C2.7572 41.0611 3.02486 40.9144 3.32553 40.8191C3.6262 40.7164 3.94886 40.6651 4.29353 40.6651C4.6382 40.6651 4.9572 40.7164 5.25053 40.8191C5.5512 40.9218 5.81153 41.0721 6.03153 41.2701C6.25153 41.4608 6.42386 41.6954 6.54853 41.9741C6.6732 42.2528 6.73553 42.5718 6.73553 42.9311C6.73553 43.2318 6.69153 43.5104 6.60353 43.7671C6.51553 44.0238 6.39453 44.2731 6.24053 44.5151C6.08653 44.7498 5.90686 44.9808 5.70153 45.2081C5.4962 45.4281 5.27986 45.6518 5.05253 45.8791L2.79753 48.1121C2.95153 48.0681 3.10553 48.0351 3.25953 48.0131C3.42086 47.9911 3.5712 47.9801 3.71053 47.9801H6.88953V48.8711ZM13.7063 44.8561C13.7063 45.5674 13.6293 46.1871 13.4753 46.7151C13.3213 47.2358 13.1123 47.6684 12.8483 48.0131C12.5843 48.3578 12.2726 48.6144 11.9133 48.7831C11.5539 48.9444 11.1653 49.0251 10.7473 49.0251C10.3293 49.0251 9.9406 48.9444 9.58127 48.7831C9.22193 48.6144 8.9066 48.3578 8.63527 48.0131C8.37127 47.6684 8.16227 47.2358 8.00827 46.7151C7.8616 46.1871 7.78827 45.5674 7.78827 44.8561C7.78827 44.1374 7.8616 43.5178 8.00827 42.9971C8.16227 42.4691 8.37127 42.0328 8.63527 41.6881C8.9066 41.3434 9.22193 41.0904 9.58127 40.9291C9.9406 40.7604 10.3293 40.6761 10.7473 40.6761C11.1653 40.6761 11.5539 40.7604 11.9133 40.9291C12.2726 41.0904 12.5843 41.3434 12.8483 41.6881C13.1123 42.0328 13.3213 42.4691 13.4753 42.9971C13.6293 43.5178 13.7063 44.1374 13.7063 44.8561ZM12.6943 44.8561C12.6943 44.2254 12.6393 43.6974 12.5293 43.2721C12.4266 42.8394 12.2836 42.4948 12.1003 42.2381C11.9243 41.9741 11.7189 41.7871 11.4843 41.6771C11.2496 41.5598 11.0039 41.5011 10.7473 41.5011C10.4906 41.5011 10.2449 41.5598 10.0103 41.6771C9.7756 41.7871 9.57027 41.9741 9.39427 42.2381C9.21827 42.4948 9.07527 42.8394 8.96527 43.2721C8.8626 43.6974 8.81127 44.2254 8.81127 44.8561C8.81127 45.4794 8.8626 46.0074 8.96527 46.4401C9.07527 46.8654 9.21827 47.2101 9.39427 47.4741C9.57027 47.7381 9.7756 47.9288 10.0103 48.0461C10.2449 48.1561 10.4906 48.2111 10.7473 48.2111C11.0039 48.2111 11.2496 48.1561 11.4843 48.0461C11.7189 47.9288 11.9243 47.7381 12.1003 47.4741C12.2836 47.2101 12.4266 46.8654 12.5293 46.4401C12.6393 46.0074 12.6943 45.4794 12.6943 44.8561Z" fill="black" fill-opacity="0.6"/>
<path d="M13.7063 81.985C13.7063 82.6963 13.6293 83.316 13.4753 83.844C13.3213 84.3647 13.1123 84.7973 12.8483 85.142C12.5843 85.4867 12.2726 85.7433 11.9133 85.912C11.5539 86.0733 11.1653 86.154 10.7473 86.154C10.3293 86.154 9.9406 86.0733 9.58127 85.912C9.22193 85.7433 8.9066 85.4867 8.63527 85.142C8.37127 84.7973 8.16227 84.3647 8.00827 83.844C7.8616 83.316 7.78827 82.6963 7.78827 81.985C7.78827 81.2663 7.8616 80.6467 8.00827 80.126C8.16227 79.598 8.37127 79.1617 8.63527 78.817C8.9066 78.4723 9.22193 78.2193 9.58127 78.058C9.9406 77.8893 10.3293 77.805 10.7473 77.805C11.1653 77.805 11.5539 77.8893 11.9133 78.058C12.2726 78.2193 12.5843 78.4723 12.8483 78.817C13.1123 79.1617 13.3213 79.598 13.4753 80.126C13.6293 80.6467 13.7063 81.2663 13.7063 81.985ZM12.6943 81.985C12.6943 81.3543 12.6393 80.8263 12.5293 80.401C12.4266 79.9683 12.2836 79.6237 12.1003 79.367C11.9243 79.103 11.7189 78.916 11.4843 78.806C11.2496 78.6887 11.0039 78.63 10.7473 78.63C10.4906 78.63 10.2449 78.6887 10.0103 78.806C9.7756 78.916 9.57027 79.103 9.39427 79.367C9.21827 79.6237 9.07527 79.9683 8.96527 80.401C8.8626 80.8263 8.81127 81.3543 8.81127 81.985C8.81127 82.6083 8.8626 83.1363 8.96527 83.569C9.07527 83.9943 9.21827 84.339 9.39427 84.603C9.57027 84.867 9.7756 85.0577 10.0103 85.175C10.2449 85.285 10.4906 85.34 10.7473 85.34C11.0039 85.34 11.2496 85.285 11.4843 85.175C11.7189 85.0577 11.9243 84.867 12.1003 84.603C12.2836 84.339 12.4266 83.9943 12.5293 83.569C12.6393 83.1363 12.6943 82.6083 12.6943 81.985Z" fill="black" fill-opacity="0.6"/>
<mask id="path-4-inside-1_5151_70800" fill="white">
<path d="M21 0.741699H1808V89.0001H21V0.741699Z"/>
</mask>
<path d="M21 89.0001H20V90.0001H21V89.0001ZM1808 88.0001H21V90.0001H1808V88.0001ZM22 89.0001V0.741699H20V89.0001H22Z" fill="white" fill-opacity="0.2" mask="url(#path-4-inside-1_5151_70800)"/>
<rect x="31.0928" y="53" width="6" height="36" fill="#16D9AB"/>
<rect x="41.0928" y="27" width="6" height="62" fill="#00B8E6"/>
<rect x="51.0928" y="41" width="6" height="48" fill="#0068E6"/>
<rect x="61.0928" y="62" width="6" height="27" fill="#114FE8"/>
<rect x="71.0928" y="53" width="6" height="36" fill="#7451FE"/>
<rect x="97.2783" y="50" width="6" height="39" fill="#16D9AB"/>
<rect x="107.278" y="34" width="6" height="55" fill="#00B8E6"/>
<rect x="117.278" y="26" width="6" height="63" fill="#0068E6"/>
<rect x="127.278" y="43" width="6" height="46" fill="#114FE8"/>
<rect x="137.278" y="62" width="6" height="27" fill="#7451FE"/>
<rect x="163.463" y="27" width="6" height="62" fill="#16D9AB"/>
<rect x="173.463" y="34" width="6" height="55" fill="#00B8E6"/>
<rect x="183.463" y="47" width="6" height="42" fill="#0068E6"/>
<rect x="193.463" y="59" width="6" height="30" fill="#114FE8"/>
<rect x="203.463" y="68" width="6" height="21" fill="#7451FE"/>
<rect x="229.648" y="27" width="6" height="62" fill="#16D9AB"/>
<rect x="239.648" y="57" width="6" height="32" fill="#00B8E6"/>
<rect x="249.648" y="48" width="6" height="41" fill="#0068E6"/>
<rect x="259.648" y="36" width="6" height="53" fill="#114FE8"/>
<rect x="269.648" y="59" width="6" height="30" fill="#7451FE"/>
<rect x="295.834" y="40" width="6" height="49" fill="#16D9AB"/>
<rect x="305.834" y="65" width="6" height="24" fill="#00B8E6"/>
<rect x="315.834" y="53" width="6" height="36" fill="#0068E6"/>
<rect x="325.834" y="32" width="6" height="57" fill="#114FE8"/>
<rect x="335.834" y="65" width="6" height="24" fill="#7451FE"/>
<rect x="362.019" y="40" width="6" height="49" fill="#16D9AB"/>
<rect x="372.019" y="33" width="6" height="56" fill="#00B8E6"/>
<rect x="382.019" y="46" width="6" height="43" fill="#0068E6"/>
<rect x="392.019" y="63" width="6" height="26" fill="#114FE8"/>
<rect x="402.019" y="58" width="6" height="31" fill="#7451FE"/>
<rect x="428.204" y="53" width="6" height="36" fill="#16D9AB"/>
<rect x="438.204" y="27" width="6" height="62" fill="#00B8E6"/>
<rect x="448.204" y="41" width="6" height="48" fill="#0068E6"/>
<rect x="458.204" y="71" width="6" height="18" fill="#114FE8"/>
<rect x="468.204" y="63" width="6" height="26" fill="#7451FE"/>
<rect x="494.389" y="50" width="6" height="39" fill="#16D9AB"/>
<rect x="504.389" y="34" width="6" height="55" fill="#00B8E6"/>
<rect x="514.389" y="26" width="6" height="63" fill="#0068E6"/>
<rect x="524.389" y="43" width="6" height="46" fill="#114FE8"/>
<rect x="534.389" y="62" width="6" height="27" fill="#7451FE"/>
<rect x="560.574" y="27" width="6" height="62" fill="#16D9AB"/>
<rect x="570.574" y="34" width="6" height="55" fill="#00B8E6"/>
<rect x="580.574" y="47" width="6" height="42" fill="#0068E6"/>
<rect x="590.574" y="56" width="6" height="33" fill="#114FE8"/>
<rect x="600.574" y="68" width="6" height="21" fill="#7451FE"/>
<rect x="626.76" y="27" width="6" height="62" fill="#16D9AB"/>
<rect x="636.76" y="57" width="6" height="32" fill="#00B8E6"/>
<rect x="646.76" y="36" width="6" height="53" fill="#0068E6"/>
<rect x="656.76" y="29" width="6" height="60" fill="#114FE8"/>
<rect x="666.76" y="48" width="6" height="41" fill="#7451FE"/>
<rect x="692.944" y="40" width="6" height="49" fill="#16D9AB"/>
<rect x="702.944" y="65" width="6" height="24" fill="#00B8E6"/>
<rect x="712.944" y="53" width="6" height="36" fill="#0068E6"/>
<rect x="722.944" y="45" width="6" height="44" fill="#114FE8"/>
<rect x="732.944" y="30" width="6" height="59" fill="#7451FE"/>
<rect x="759.13" y="40" width="6" height="49" fill="#16D9AB"/>
<rect x="769.13" y="33" width="6" height="56" fill="#00B8E6"/>
<rect x="779.13" y="46" width="6" height="43" fill="#0068E6"/>
<rect x="789.13" y="60" width="6" height="29" fill="#114FE8"/>
<rect x="799.13" y="31" width="6" height="58" fill="#7451FE"/>
<rect x="825.315" y="53" width="6" height="36" fill="#16D9AB"/>
<rect x="835.315" y="27" width="6" height="62" fill="#00B8E6"/>
<rect x="845.315" y="41" width="6" height="48" fill="#0068E6"/>
<rect x="855.315" y="53" width="6" height="36" fill="#114FE8"/>
<rect x="865.315" y="66" width="6" height="23" fill="#7451FE"/>
<rect x="891.5" y="50" width="6" height="39" fill="#16D9AB"/>
<rect x="901.5" y="34" width="6" height="55" fill="#00B8E6"/>
<rect x="911.5" y="26" width="6" height="63" fill="#0068E6"/>
<rect x="921.5" y="16" width="6" height="73" fill="#114FE8"/>
<rect x="931.5" y="43" width="6" height="46" fill="#7451FE"/>
<rect x="957.686" y="27" width="6" height="62" fill="#16D9AB"/>
<rect x="967.686" y="34" width="6" height="55" fill="#00B8E6"/>
<rect x="977.686" y="47" width="6" height="42" fill="#0068E6"/>
<rect x="987.686" y="40" width="6" height="49" fill="#114FE8"/>
<rect x="997.686" y="60" width="6" height="29" fill="#7451FE"/>
<rect x="1023.87" y="27" width="6" height="62" fill="#16D9AB"/>
<rect x="1033.87" y="57" width="6" height="32" fill="#00B8E6"/>
<rect x="1043.87" y="36" width="6" height="53" fill="#0068E6"/>
<rect x="1053.87" y="48" width="6" height="41" fill="#114FE8"/>
<rect x="1063.87" y="23" width="6" height="66" fill="#7451FE"/>
<rect x="1090.06" y="40" width="6" height="49" fill="#16D9AB"/>
<rect x="1100.06" y="65" width="6" height="24" fill="#00B8E6"/>
<rect x="1110.06" y="53" width="6" height="36" fill="#0068E6"/>
<rect x="1120.06" y="65" width="6" height="24" fill="#114FE8"/>
<rect x="1130.06" y="43" width="6" height="46" fill="#7451FE"/>
<rect x="1156.24" y="40" width="6" height="49" fill="#16D9AB"/>
<rect x="1166.24" y="33" width="6" height="56" fill="#00B8E6"/>
<rect x="1176.24" y="46" width="6" height="43" fill="#0068E6"/>
<rect x="1186.24" y="26" width="6" height="63" fill="#114FE8"/>
<rect x="1196.24" y="61" width="6" height="28" fill="#7451FE"/>
<rect x="1222.43" y="53" width="6" height="36" fill="#16D9AB"/>
<rect x="1232.43" y="27" width="6" height="62" fill="#00B8E6"/>
<rect x="1242.43" y="41" width="6" height="48" fill="#0068E6"/>
<rect x="1252.43" y="53" width="6" height="36" fill="#114FE8"/>
<rect x="1262.43" y="66" width="6" height="23" fill="#7451FE"/>
<rect x="1288.61" y="50" width="6" height="39" fill="#16D9AB"/>
<rect x="1298.61" y="34" width="6" height="55" fill="#00B8E6"/>
<rect x="1308.61" y="26" width="6" height="63" fill="#0068E6"/>
<rect x="1318.61" y="16" width="6" height="73" fill="#114FE8"/>
<rect x="1328.61" y="8" width="6" height="81" fill="#7451FE"/>
<rect x="1354.8" y="27" width="6" height="62" fill="#16D9AB"/>
<rect x="1364.8" y="34" width="6" height="55" fill="#00B8E6"/>
<rect x="1374.8" y="47" width="6" height="42" fill="#0068E6"/>
<rect x="1384.8" y="60" width="6" height="29" fill="#114FE8"/>
<rect x="1394.8" y="73" width="6" height="16" fill="#7451FE"/>
<rect x="1420.98" y="27" width="6" height="62" fill="#16D9AB"/>
<rect x="1430.98" y="57" width="6" height="32" fill="#00B8E6"/>
<rect x="1440.98" y="36" width="6" height="53" fill="#0068E6"/>
<rect x="1450.98" y="52" width="6" height="37" fill="#114FE8"/>
<rect x="1460.98" y="27" width="6" height="62" fill="#7451FE"/>
<rect x="1487.17" y="40" width="6" height="49" fill="#16D9AB"/>
<rect x="1497.17" y="65" width="6" height="24" fill="#00B8E6"/>
<rect x="1507.17" y="53" width="6" height="36" fill="#0068E6"/>
<rect x="1517.17" y="40" width="6" height="49" fill="#114FE8"/>
<rect x="1527.17" y="65" width="6" height="24" fill="#7451FE"/>
<rect x="1553.35" y="40" width="6" height="49" fill="#16D9AB"/>
<rect x="1563.35" y="33" width="6" height="56" fill="#00B8E6"/>
<rect x="1573.35" y="46" width="6" height="43" fill="#0068E6"/>
<rect x="1583.35" y="62" width="6" height="27" fill="#114FE8"/>
<rect x="1593.35" y="30" width="6" height="59" fill="#7451FE"/>
<rect x="1619.54" y="50" width="6" height="39" fill="#16D9AB"/>
<rect x="1629.54" y="34" width="6" height="55" fill="#00B8E6"/>
<rect x="1639.54" y="26" width="6" height="63" fill="#0068E6"/>
<rect x="1649.54" y="44" width="6" height="45" fill="#114FE8"/>
<rect x="1659.54" y="60" width="6" height="29" fill="#7451FE"/>
<rect x="1685.72" y="27" width="6" height="62" fill="#16D9AB"/>
<rect x="1695.72" y="34" width="6" height="55" fill="#00B8E6"/>
<rect x="1705.72" y="47" width="6" height="42" fill="#0068E6"/>
<rect x="1715.72" y="27" width="6" height="62" fill="#114FE8"/>
<rect x="1725.72" y="57" width="6" height="32" fill="#7451FE"/>
<rect x="1751.91" y="40" width="6" height="49" fill="#16D9AB"/>
<rect x="1761.91" y="65" width="6" height="24" fill="#00B8E6"/>
<rect x="1771.91" y="53" width="6" height="36" fill="#0068E6"/>
<rect x="1781.91" y="46" width="6" height="43" fill="#114FE8"/>
<rect x="1791.91" y="32" width="6" height="57" fill="#7451FE"/>
<path d="M44.2489 97.499C43.5816 99.105 42.1626 100.223 39.9919 100.854L39.6289 100.139C40.8242 99.787 41.7629 99.2957 42.4449 98.665C43.1342 98.0343 43.5229 97.2863 43.6109 96.421H40.1349V95.695H44.5899C44.5899 95.8783 44.5789 96.0617 44.5569 96.245C44.5422 96.421 44.5166 96.5933 44.4799 96.762H46.7129V94.958H47.6259V100.854H46.7129V99.556H44.1279V98.819H46.7129V97.499H44.2489ZM44.4029 100.964C44.9016 100.964 45.3526 101.008 45.7559 101.096C46.1592 101.184 46.5002 101.309 46.7789 101.47C47.0649 101.631 47.2849 101.829 47.4389 102.064C47.5929 102.299 47.6699 102.566 47.6699 102.867C47.6699 103.16 47.5929 103.428 47.4389 103.67C47.2849 103.905 47.0649 104.103 46.7789 104.264C46.5002 104.425 46.1592 104.55 45.7559 104.638C45.3526 104.726 44.9016 104.77 44.4029 104.77C43.9042 104.77 43.4532 104.726 43.0499 104.638C42.6466 104.55 42.3019 104.425 42.0159 104.264C41.7372 104.103 41.5209 103.905 41.3669 103.67C41.2129 103.428 41.1359 103.16 41.1359 102.867C41.1359 102.566 41.2129 102.299 41.3669 102.064C41.5209 101.829 41.7372 101.631 42.0159 101.47C42.3019 101.309 42.6466 101.184 43.0499 101.096C43.4532 101.008 43.9042 100.964 44.4029 100.964ZM44.4029 104.066C45.1289 104.066 45.7046 103.96 46.1299 103.747C46.5626 103.534 46.7789 103.241 46.7789 102.867C46.7789 102.493 46.5662 102.203 46.1409 101.998C45.7156 101.785 45.1362 101.679 44.4029 101.679C43.6696 101.679 43.0902 101.785 42.6649 101.998C42.2396 102.203 42.0269 102.493 42.0269 102.867C42.0269 103.241 42.2396 103.534 42.6649 103.747C43.0975 103.96 43.6769 104.066 44.4029 104.066ZM56.81 102.163V94.958H57.712V102.163H56.81ZM54.995 98.06C54.995 98.4193 54.929 98.7493 54.797 99.05C54.665 99.3433 54.4817 99.6 54.247 99.82C54.0197 100.033 53.7484 100.201 53.433 100.326C53.1177 100.443 52.7767 100.502 52.41 100.502C52.0434 100.502 51.7024 100.443 51.387 100.326C51.079 100.201 50.8077 100.033 50.573 99.82C50.3457 99.6 50.166 99.3433 50.034 99.05C49.9094 98.7493 49.847 98.4193 49.847 98.06C49.847 97.708 49.9094 97.3853 50.034 97.092C50.166 96.7913 50.3457 96.5347 50.573 96.322C50.8077 96.102 51.079 95.9333 51.387 95.816C51.7024 95.6987 52.0434 95.64 52.41 95.64C52.7767 95.64 53.1177 95.6987 53.433 95.816C53.7484 95.9333 54.0197 96.102 54.247 96.322C54.4817 96.5347 54.665 96.7913 54.797 97.092C54.929 97.3853 54.995 97.708 54.995 98.06ZM50.727 98.06C50.727 98.302 50.7674 98.5257 50.848 98.731C50.936 98.9363 51.0534 99.1123 51.2 99.259C51.354 99.4057 51.5337 99.5193 51.739 99.6C51.9444 99.6807 52.168 99.721 52.41 99.721C52.652 99.721 52.8757 99.6807 53.081 99.6C53.2937 99.5193 53.477 99.4057 53.631 99.259C53.785 99.1123 53.9024 98.9363 53.983 98.731C54.071 98.5257 54.115 98.302 54.115 98.06C54.115 97.818 54.071 97.598 53.983 97.4C53.9024 97.202 53.785 97.0297 53.631 96.883C53.477 96.7363 53.2937 96.6227 53.081 96.542C52.8757 96.4613 52.652 96.421 52.41 96.421C52.168 96.421 51.9444 96.4613 51.739 96.542C51.5337 96.6227 51.354 96.7363 51.2 96.883C51.0534 97.0297 50.936 97.202 50.848 97.4C50.7674 97.598 50.727 97.818 50.727 98.06ZM58.009 104.594H51.365V101.426H52.267V103.857H58.009V104.594ZM68.6892 103.593H59.7242V102.856H63.7392V100.997H60.8462V97.95H66.6982V96.41H60.8242V95.673H67.5782V98.676H61.7372V100.271H67.8092V100.997H64.6522V102.856H68.6892V103.593Z" fill="black" fill-opacity="0.6"/>
<path d="M109.555 100.546H100.623V99.82H104.638V98.676H101.745V95.398H108.444V96.124H102.647V97.95H108.51V98.676H105.54V99.82H109.555V100.546ZM105.089 101.25C105.61 101.25 106.079 101.29 106.497 101.371C106.915 101.444 107.267 101.558 107.553 101.712C107.846 101.866 108.07 102.053 108.224 102.273C108.378 102.493 108.455 102.746 108.455 103.032C108.455 103.318 108.378 103.571 108.224 103.791C108.07 104.011 107.846 104.198 107.553 104.352C107.267 104.506 106.915 104.62 106.497 104.693C106.079 104.774 105.61 104.814 105.089 104.814C104.033 104.814 103.204 104.66 102.603 104.352C102.002 104.044 101.701 103.604 101.701 103.032C101.701 102.46 102.002 102.02 102.603 101.712C103.204 101.404 104.033 101.25 105.089 101.25ZM105.089 104.11C105.866 104.11 106.468 104.018 106.893 103.835C107.326 103.652 107.542 103.384 107.542 103.032C107.542 102.68 107.326 102.412 106.893 102.229C106.468 102.046 105.866 101.954 105.089 101.954C104.29 101.954 103.677 102.046 103.252 102.229C102.827 102.412 102.614 102.68 102.614 103.032C102.614 103.384 102.827 103.652 103.252 103.835C103.677 104.018 104.29 104.11 105.089 104.11ZM118.86 99.435C118.479 99.369 118.101 99.27 117.727 99.138C117.36 98.9987 117.016 98.83 116.693 98.632C116.378 98.434 116.092 98.2103 115.835 97.961C115.578 97.7043 115.369 97.4257 115.208 97.125C115.054 97.4257 114.849 97.7043 114.592 97.961C114.335 98.2103 114.046 98.434 113.723 98.632C113.408 98.83 113.063 98.9987 112.689 99.138C112.322 99.27 111.948 99.369 111.567 99.435L111.204 98.709C111.659 98.643 112.095 98.5257 112.513 98.357C112.938 98.181 113.316 97.9683 113.646 97.719C113.976 97.4623 114.24 97.1763 114.438 96.861C114.636 96.5383 114.735 96.201 114.735 95.849V95.299H115.681V95.849C115.681 96.1937 115.78 96.5237 115.978 96.839C116.183 97.1543 116.451 97.4403 116.781 97.697C117.118 97.9537 117.5 98.17 117.925 98.346C118.35 98.522 118.787 98.643 119.234 98.709L118.86 99.435ZM115.637 101.25V104.825H114.735V101.25H110.753V100.502H119.663L119.674 101.25H115.637ZM122.038 98.863V95.178H122.929V96.3H127.725V95.178H128.616V98.863H122.038ZM122.929 97.004V98.148H127.725V97.004H122.929ZM125.767 101.668H128.682V104.825H127.78V102.394H121.851V101.668H124.865V100.513H120.85V99.776H129.782V100.513H125.767V101.668ZM139.934 103.593H130.969V102.856H134.984V100.997H132.091V97.95H137.943V96.41H132.069V95.673H138.823V98.676H132.982V100.271H139.054V100.997H135.897V102.856H139.934V103.593Z" fill="black" fill-opacity="0.6"/>
<path d="M175.739 100.546H166.807V99.82H170.822V98.676H167.929V95.398H174.628V96.124H168.831V97.95H174.694V98.676H171.724V99.82H175.739V100.546ZM171.273 101.25C171.794 101.25 172.263 101.29 172.681 101.371C173.099 101.444 173.451 101.558 173.737 101.712C174.031 101.866 174.254 102.053 174.408 102.273C174.562 102.493 174.639 102.746 174.639 103.032C174.639 103.318 174.562 103.571 174.408 103.791C174.254 104.011 174.031 104.198 173.737 104.352C173.451 104.506 173.099 104.62 172.681 104.693C172.263 104.774 171.794 104.814 171.273 104.814C170.217 104.814 169.389 104.66 168.787 104.352C168.186 104.044 167.885 103.604 167.885 103.032C167.885 102.46 168.186 102.02 168.787 101.712C169.389 101.404 170.217 101.25 171.273 101.25ZM171.273 104.11C172.051 104.11 172.652 104.018 173.077 103.835C173.51 103.652 173.726 103.384 173.726 103.032C173.726 102.68 173.51 102.412 173.077 102.229C172.652 102.046 172.051 101.954 171.273 101.954C170.474 101.954 169.862 102.046 169.436 102.229C169.011 102.412 168.798 102.68 168.798 103.032C168.798 103.384 169.011 103.652 169.436 103.835C169.862 104.018 170.474 104.11 171.273 104.11ZM184.121 100.007V94.947H185.023V100.007H184.121ZM182.251 97.499C182.251 97.8217 182.185 98.1187 182.053 98.39C181.928 98.654 181.752 98.8813 181.525 99.072C181.297 99.2627 181.026 99.413 180.711 99.523C180.403 99.6257 180.065 99.677 179.699 99.677C179.332 99.677 178.991 99.6257 178.676 99.523C178.368 99.413 178.1 99.2627 177.873 99.072C177.653 98.8813 177.477 98.654 177.345 98.39C177.22 98.1187 177.158 97.8217 177.158 97.499C177.158 97.169 177.22 96.872 177.345 96.608C177.477 96.3367 177.653 96.1057 177.873 95.915C178.1 95.717 178.368 95.5667 178.676 95.464C178.991 95.354 179.332 95.299 179.699 95.299C180.065 95.299 180.403 95.354 180.711 95.464C181.026 95.5667 181.297 95.717 181.525 95.915C181.752 96.1057 181.928 96.3367 182.053 96.608C182.185 96.872 182.251 97.169 182.251 97.499ZM178.027 97.499C178.027 97.7043 178.067 97.8987 178.148 98.082C178.236 98.258 178.353 98.412 178.5 98.544C178.654 98.6687 178.83 98.7677 179.028 98.841C179.233 98.9143 179.457 98.951 179.699 98.951C179.941 98.951 180.164 98.9143 180.37 98.841C180.575 98.7677 180.751 98.6687 180.898 98.544C181.044 98.412 181.158 98.258 181.239 98.082C181.327 97.8987 181.371 97.7043 181.371 97.499C181.371 97.2863 181.327 97.092 181.239 96.916C181.158 96.7327 181.044 96.5787 180.898 96.454C180.751 96.322 180.575 96.2193 180.37 96.146C180.164 96.0727 179.941 96.036 179.699 96.036C179.457 96.036 179.233 96.0727 179.028 96.146C178.83 96.2193 178.654 96.322 178.5 96.454C178.353 96.5787 178.236 96.7327 178.148 96.916C178.067 97.092 178.027 97.2863 178.027 97.499ZM185.353 104.682H178.654V102.207H184.132V101.206H178.632V100.491H185.023V102.878H179.545V103.967H185.353V104.682ZM194.702 97.961V100.524H193.8V94.947H194.702V97.213H196.165V97.961H194.702ZM192.909 99.336C192.065 99.5047 191.273 99.622 190.533 99.688C189.792 99.7467 189.048 99.776 188.3 99.776H187.53V95.442H188.421V99.017C189.132 99.0097 189.84 98.9767 190.544 98.918C191.248 98.8593 191.999 98.753 192.799 98.599L192.909 99.336ZM194.702 101.063V104.671H188.487V101.063H194.702ZM193.822 103.945V101.789H189.367V103.945H193.822ZM206.119 103.593H197.154V102.856H201.169V100.997H198.276V97.95H204.128V96.41H198.254V95.673H205.008V98.676H199.167V100.271H205.239V100.997H202.082V102.856H206.119V103.593Z" fill="black" fill-opacity="0.6"/>
<path d="M241.375 104.803H240.517V99.589H239.186V104.319H238.339V95.167H239.186V98.852H240.517V94.947H241.375V104.803ZM237.096 96.091V102.163H233.345V96.091H237.096ZM236.26 101.448V96.806H234.192V101.448H236.26ZM251.241 100.513C250.867 100.432 250.493 100.311 250.119 100.15C249.745 99.9813 249.393 99.7797 249.063 99.545C248.74 99.3103 248.447 99.0427 248.183 98.742C247.919 98.4413 247.706 98.115 247.545 97.763C247.384 98.115 247.171 98.4413 246.907 98.742C246.643 99.0427 246.346 99.3103 246.016 99.545C245.693 99.7797 245.345 99.9813 244.971 100.15C244.604 100.311 244.23 100.432 243.849 100.513L243.475 99.765C243.908 99.6917 244.337 99.5523 244.762 99.347C245.195 99.1343 245.58 98.8777 245.917 98.577C246.262 98.269 246.54 97.928 246.753 97.554C246.966 97.1727 247.072 96.7767 247.072 96.366V95.607H248.018V96.366C248.018 96.7767 248.124 97.1727 248.337 97.554C248.55 97.928 248.828 98.269 249.173 98.577C249.518 98.8777 249.903 99.1343 250.328 99.347C250.761 99.5523 251.193 99.6917 251.626 99.765L251.241 100.513ZM252.066 103.527H243.112V102.79H247.094V100.392H247.996V102.79H252.066V103.527ZM253.682 96.311V95.64H257.246V94.771H258.148V95.64H261.635V96.311H253.682ZM262.141 100.59H253.231V99.919H257.246V99.248C255.42 99.1893 254.507 98.764 254.507 97.972C254.507 97.1213 255.571 96.696 257.697 96.696C259.817 96.696 260.876 97.1213 260.876 97.972C260.876 98.3753 260.642 98.6833 260.172 98.896C259.71 99.1013 259.036 99.2187 258.148 99.248V99.919H262.141V100.59ZM255.442 97.972C255.442 98.4193 256.194 98.643 257.697 98.643C259.186 98.643 259.93 98.4193 259.93 97.972C259.93 97.5247 259.186 97.301 257.697 97.301C256.194 97.301 255.442 97.5247 255.442 97.972ZM261.305 104.033V104.704H254.331V102.614H260.095V101.877H254.298V101.228H261.008V103.241H255.233V104.033H261.305ZM272.304 103.593H263.339V102.856H267.354V100.997H264.461V97.95H270.313V96.41H264.439V95.673H271.193V98.676H265.352V100.271H271.424V100.997H268.267V102.856H272.304V103.593Z" fill="black" fill-opacity="0.6"/>
<path d="M300.312 99.336V95.497H306.978V99.336H300.312ZM301.192 96.223V98.621H306.087V96.223H301.192ZM304.074 101.415V104.803H303.172V101.415H299.168V100.678H308.122V101.415H304.074ZM317.68 104.814H316.822V94.936H317.68V104.814ZM315.579 95.189V104.319H314.721V99.006H312.521V98.258H314.721V95.189H315.579ZM310.673 101.536C311.201 101.529 311.721 101.507 312.235 101.47C312.748 101.426 313.291 101.345 313.863 101.228L313.984 101.987C313.338 102.119 312.73 102.207 312.158 102.251C311.586 102.295 311.003 102.317 310.409 102.317H309.782V96.003H310.673V101.536ZM327.491 104.836H326.589V94.947H327.491V104.836ZM324.521 102.328H319.989V95.915H324.521V102.328ZM320.869 101.613H323.641V96.641H320.869V101.613ZM338.49 103.593H329.525V102.856H333.54V100.997H330.647V97.95H336.499V96.41H330.625V95.673H337.379V98.676H331.538V100.271H337.61V100.997H334.453V102.856H338.49V103.593Z" fill="black" fill-opacity="0.6"/>
<path d="M378.75 100.865H377.881V98.258H376.627V100.821H375.769V95.134H376.627V97.521H377.881V94.958H378.75V100.865ZM370.863 100.172V95.585H371.721V97.136H373.844V95.585H374.691V100.172H370.863ZM371.721 97.851V99.446H373.844V97.851H371.721ZM378.75 101.47V104.814H377.848V102.196H372.117V101.47H378.75ZM388.671 100.667H387.758V98.181H385.481V100.117H381.037V95.508H381.928V97.07H384.59V95.497H385.481V97.444H387.758V94.958L388.671 94.947V100.667ZM381.928 97.785V99.391H384.59V97.785H381.928ZM388.671 101.173V104.682H382.258V101.173H388.671ZM387.791 103.956V101.888H383.138V103.956H387.791ZM399.615 103.593H390.65V102.856H394.665V100.997H391.772V97.95H397.624V96.41H391.75V95.673H398.504V98.676H392.663V100.271H398.735V100.997H395.578V102.856H399.615V103.593Z" fill="black" fill-opacity="0.6"/>
<path d="M441.954 100.744V95.145H442.812V97.499H444.066V94.958H444.935V101.657H444.066V98.236H442.812V100.744H441.954ZM441.074 100.238C440.612 100.047 440.216 99.787 439.886 99.457C439.556 99.127 439.3 98.753 439.116 98.335C438.94 98.8043 438.68 99.237 438.335 99.633C437.998 100.029 437.587 100.333 437.103 100.546L436.619 99.842C436.942 99.7027 437.228 99.523 437.477 99.303C437.734 99.0757 437.95 98.83 438.126 98.566C438.302 98.2947 438.438 98.0123 438.533 97.719C438.629 97.4257 438.676 97.1397 438.676 96.861V95.53H439.545V96.861C439.545 97.1323 439.589 97.4037 439.677 97.675C439.773 97.939 439.905 98.192 440.073 98.434C440.242 98.6687 440.451 98.8813 440.7 99.072C440.95 99.2627 441.232 99.4203 441.547 99.545L441.074 100.238ZM442.141 101.448C442.141 101.763 442.233 102.068 442.416 102.361C442.607 102.647 442.856 102.907 443.164 103.142C443.472 103.369 443.828 103.564 444.231 103.725C444.635 103.886 445.053 104 445.485 104.066L445.133 104.77C444.759 104.704 444.396 104.609 444.044 104.484C443.7 104.359 443.377 104.209 443.076 104.033C442.776 103.857 442.504 103.655 442.262 103.428C442.028 103.193 441.837 102.94 441.69 102.669C441.536 102.94 441.338 103.193 441.096 103.428C440.854 103.655 440.583 103.857 440.282 104.033C439.989 104.209 439.67 104.359 439.325 104.484C438.981 104.609 438.621 104.704 438.247 104.77L437.895 104.066C438.328 104 438.746 103.886 439.149 103.725C439.553 103.564 439.908 103.369 440.216 103.142C440.524 102.907 440.77 102.647 440.953 102.361C441.137 102.068 441.228 101.763 441.228 101.448V101.184H442.141V101.448ZM453.437 98.236C453.525 97.774 453.577 97.3743 453.591 97.037C453.613 96.6997 453.624 96.377 453.624 96.069H447.794V95.343H454.515V95.981C454.515 96.2963 454.508 96.6447 454.493 97.026C454.479 97.4073 454.424 97.84 454.328 98.324L453.437 98.236ZM455.637 99.6H446.749V98.885H450.39V97.169H451.292V98.885H455.637V99.6ZM454.801 103.978V104.693H447.816V102.218H453.657V101.228H447.783V100.513H454.559V102.878H448.707V103.978H454.801ZM465.8 103.593H456.835V102.856H460.85V100.997H457.957V97.95H463.809V96.41H457.935V95.673H464.689V98.676H458.848V100.271H464.92V100.997H461.763V102.856H465.8V103.593Z" fill="black" fill-opacity="0.6"/>
<path d="M510.922 100.777H510.009V97.752H507.864V97.015H510.009V94.958H510.922V100.777ZM508.073 100.359C507.523 100.146 507.046 99.8457 506.643 99.457C506.239 99.0683 505.931 98.61 505.719 98.082C505.506 98.6613 505.191 99.1637 504.773 99.589C504.355 100.014 503.856 100.344 503.277 100.579L502.804 99.853C503.178 99.721 503.515 99.5413 503.816 99.314C504.116 99.0867 504.373 98.8263 504.586 98.533C504.798 98.2397 504.96 97.9207 505.07 97.576C505.187 97.224 505.246 96.861 505.246 96.487V95.442H506.148V96.52C506.148 96.85 506.206 97.1763 506.324 97.499C506.441 97.8217 506.606 98.1223 506.819 98.401C507.031 98.6723 507.284 98.918 507.578 99.138C507.871 99.3507 508.197 99.5193 508.557 99.644L508.073 100.359ZM510.922 101.327V104.825H510.009V102.053H504.311V101.327H510.922ZM517.664 97.499C516.997 99.105 515.578 100.223 513.407 100.854L513.044 100.139C514.239 99.787 515.178 99.2957 515.86 98.665C516.549 98.0343 516.938 97.2863 517.026 96.421H513.55V95.695H518.005C518.005 95.8783 517.994 96.0617 517.972 96.245C517.957 96.421 517.932 96.5933 517.895 96.762H520.128V94.958H521.041V100.854H520.128V99.556H517.543V98.819H520.128V97.499H517.664ZM517.818 100.964C518.317 100.964 518.768 101.008 519.171 101.096C519.574 101.184 519.915 101.309 520.194 101.47C520.48 101.631 520.7 101.829 520.854 102.064C521.008 102.299 521.085 102.566 521.085 102.867C521.085 103.16 521.008 103.428 520.854 103.67C520.7 103.905 520.48 104.103 520.194 104.264C519.915 104.425 519.574 104.55 519.171 104.638C518.768 104.726 518.317 104.77 517.818 104.77C517.319 104.77 516.868 104.726 516.465 104.638C516.062 104.55 515.717 104.425 515.431 104.264C515.152 104.103 514.936 103.905 514.782 103.67C514.628 103.428 514.551 103.16 514.551 102.867C514.551 102.566 514.628 102.299 514.782 102.064C514.936 101.829 515.152 101.631 515.431 101.47C515.717 101.309 516.062 101.184 516.465 101.096C516.868 101.008 517.319 100.964 517.818 100.964ZM517.818 104.066C518.544 104.066 519.12 103.96 519.545 103.747C519.978 103.534 520.194 103.241 520.194 102.867C520.194 102.493 519.981 102.203 519.556 101.998C519.131 101.785 518.551 101.679 517.818 101.679C517.085 101.679 516.505 101.785 516.08 101.998C515.655 102.203 515.442 102.493 515.442 102.867C515.442 103.241 515.655 103.534 516.08 103.747C516.513 103.96 517.092 104.066 517.818 104.066ZM531.985 103.593H523.02V102.856H527.035V100.997H524.142V97.95H529.994V96.41H524.12V95.673H530.874V98.676H525.033V100.271H531.105V100.997H527.948V102.856H531.985V103.593Z" fill="black" fill-opacity="0.6"/>
<path d="M577.107 100.777H576.194V97.752H574.049V97.015H576.194V94.958H577.107V100.777ZM574.258 100.359C573.708 100.146 573.232 99.8457 572.828 99.457C572.425 99.0683 572.117 98.61 571.904 98.082C571.692 98.6613 571.376 99.1637 570.958 99.589C570.54 100.014 570.042 100.344 569.462 100.579L568.989 99.853C569.363 99.721 569.701 99.5413 570.001 99.314C570.302 99.0867 570.559 98.8263 570.771 98.533C570.984 98.2397 571.145 97.9207 571.255 97.576C571.373 97.224 571.431 96.861 571.431 96.487V95.442H572.333V96.52C572.333 96.85 572.392 97.1763 572.509 97.499C572.627 97.8217 572.792 98.1223 573.004 98.401C573.217 98.6723 573.47 98.918 573.763 99.138C574.057 99.3507 574.383 99.5193 574.742 99.644L574.258 100.359ZM577.107 101.327V104.825H576.194V102.053H570.496V101.327H577.107ZM588.216 98.72H586.753V102.229H585.851V94.936H586.753V97.972H588.216V98.72ZM584.399 100.623C583.842 100.418 583.354 100.121 582.936 99.732C582.526 99.3433 582.21 98.885 581.99 98.357C581.785 98.951 581.47 99.4643 581.044 99.897C580.626 100.322 580.12 100.645 579.526 100.865L579.053 100.15C579.427 100.018 579.765 99.8383 580.065 99.611C580.373 99.3837 580.634 99.1233 580.846 98.83C581.066 98.5367 581.231 98.214 581.341 97.862C581.459 97.51 581.517 97.1433 581.517 96.762V95.541H582.419V96.784C582.419 97.1213 582.478 97.4513 582.595 97.774C582.713 98.0893 582.878 98.3827 583.09 98.654C583.303 98.9253 583.56 99.171 583.86 99.391C584.161 99.6037 584.491 99.776 584.85 99.908L584.399 100.623ZM587.182 103.857V104.594H580.637V101.536H581.539V103.857H587.182ZM598.171 103.593H589.206V102.856H593.221V100.997H590.328V97.95H596.18V96.41H590.306V95.673H597.06V98.676H591.219V100.271H597.291V100.997H594.134V102.856H598.171V103.593Z" fill="black" fill-opacity="0.6"/>
<path d="M635.164 98.016V97.268H637.32V94.958H638.233V102.328H637.32V98.016H635.164ZM635.395 100.689C634.845 100.476 634.369 100.168 633.965 99.765C633.562 99.3543 633.254 98.8813 633.041 98.346C632.829 98.94 632.51 99.4607 632.084 99.908C631.666 100.348 631.168 100.685 630.588 100.92L630.115 100.205C630.482 100.073 630.816 99.8897 631.116 99.655C631.424 99.4203 631.685 99.1527 631.897 98.852C632.117 98.544 632.286 98.214 632.403 97.862C632.521 97.5027 632.579 97.136 632.579 96.762V95.541H633.481V96.795C633.481 97.1397 633.54 97.477 633.657 97.807C633.775 98.1297 633.936 98.434 634.141 98.72C634.354 98.9987 634.607 99.248 634.9 99.468C635.194 99.688 635.516 99.864 635.868 99.996L635.395 100.689ZM638.464 104.594H631.886V101.514H632.788V103.857H638.464V104.594ZM648.341 99.435C647.96 99.369 647.582 99.27 647.208 99.138C646.842 98.9987 646.497 98.83 646.174 98.632C645.859 98.434 645.573 98.2103 645.316 97.961C645.06 97.7043 644.851 97.4257 644.689 97.125C644.535 97.4257 644.33 97.7043 644.073 97.961C643.817 98.2103 643.527 98.434 643.204 98.632C642.889 98.83 642.544 98.9987 642.17 99.138C641.804 99.27 641.43 99.369 641.048 99.435L640.685 98.709C641.14 98.643 641.576 98.5257 641.994 98.357C642.42 98.181 642.797 97.9683 643.127 97.719C643.457 97.4623 643.721 97.1763 643.919 96.861C644.117 96.5383 644.216 96.201 644.216 95.849V95.299H645.162V95.849C645.162 96.1937 645.261 96.5237 645.459 96.839C645.665 97.1543 645.932 97.4403 646.262 97.697C646.6 97.9537 646.981 98.17 647.406 98.346C647.832 98.522 648.268 98.643 648.715 98.709L648.341 99.435ZM645.118 101.25V104.825H644.216V101.25H640.234V100.502H649.144L649.155 101.25H645.118ZM657.559 94.958H658.472V102.317H657.559V98.731H655.568V97.983H657.559V94.958ZM655.733 100.931C655.161 100.74 654.662 100.462 654.237 100.095C653.819 99.721 653.496 99.281 653.269 98.775C653.056 99.325 652.737 99.8017 652.312 100.205C651.894 100.601 651.395 100.902 650.816 101.107L650.365 100.403C650.731 100.278 651.065 100.113 651.366 99.908C651.666 99.6953 651.923 99.4533 652.136 99.182C652.348 98.9107 652.513 98.6173 652.631 98.302C652.748 97.9793 652.807 97.6457 652.807 97.301V96.993H650.618V96.267H652.807V95.013H653.709V96.267H655.887V96.993H653.709V97.301C653.709 97.631 653.767 97.9463 653.885 98.247C654.009 98.5477 654.178 98.8263 654.391 99.083C654.611 99.3323 654.871 99.556 655.172 99.754C655.48 99.9447 655.813 100.099 656.173 100.216L655.733 100.931ZM658.747 104.594H652.158V101.657H653.071V103.857H658.747V104.594ZM669.416 103.593H660.451V102.856H664.466V100.997H661.573V97.95H667.425V96.41H661.551V95.673H668.305V98.676H662.464V100.271H668.536V100.997H665.379V102.856H669.416V103.593Z" fill="black" fill-opacity="0.6"/>
<path d="M709.389 98.918C709.015 98.852 708.645 98.7567 708.278 98.632C707.919 98.5 707.582 98.346 707.266 98.17C706.951 97.9867 706.665 97.7777 706.408 97.543C706.159 97.301 705.957 97.037 705.803 96.751C705.649 97.037 705.448 97.301 705.198 97.543C704.949 97.7777 704.667 97.9867 704.351 98.17C704.036 98.346 703.695 98.5 703.328 98.632C702.969 98.7567 702.602 98.852 702.228 98.918L701.887 98.192C702.327 98.1333 702.753 98.0233 703.163 97.862C703.581 97.7007 703.952 97.5027 704.274 97.268C704.597 97.0333 704.854 96.7693 705.044 96.476C705.242 96.1827 705.341 95.871 705.341 95.541V95.101H706.265V95.541C706.265 95.871 706.361 96.1827 706.551 96.476C706.749 96.7693 707.01 97.0333 707.332 97.268C707.662 97.5027 708.033 97.7007 708.443 97.862C708.861 98.0233 709.29 98.1333 709.73 98.192L709.389 98.918ZM710.302 100.634H701.348V99.897H705.352V98.401H706.254V99.897H710.302V100.634ZM709.169 101.591V104.825H708.267V102.328H702.338V101.591H709.169ZM718.178 98.236C718.266 97.774 718.317 97.3743 718.332 97.037C718.354 96.6997 718.365 96.377 718.365 96.069H712.535V95.343H719.256V95.981C719.256 96.2963 719.248 96.6447 719.234 97.026C719.219 97.4073 719.164 97.84 719.069 98.324L718.178 98.236ZM720.378 99.6H711.49V98.885H715.131V97.169H716.033V98.885H720.378V99.6ZM719.542 103.978V104.693H712.557V102.218H718.398V101.228H712.524V100.513H719.3V102.878H713.448V103.978H719.542ZM730.541 103.593H721.576V102.856H725.591V100.997H722.698V97.95H728.55V96.41H722.676V95.673H729.43V98.676H723.589V100.271H729.661V100.997H726.504V102.856H730.541V103.593Z" fill="black" fill-opacity="0.6"/>
<path d="M770.592 99.435C770.211 99.369 769.833 99.27 769.459 99.138C769.093 98.9987 768.748 98.83 768.425 98.632C768.11 98.434 767.824 98.2103 767.567 97.961C767.311 97.7043 767.102 97.4257 766.94 97.125C766.786 97.4257 766.581 97.7043 766.324 97.961C766.068 98.2103 765.778 98.434 765.455 98.632C765.14 98.83 764.795 98.9987 764.421 99.138C764.055 99.27 763.681 99.369 763.299 99.435L762.936 98.709C763.391 98.643 763.827 98.5257 764.245 98.357C764.671 98.181 765.048 97.9683 765.378 97.719C765.708 97.4623 765.972 97.1763 766.17 96.861C766.368 96.5383 766.467 96.201 766.467 95.849V95.299H767.413V95.849C767.413 96.1937 767.512 96.5237 767.71 96.839C767.916 97.1543 768.183 97.4403 768.513 97.697C768.851 97.9537 769.232 98.17 769.657 98.346C770.083 98.522 770.519 98.643 770.966 98.709L770.592 99.435ZM767.369 101.25V104.825H766.467V101.25H762.485V100.502H771.395L771.406 101.25H767.369ZM781.515 100.623H772.583V99.886H776.609V98.841H773.771V95.211H774.662V96.311H779.458V95.211H780.349V98.841H777.511V99.886H781.515V100.623ZM779.458 98.126V97.004H774.662V98.126H779.458ZM777.06 101.36C777.58 101.36 778.05 101.4 778.468 101.481C778.886 101.554 779.238 101.664 779.524 101.811C779.817 101.958 780.041 102.137 780.195 102.35C780.349 102.563 780.426 102.808 780.426 103.087C780.426 103.358 780.349 103.604 780.195 103.824C780.041 104.037 779.817 104.213 779.524 104.352C779.238 104.499 778.886 104.609 778.468 104.682C778.05 104.763 777.58 104.803 777.06 104.803C776.004 104.803 775.175 104.653 774.574 104.352C773.972 104.059 773.672 103.637 773.672 103.087C773.672 102.53 773.972 102.104 774.574 101.811C775.175 101.51 776.004 101.36 777.06 101.36ZM777.06 104.11C777.837 104.11 778.438 104.022 778.864 103.846C779.296 103.67 779.513 103.417 779.513 103.087C779.513 102.757 779.296 102.504 778.864 102.328C778.438 102.145 777.837 102.053 777.06 102.053C776.26 102.053 775.648 102.145 775.223 102.328C774.797 102.504 774.585 102.757 774.585 103.087C774.585 103.417 774.797 103.67 775.223 103.846C775.648 104.022 776.26 104.11 777.06 104.11ZM790.369 97.961V100.524H789.467V94.947H790.369V97.213H791.832V97.961H790.369ZM788.576 99.336C787.732 99.5047 786.94 99.622 786.2 99.688C785.459 99.7467 784.715 99.776 783.967 99.776H783.197V95.442H784.088V99.017C784.799 99.0097 785.507 98.9767 786.211 98.918C786.915 98.8593 787.666 98.753 788.466 98.599L788.576 99.336ZM790.369 101.063V104.671H784.154V101.063H790.369ZM789.489 103.945V101.789H785.034V103.945H789.489ZM801.786 103.593H792.821V102.856H796.836V100.997H793.943V97.95H799.795V96.41H793.921V95.673H800.675V98.676H794.834V100.271H800.906V100.997H797.749V102.856H801.786V103.593Z" fill="black" fill-opacity="0.6"/>
<path d="M841.838 99.435C841.456 99.369 841.079 99.27 840.705 99.138C840.338 98.9987 839.993 98.83 839.671 98.632C839.355 98.434 839.069 98.2103 838.813 97.961C838.556 97.7043 838.347 97.4257 838.186 97.125C838.032 97.4257 837.826 97.7043 837.57 97.961C837.313 98.2103 837.023 98.434 836.701 98.632C836.385 98.83 836.041 98.9987 835.667 99.138C835.3 99.27 834.926 99.369 834.545 99.435L834.182 98.709C834.636 98.643 835.073 98.5257 835.491 98.357C835.916 98.181 836.294 97.9683 836.624 97.719C836.954 97.4623 837.218 97.1763 837.416 96.861C837.614 96.5383 837.713 96.201 837.713 95.849V95.299H838.659V95.849C838.659 96.1937 838.758 96.5237 838.956 96.839C839.161 97.1543 839.429 97.4403 839.759 97.697C840.096 97.9537 840.477 98.17 840.903 98.346C841.328 98.522 841.764 98.643 842.212 98.709L841.838 99.435ZM838.615 101.25V104.825H837.713V101.25H833.731V100.502H842.641L842.652 101.25H838.615ZM852.76 100.623H843.828V99.886H847.854V98.841H845.016V95.211H845.907V96.311H850.703V95.211H851.594V98.841H848.756V99.886H852.76V100.623ZM850.703 98.126V97.004H845.907V98.126H850.703ZM848.305 101.36C848.825 101.36 849.295 101.4 849.713 101.481C850.131 101.554 850.483 101.664 850.769 101.811C851.062 101.958 851.286 102.137 851.44 102.35C851.594 102.563 851.671 102.808 851.671 103.087C851.671 103.358 851.594 103.604 851.44 103.824C851.286 104.037 851.062 104.213 850.769 104.352C850.483 104.499 850.131 104.609 849.713 104.682C849.295 104.763 848.825 104.803 848.305 104.803C847.249 104.803 846.42 104.653 845.819 104.352C845.217 104.059 844.917 103.637 844.917 103.087C844.917 102.53 845.217 102.104 845.819 101.811C846.42 101.51 847.249 101.36 848.305 101.36ZM848.305 104.11C849.082 104.11 849.683 104.022 850.109 103.846C850.541 103.67 850.758 103.417 850.758 103.087C850.758 102.757 850.541 102.504 850.109 102.328C849.683 102.145 849.082 102.053 848.305 102.053C847.505 102.053 846.893 102.145 846.468 102.328C846.042 102.504 845.83 102.757 845.83 103.087C845.83 103.417 846.042 103.67 846.468 103.846C846.893 104.022 847.505 104.11 848.305 104.11ZM862.912 103.593H853.947V102.856H857.962V100.997H855.069V97.95H860.921V96.41H855.047V95.673H861.801V98.676H855.96V100.271H862.032V100.997H858.875V102.856H862.912V103.593Z" fill="black" fill-opacity="0.6"/>
<path d="M903.964 98.698H902.501V102.207H901.599V94.947H902.501V97.95H903.964V98.698ZM900.18 98.071C900.18 98.4303 900.114 98.7603 899.982 99.061C899.857 99.3543 899.677 99.611 899.443 99.831C899.215 100.044 898.944 100.209 898.629 100.326C898.313 100.443 897.972 100.502 897.606 100.502C897.239 100.502 896.898 100.443 896.583 100.326C896.267 100.209 895.992 100.044 895.758 99.831C895.53 99.611 895.351 99.3543 895.219 99.061C895.094 98.7603 895.032 98.4303 895.032 98.071C895.032 97.7117 895.094 97.3853 895.219 97.092C895.351 96.7913 895.53 96.5347 895.758 96.322C895.992 96.102 896.267 95.9333 896.583 95.816C896.898 95.6987 897.239 95.64 897.606 95.64C897.972 95.64 898.313 95.6987 898.629 95.816C898.944 95.9333 899.215 96.102 899.443 96.322C899.677 96.5347 899.857 96.7913 899.982 97.092C900.114 97.3853 900.18 97.7117 900.18 98.071ZM895.912 98.071C895.912 98.313 895.952 98.5367 896.033 98.742C896.121 98.94 896.242 99.1123 896.396 99.259C896.55 99.4057 896.729 99.5193 896.935 99.6C897.14 99.6807 897.364 99.721 897.606 99.721C897.848 99.721 898.071 99.6807 898.277 99.6C898.482 99.5193 898.662 99.4057 898.816 99.259C898.97 99.1123 899.087 98.94 899.168 98.742C899.256 98.5367 899.3 98.313 899.3 98.071C899.3 97.829 899.256 97.609 899.168 97.411C899.087 97.2057 898.97 97.0297 898.816 96.883C898.662 96.7363 898.482 96.6227 898.277 96.542C898.071 96.4613 897.848 96.421 897.606 96.421C897.364 96.421 897.14 96.4613 896.935 96.542C896.729 96.6227 896.55 96.7363 896.396 96.883C896.242 97.0297 896.121 97.2057 896.033 97.411C895.952 97.609 895.912 97.829 895.912 98.071ZM902.941 103.857V104.594H896.363V101.47H897.265V103.857H902.941ZM905.503 99.028C905.935 98.962 906.353 98.8483 906.757 98.687C907.167 98.5183 907.534 98.3167 907.857 98.082C908.179 97.84 908.436 97.5723 908.627 97.279C908.825 96.9783 908.924 96.6667 908.924 96.344V96.289H905.811V95.563H913.016V96.289H909.925V96.344C909.925 96.6667 910.02 96.9783 910.211 97.279C910.409 97.5723 910.669 97.84 910.992 98.082C911.314 98.3167 911.681 98.5183 912.092 98.687C912.51 98.8483 912.935 98.962 913.368 99.028L913.016 99.743C912.634 99.677 912.26 99.578 911.894 99.446C911.527 99.314 911.186 99.1527 910.871 98.962C910.555 98.764 910.273 98.544 910.024 98.302C909.774 98.0527 909.576 97.7813 909.43 97.488C909.276 97.7813 909.074 98.0527 908.825 98.302C908.575 98.544 908.293 98.764 907.978 98.962C907.67 99.1527 907.332 99.314 906.966 99.446C906.606 99.578 906.232 99.677 905.844 99.743L905.503 99.028ZM909.859 101.305V104.814H908.957V101.305H904.975V100.568H913.885L913.896 101.305H909.859ZM923.465 104.814H922.596V99.644H921.199V104.319H920.352V95.167H921.199V98.907H922.596V94.947H923.465V104.814ZM916.326 101.635C916.656 101.635 916.964 101.631 917.25 101.624C917.536 101.609 917.811 101.591 918.075 101.569C918.346 101.547 918.61 101.518 918.867 101.481C919.131 101.444 919.395 101.397 919.659 101.338L919.736 102.086C919.442 102.152 919.156 102.207 918.878 102.251C918.599 102.288 918.313 102.317 918.02 102.339C917.726 102.354 917.422 102.365 917.107 102.372C916.791 102.379 916.45 102.383 916.084 102.383H915.435V96.146H919.109V96.883H916.326V101.635ZM934.156 103.593H925.191V102.856H929.206V100.997H926.313V97.95H932.165V96.41H926.291V95.673H933.045V98.676H927.204V100.271H933.276V100.997H930.119V102.856H934.156V103.593Z" fill="black" fill-opacity="0.6"/>
<path d="M969.159 104.836H968.257V101.008H965.793C965.588 101.514 965.302 101.906 964.935 102.185C964.576 102.456 964.154 102.592 963.67 102.592C963.311 102.592 962.981 102.511 962.68 102.35C962.379 102.189 962.119 101.958 961.899 101.657C961.679 101.356 961.507 100.997 961.382 100.579C961.265 100.154 961.206 99.677 961.206 99.149C961.206 98.621 961.265 98.148 961.382 97.73C961.507 97.3047 961.679 96.9417 961.899 96.641C962.119 96.3403 962.379 96.1093 962.68 95.948C962.981 95.7867 963.311 95.706 963.67 95.706C964.132 95.706 964.535 95.8343 964.88 96.091C965.232 96.3403 965.514 96.696 965.727 97.158H968.257V94.947H969.159V104.836ZM963.67 101.789C963.905 101.789 964.117 101.727 964.308 101.602C964.506 101.477 964.675 101.301 964.814 101.074C964.961 100.839 965.074 100.561 965.155 100.238C965.236 99.9153 965.276 99.5523 965.276 99.149C965.276 98.753 965.236 98.3937 965.155 98.071C965.074 97.741 964.961 97.4623 964.814 97.235C964.675 97.0077 964.506 96.8317 964.308 96.707C964.117 96.5823 963.905 96.52 963.67 96.52C963.435 96.52 963.219 96.5823 963.021 96.707C962.823 96.8317 962.651 97.0077 962.504 97.235C962.365 97.4623 962.255 97.741 962.174 98.071C962.101 98.3937 962.064 98.753 962.064 99.149C962.064 99.5523 962.101 99.9153 962.174 100.238C962.255 100.561 962.365 100.839 962.504 101.074C962.651 101.301 962.823 101.477 963.021 101.602C963.219 101.727 963.435 101.789 963.67 101.789ZM968.257 97.895H965.98C966.024 98.0857 966.057 98.2873 966.079 98.5C966.108 98.7053 966.123 98.9217 966.123 99.149C966.123 99.611 966.086 99.985 966.013 100.271H968.257V97.895ZM975.593 99.666C975.08 99.666 974.611 99.6147 974.185 99.512C973.767 99.4093 973.404 99.2663 973.096 99.083C972.796 98.8923 972.561 98.665 972.392 98.401C972.231 98.1297 972.15 97.829 972.15 97.499C972.15 97.169 972.231 96.872 972.392 96.608C972.561 96.344 972.796 96.1203 973.096 95.937C973.404 95.7463 973.767 95.5997 974.185 95.497C974.611 95.3943 975.08 95.343 975.593 95.343C976.107 95.343 976.576 95.3943 977.001 95.497C977.427 95.5997 977.79 95.7463 978.09 95.937C978.391 96.1203 978.626 96.344 978.794 96.608C978.963 96.872 979.047 97.169 979.047 97.499C979.047 97.829 978.963 98.1297 978.794 98.401C978.626 98.665 978.391 98.8923 978.09 99.083C977.79 99.2663 977.427 99.4093 977.001 99.512C976.576 99.6147 976.107 99.666 975.593 99.666ZM975.593 96.069C975.219 96.069 974.878 96.102 974.57 96.168C974.262 96.234 973.995 96.3293 973.767 96.454C973.547 96.5787 973.375 96.729 973.25 96.905C973.133 97.081 973.074 97.279 973.074 97.499C973.074 97.719 973.133 97.917 973.25 98.093C973.375 98.269 973.547 98.423 973.767 98.555C973.995 98.6797 974.262 98.775 974.57 98.841C974.878 98.907 975.219 98.94 975.593 98.94C975.967 98.94 976.308 98.907 976.616 98.841C976.932 98.775 977.199 98.6797 977.419 98.555C977.647 98.423 977.819 98.269 977.936 98.093C978.061 97.917 978.123 97.719 978.123 97.499C978.123 97.279 978.061 97.081 977.936 96.905C977.819 96.729 977.647 96.5787 977.419 96.454C977.199 96.3293 976.932 96.234 976.616 96.168C976.308 96.102 975.967 96.069 975.593 96.069ZM976.044 101.349V104.825H975.142V101.349H971.149V100.601H980.081V101.349H976.044ZM989.65 104.803H988.781V94.936H989.65V104.803ZM987.659 95.167V104.297H986.801V99.226H985.173V98.489H986.801V95.167H987.659ZM984.161 97.73C984.161 98.1553 984.205 98.5807 984.293 99.006C984.389 99.424 984.524 99.82 984.7 100.194C984.876 100.561 985.096 100.894 985.36 101.195C985.624 101.496 985.925 101.741 986.262 101.932L985.712 102.592C985.228 102.306 984.818 101.917 984.48 101.426C984.15 100.927 983.901 100.355 983.732 99.71C983.564 100.399 983.303 101.015 982.951 101.558C982.607 102.101 982.189 102.526 981.697 102.834L981.147 102.163C981.492 101.958 981.796 101.697 982.06 101.382C982.332 101.059 982.559 100.704 982.742 100.315C982.926 99.9263 983.061 99.512 983.149 99.072C983.245 98.632 983.292 98.1847 983.292 97.73V96.839H981.422V96.102H985.921V96.839H984.161V97.73ZM1000.34 103.593H991.377V102.856H995.392V100.997H992.499V97.95H998.351V96.41H992.477V95.673H999.231V98.676H993.39V100.271H999.462V100.997H996.305V102.856H1000.34V103.593Z" fill="black" fill-opacity="0.6"/>
<path d="M1040.4 104.836H1039.5V101.008H1037.04C1036.83 101.514 1036.55 101.906 1036.18 102.185C1035.82 102.456 1035.4 102.592 1034.91 102.592C1034.55 102.592 1034.22 102.511 1033.92 102.35C1033.62 102.189 1033.36 101.958 1033.14 101.657C1032.92 101.356 1032.75 100.997 1032.63 100.579C1032.51 100.154 1032.45 99.677 1032.45 99.149C1032.45 98.621 1032.51 98.148 1032.63 97.73C1032.75 97.3047 1032.92 96.9417 1033.14 96.641C1033.36 96.3403 1033.62 96.1093 1033.92 95.948C1034.22 95.7867 1034.55 95.706 1034.91 95.706C1035.38 95.706 1035.78 95.8343 1036.12 96.091C1036.48 96.3403 1036.76 96.696 1036.97 97.158H1039.5V94.947H1040.4V104.836ZM1034.91 101.789C1035.15 101.789 1035.36 101.727 1035.55 101.602C1035.75 101.477 1035.92 101.301 1036.06 101.074C1036.2 100.839 1036.32 100.561 1036.4 100.238C1036.48 99.9153 1036.52 99.5523 1036.52 99.149C1036.52 98.753 1036.48 98.3937 1036.4 98.071C1036.32 97.741 1036.2 97.4623 1036.06 97.235C1035.92 97.0077 1035.75 96.8317 1035.55 96.707C1035.36 96.5823 1035.15 96.52 1034.91 96.52C1034.68 96.52 1034.46 96.5823 1034.27 96.707C1034.07 96.8317 1033.89 97.0077 1033.75 97.235C1033.61 97.4623 1033.5 97.741 1033.42 98.071C1033.34 98.3937 1033.31 98.753 1033.31 99.149C1033.31 99.5523 1033.34 99.9153 1033.42 100.238C1033.5 100.561 1033.61 100.839 1033.75 101.074C1033.89 101.301 1034.07 101.477 1034.27 101.602C1034.46 101.727 1034.68 101.789 1034.91 101.789ZM1039.5 97.895H1037.22C1037.27 98.0857 1037.3 98.2873 1037.32 98.5C1037.35 98.7053 1037.37 98.9217 1037.37 99.149C1037.37 99.611 1037.33 99.985 1037.26 100.271H1039.5V97.895ZM1049.99 99.897V104.814H1049.09V94.947H1049.99V99.138H1051.53V99.897H1049.99ZM1042.45 96.861V96.146H1044.96V94.958H1045.86V96.146H1048.34V96.861H1042.45ZM1045.86 102.119C1046.31 102.097 1046.75 102.068 1047.2 102.031C1047.65 101.994 1048.08 101.943 1048.51 101.877L1048.56 102.548C1048.04 102.643 1047.5 102.72 1046.95 102.779C1046.4 102.83 1045.87 102.871 1045.34 102.9C1044.81 102.922 1044.3 102.937 1043.8 102.944C1043.3 102.944 1042.84 102.944 1042.4 102.944L1042.28 102.185C1042.68 102.185 1043.1 102.185 1043.55 102.185C1044 102.178 1044.47 102.167 1044.96 102.152V101.074C1044.38 101.001 1043.93 100.806 1043.58 100.491C1043.24 100.168 1043.08 99.7613 1043.08 99.27C1043.08 98.9913 1043.13 98.742 1043.24 98.522C1043.36 98.2947 1043.52 98.1003 1043.72 97.939C1043.93 97.7777 1044.18 97.6567 1044.46 97.576C1044.75 97.488 1045.06 97.444 1045.41 97.444C1045.75 97.444 1046.07 97.488 1046.35 97.576C1046.64 97.6567 1046.89 97.7777 1047.09 97.939C1047.3 98.1003 1047.45 98.2947 1047.56 98.522C1047.68 98.742 1047.74 98.9913 1047.74 99.27C1047.74 99.7613 1047.57 100.168 1047.22 100.491C1046.89 100.806 1046.43 101.001 1045.86 101.074V102.119ZM1043.93 99.27C1043.93 99.622 1044.07 99.897 1044.34 100.095C1044.61 100.293 1044.97 100.392 1045.41 100.392C1045.85 100.392 1046.2 100.293 1046.47 100.095C1046.75 99.897 1046.88 99.622 1046.88 99.27C1046.88 98.918 1046.75 98.643 1046.47 98.445C1046.2 98.2397 1045.85 98.137 1045.41 98.137C1044.97 98.137 1044.61 98.2397 1044.34 98.445C1044.07 98.643 1043.93 98.918 1043.93 99.27ZM1061.47 103.593H1052.5V102.856H1056.52V100.997H1053.62V97.95H1059.48V96.41H1053.6V95.673H1060.36V98.676H1054.51V100.271H1060.59V100.997H1057.43V102.856H1061.47V103.593Z" fill="black" fill-opacity="0.6"/>
<path d="M1098.12 99.589C1097.88 99.8823 1097.59 100.113 1097.25 100.282C1096.91 100.443 1096.52 100.524 1096.1 100.524C1095.74 100.524 1095.4 100.465 1095.08 100.348C1094.78 100.223 1094.51 100.051 1094.28 99.831C1094.05 99.611 1093.87 99.3507 1093.74 99.05C1093.62 98.742 1093.55 98.4083 1093.55 98.049C1093.55 97.6823 1093.62 97.3487 1093.74 97.048C1093.87 96.7473 1094.05 96.487 1094.28 96.267C1094.51 96.047 1094.78 95.8783 1095.08 95.761C1095.4 95.6363 1095.74 95.574 1096.1 95.574C1096.52 95.574 1096.9 95.6583 1097.24 95.827C1097.58 95.9883 1097.87 96.212 1098.11 96.498H1100.62V94.958H1101.53V102.24H1100.62V99.589H1098.12ZM1094.41 98.049C1094.41 98.291 1094.45 98.5183 1094.53 98.731C1094.62 98.9363 1094.74 99.1123 1094.89 99.259C1095.04 99.4057 1095.22 99.523 1095.42 99.611C1095.63 99.6917 1095.85 99.732 1096.1 99.732C1096.34 99.732 1096.56 99.6917 1096.76 99.611C1096.96 99.523 1097.14 99.4057 1097.28 99.259C1097.44 99.1123 1097.55 98.9363 1097.64 98.731C1097.72 98.5183 1097.77 98.291 1097.77 98.049C1097.77 97.807 1097.72 97.5833 1097.64 97.378C1097.55 97.1653 1097.44 96.9857 1097.28 96.839C1097.14 96.6923 1096.96 96.5787 1096.76 96.498C1096.56 96.41 1096.34 96.366 1096.1 96.366C1095.85 96.366 1095.63 96.41 1095.42 96.498C1095.22 96.5787 1095.04 96.6923 1094.89 96.839C1094.74 96.9857 1094.62 97.1653 1094.53 97.378C1094.45 97.5833 1094.41 97.807 1094.41 98.049ZM1098.49 97.224C1098.58 97.4733 1098.63 97.7483 1098.63 98.049C1098.63 98.335 1098.58 98.6063 1098.49 98.863H1100.62V97.224H1098.49ZM1101.8 104.594H1095.22V101.492H1096.13V103.857H1101.8V104.594ZM1104.06 99.028C1104.49 98.962 1104.91 98.8483 1105.31 98.687C1105.72 98.5183 1106.09 98.3167 1106.41 98.082C1106.74 97.84 1106.99 97.5723 1107.18 97.279C1107.38 96.9783 1107.48 96.6667 1107.48 96.344V96.289H1104.37V95.563H1111.57V96.289H1108.48V96.344C1108.48 96.6667 1108.58 96.9783 1108.77 97.279C1108.96 97.5723 1109.22 97.84 1109.55 98.082C1109.87 98.3167 1110.24 98.5183 1110.65 98.687C1111.07 98.8483 1111.49 98.962 1111.92 99.028L1111.57 99.743C1111.19 99.677 1110.82 99.578 1110.45 99.446C1110.08 99.314 1109.74 99.1527 1109.43 98.962C1109.11 98.764 1108.83 98.544 1108.58 98.302C1108.33 98.0527 1108.13 97.7813 1107.99 97.488C1107.83 97.7813 1107.63 98.0527 1107.38 98.302C1107.13 98.544 1106.85 98.764 1106.53 98.962C1106.23 99.1527 1105.89 99.314 1105.52 99.446C1105.16 99.578 1104.79 99.677 1104.4 99.743L1104.06 99.028ZM1108.41 101.305V104.814H1107.51V101.305H1103.53V100.568H1112.44L1112.45 101.305H1108.41ZM1122.02 104.814H1121.15V99.644H1119.75V104.319H1118.91V95.167H1119.75V98.907H1121.15V94.947H1122.02V104.814ZM1114.88 101.635C1115.21 101.635 1115.52 101.631 1115.81 101.624C1116.09 101.609 1116.37 101.591 1116.63 101.569C1116.9 101.547 1117.17 101.518 1117.42 101.481C1117.69 101.444 1117.95 101.397 1118.21 101.338L1118.29 102.086C1118 102.152 1117.71 102.207 1117.43 102.251C1117.15 102.288 1116.87 102.317 1116.58 102.339C1116.28 102.354 1115.98 102.365 1115.66 102.372C1115.35 102.379 1115.01 102.383 1114.64 102.383H1113.99V96.146H1117.66V96.883H1114.88V101.635ZM1132.71 103.593H1123.75V102.856H1127.76V100.997H1124.87V97.95H1130.72V96.41H1124.85V95.673H1131.6V98.676H1125.76V100.271H1131.83V100.997H1128.67V102.856H1132.71V103.593Z" fill="black" fill-opacity="0.6"/>
<path d="M1169.09 99.666C1168.58 99.666 1168.11 99.6147 1167.68 99.512C1167.26 99.4093 1166.9 99.2663 1166.59 99.083C1166.29 98.8923 1166.06 98.665 1165.89 98.401C1165.73 98.1297 1165.65 97.829 1165.65 97.499C1165.65 97.169 1165.73 96.872 1165.89 96.608C1166.06 96.344 1166.29 96.1203 1166.59 95.937C1166.9 95.7463 1167.26 95.5997 1167.68 95.497C1168.11 95.3943 1168.58 95.343 1169.09 95.343C1169.6 95.343 1170.07 95.3943 1170.5 95.497C1170.92 95.5997 1171.29 95.7463 1171.59 95.937C1171.89 96.1203 1172.12 96.344 1172.29 96.608C1172.46 96.872 1172.54 97.169 1172.54 97.499C1172.54 97.829 1172.46 98.1297 1172.29 98.401C1172.12 98.665 1171.89 98.8923 1171.59 99.083C1171.29 99.2663 1170.92 99.4093 1170.5 99.512C1170.07 99.6147 1169.6 99.666 1169.09 99.666ZM1169.09 96.069C1168.72 96.069 1168.37 96.102 1168.07 96.168C1167.76 96.234 1167.49 96.3293 1167.26 96.454C1167.04 96.5787 1166.87 96.729 1166.75 96.905C1166.63 97.081 1166.57 97.279 1166.57 97.499C1166.57 97.719 1166.63 97.917 1166.75 98.093C1166.87 98.269 1167.04 98.423 1167.26 98.555C1167.49 98.6797 1167.76 98.775 1168.07 98.841C1168.37 98.907 1168.72 98.94 1169.09 98.94C1169.46 98.94 1169.8 98.907 1170.11 98.841C1170.43 98.775 1170.7 98.6797 1170.92 98.555C1171.14 98.423 1171.31 98.269 1171.43 98.093C1171.56 97.917 1171.62 97.719 1171.62 97.499C1171.62 97.279 1171.56 97.081 1171.43 96.905C1171.31 96.729 1171.14 96.5787 1170.92 96.454C1170.7 96.3293 1170.43 96.234 1170.11 96.168C1169.8 96.102 1169.46 96.069 1169.09 96.069ZM1169.54 101.349V104.825H1168.64V101.349H1164.65V100.601H1173.58V101.349H1169.54ZM1182.42 98.192V100.733H1181.52V94.936H1182.42V97.444H1183.88V98.192H1182.42ZM1179.74 95.574C1179.74 96.1973 1179.63 96.7767 1179.42 97.312C1179.2 97.84 1178.9 98.3167 1178.5 98.742C1178.11 99.1673 1177.62 99.5413 1177.05 99.864C1176.48 100.179 1175.84 100.436 1175.12 100.634L1174.74 99.919C1175.97 99.589 1176.92 99.116 1177.6 98.5C1178.29 97.884 1178.68 97.1543 1178.77 96.311H1175.19V95.574H1179.74ZM1182.42 101.184V104.814H1181.52V101.91H1176.01V101.184H1182.42ZM1193.84 103.593H1184.87V102.856H1188.89V100.997H1185.99V97.95H1191.85V96.41H1185.97V95.673H1192.73V98.676H1186.89V100.271H1192.96V100.997H1189.8V102.856H1193.84V103.593Z" fill="black" fill-opacity="0.6"/>
<path d="M1234.89 98.203H1233.43V100.909H1232.52V94.958H1233.43V97.444H1234.89V98.203ZM1231.06 100.425C1230.49 100.242 1230 99.9667 1229.6 99.6C1229.19 99.226 1228.89 98.7933 1228.67 98.302C1228.46 98.874 1228.14 99.369 1227.72 99.787C1227.29 100.198 1226.78 100.509 1226.19 100.722L1225.73 100.007C1226.1 99.875 1226.44 99.7027 1226.74 99.49C1227.05 99.27 1227.31 99.0207 1227.52 98.742C1227.74 98.4633 1227.91 98.159 1228.03 97.829C1228.14 97.499 1228.2 97.1543 1228.2 96.795V96.41H1225.99V95.684H1231.28V96.41H1229.1V96.795C1229.1 97.1177 1229.16 97.4293 1229.27 97.73C1229.38 98.0307 1229.54 98.3093 1229.74 98.566C1229.95 98.8227 1230.21 99.05 1230.5 99.248C1230.79 99.446 1231.12 99.6037 1231.49 99.721L1231.06 100.425ZM1230.29 101.162C1230.79 101.162 1231.24 101.202 1231.63 101.283C1232.04 101.364 1232.38 101.485 1232.66 101.646C1232.94 101.8 1233.16 101.991 1233.31 102.218C1233.46 102.438 1233.54 102.691 1233.54 102.977C1233.54 103.263 1233.46 103.52 1233.31 103.747C1233.16 103.974 1232.94 104.165 1232.66 104.319C1232.38 104.48 1232.04 104.601 1231.63 104.682C1231.24 104.763 1230.79 104.803 1230.29 104.803C1229.28 104.803 1228.48 104.642 1227.9 104.319C1227.32 104.004 1227.04 103.556 1227.04 102.977C1227.04 102.405 1227.32 101.961 1227.9 101.646C1228.48 101.323 1229.28 101.162 1230.29 101.162ZM1230.29 104.088C1231.02 104.088 1231.6 103.993 1232.01 103.802C1232.43 103.604 1232.63 103.329 1232.63 102.977C1232.63 102.625 1232.43 102.354 1232.01 102.163C1231.6 101.972 1231.02 101.877 1230.29 101.877C1229.54 101.877 1228.95 101.972 1228.54 102.163C1228.14 102.354 1227.94 102.625 1227.94 102.977C1227.94 103.329 1228.14 103.604 1228.54 103.802C1228.95 103.993 1229.54 104.088 1230.29 104.088ZM1236.84 96.674V95.937H1243.75V96.916C1243.75 97.224 1243.75 97.543 1243.74 97.873C1243.74 98.1957 1243.73 98.544 1243.71 98.918C1243.69 99.2847 1243.65 99.6807 1243.6 100.106C1243.55 100.524 1243.48 100.982 1243.38 101.481L1242.48 101.382C1242.67 100.443 1242.78 99.611 1242.81 98.885C1242.84 98.159 1242.85 97.5027 1242.85 96.916V96.674H1236.84ZM1244.82 103.428H1235.9V102.691H1239.37V99.16H1240.27V102.691H1244.82V103.428ZM1254.38 104.814H1253.51V99.655H1252.17V104.319H1251.32V95.211H1252.17V98.918H1253.51V94.947H1254.38V104.814ZM1250.23 96.223C1250.23 96.861 1250.17 97.4843 1250.05 98.093C1249.93 98.6943 1249.73 99.27 1249.44 99.82C1249.15 100.37 1248.77 100.891 1248.3 101.382C1247.83 101.866 1247.24 102.306 1246.54 102.702L1246.01 102.053C1246.58 101.73 1247.07 101.382 1247.47 101.008C1247.87 100.627 1248.21 100.223 1248.47 99.798C1248.74 99.3653 1248.94 98.9143 1249.08 98.445C1249.22 97.9683 1249.3 97.4733 1249.34 96.96H1246.38V96.223H1250.23ZM1265.08 103.593H1256.12V102.856H1260.13V100.997H1257.24V97.95H1263.09V96.41H1257.22V95.673H1263.97V98.676H1258.13V100.271H1264.2V100.997H1261.04V102.856H1265.08V103.593Z" fill="black" fill-opacity="0.6"/>
<path d="M1297.54 98.621C1298.01 98.577 1298.44 98.5 1298.84 98.39C1299.25 98.2727 1299.61 98.1297 1299.92 97.961C1300.23 97.7923 1300.48 97.598 1300.67 97.378C1300.86 97.1507 1300.96 96.9013 1300.99 96.63H1297.94V95.915H1301.03V94.914H1301.93V95.915H1305.02V96.63H1301.97C1301.99 96.9013 1302.09 97.1507 1302.27 97.378C1302.46 97.598 1302.71 97.796 1303.02 97.972C1303.34 98.1407 1303.7 98.28 1304.11 98.39C1304.52 98.5 1304.96 98.577 1305.42 98.621L1305.14 99.325C1304.74 99.281 1304.35 99.2113 1303.97 99.116C1303.59 99.0207 1303.25 98.9033 1302.92 98.764C1302.61 98.6173 1302.32 98.4487 1302.08 98.258C1301.83 98.06 1301.63 97.84 1301.48 97.598C1301.33 97.84 1301.13 98.06 1300.88 98.258C1300.63 98.4487 1300.35 98.6173 1300.03 98.764C1299.71 98.9033 1299.37 99.0207 1299 99.116C1298.62 99.2113 1298.23 99.281 1297.82 99.325L1297.54 98.621ZM1305.94 100.788H1297.02V100.062H1301.03V98.841H1301.93V100.062H1305.94V100.788ZM1301.47 101.525C1302.56 101.525 1303.4 101.664 1303.98 101.943C1304.56 102.222 1304.85 102.629 1304.85 103.164C1304.85 103.699 1304.56 104.106 1303.98 104.385C1303.4 104.664 1302.56 104.803 1301.47 104.803C1300.38 104.803 1299.54 104.664 1298.96 104.385C1298.38 104.106 1298.09 103.699 1298.09 103.164C1298.09 102.629 1298.38 102.222 1298.96 101.943C1299.54 101.664 1300.38 101.525 1301.47 101.525ZM1301.47 104.121C1302.25 104.121 1302.85 104.04 1303.29 103.879C1303.72 103.71 1303.93 103.472 1303.93 103.164C1303.93 102.856 1303.72 102.618 1303.29 102.449C1302.85 102.28 1302.25 102.196 1301.47 102.196C1300.67 102.196 1300.06 102.28 1299.63 102.449C1299.22 102.618 1299.01 102.856 1299.01 103.164C1299.01 103.472 1299.22 103.71 1299.63 103.879C1300.06 104.04 1300.67 104.121 1301.47 104.121ZM1312.43 98.654V97.917H1314.35V96.883H1312.43V96.157H1314.35V94.958H1315.26V100.128H1314.35V98.654H1312.43ZM1312.41 99.545C1312.05 99.6037 1311.7 99.6513 1311.36 99.688C1311.03 99.7173 1310.69 99.743 1310.36 99.765C1310.03 99.7797 1309.69 99.7907 1309.35 99.798C1309.01 99.798 1308.65 99.798 1308.26 99.798H1307.55V97.224H1310.9V96.124H1307.52V95.42H1311.78V97.895H1308.43V99.094C1308.79 99.094 1309.13 99.0903 1309.46 99.083C1309.78 99.0757 1310.1 99.0647 1310.41 99.05C1310.73 99.0353 1311.04 99.0133 1311.36 98.984C1311.67 98.9473 1312 98.9033 1312.35 98.852L1312.41 99.545ZM1315.65 104.737H1308.86V102.295H1314.37V101.316H1308.84V100.623H1315.25V102.955H1309.75V104.033H1315.65V104.737ZM1326.21 103.593H1317.24V102.856H1321.26V100.997H1318.36V97.95H1324.22V96.41H1318.34V95.673H1325.1V98.676H1319.26V100.271H1325.33V100.997H1322.17V102.856H1326.21V103.593Z" fill="black" fill-opacity="0.6"/>
<path d="M1368.79 99.215V98.478H1370.42V97.444H1368.79V96.707H1370.42V94.958H1371.33V101.03H1370.42V99.215H1368.79ZM1369.05 100.117C1368.58 100.19 1368.08 100.249 1367.58 100.293C1367.07 100.337 1366.57 100.37 1366.07 100.392C1365.58 100.414 1365.1 100.429 1364.63 100.436C1364.16 100.443 1363.73 100.447 1363.33 100.447L1363.23 99.699H1364.16C1364.26 99.699 1364.37 99.6953 1364.48 99.688V96.421H1363.5V95.695H1368.69V96.421H1367.71V99.578C1367.93 99.5633 1368.15 99.545 1368.36 99.523C1368.58 99.501 1368.79 99.4753 1369 99.446L1369.05 100.117ZM1365.35 99.677C1365.59 99.6697 1365.83 99.6623 1366.08 99.655C1366.33 99.6477 1366.58 99.6367 1366.83 99.622V96.421H1365.35V99.677ZM1368.07 101.239C1369.09 101.239 1369.89 101.393 1370.47 101.701C1371.06 102.002 1371.35 102.438 1371.35 103.01C1371.35 103.582 1371.06 104.022 1370.47 104.33C1369.89 104.645 1369.09 104.803 1368.07 104.803C1367.03 104.803 1366.21 104.645 1365.64 104.33C1365.07 104.022 1364.78 103.582 1364.78 103.01C1364.78 102.438 1365.07 102.002 1365.64 101.701C1366.21 101.393 1367.03 101.239 1368.07 101.239ZM1368.07 104.099C1368.83 104.099 1369.42 104.007 1369.83 103.824C1370.25 103.633 1370.46 103.362 1370.46 103.01C1370.46 102.673 1370.25 102.409 1369.83 102.218C1369.42 102.027 1368.83 101.932 1368.07 101.932C1367.32 101.932 1366.73 102.027 1366.31 102.218C1365.9 102.409 1365.69 102.673 1365.69 103.01C1365.69 103.362 1365.9 103.633 1366.31 103.824C1366.73 104.007 1367.32 104.099 1368.07 104.099ZM1382.23 100.931H1373.32V100.194H1377.34V99.16C1376.87 99.138 1376.46 99.0793 1376.08 98.984C1375.71 98.8813 1375.39 98.7493 1375.12 98.588C1374.86 98.4193 1374.66 98.2213 1374.52 97.994C1374.38 97.7593 1374.31 97.499 1374.31 97.213C1374.31 96.905 1374.39 96.63 1374.55 96.388C1374.71 96.146 1374.94 95.9407 1375.25 95.772C1375.55 95.596 1375.92 95.464 1376.35 95.376C1376.78 95.288 1377.26 95.244 1377.79 95.244C1378.31 95.244 1378.79 95.288 1379.22 95.376C1379.64 95.464 1380 95.596 1380.31 95.772C1380.61 95.9407 1380.84 96.146 1381 96.388C1381.16 96.63 1381.24 96.905 1381.24 97.213C1381.24 97.4917 1381.17 97.7483 1381.03 97.983C1380.89 98.2103 1380.69 98.4083 1380.43 98.577C1380.17 98.7457 1379.85 98.8813 1379.48 98.984C1379.11 99.0793 1378.7 99.138 1378.24 99.16V100.194H1382.23V100.931ZM1375.23 97.213C1375.23 97.609 1375.46 97.9133 1375.91 98.126C1376.36 98.3387 1376.99 98.445 1377.79 98.445C1378.56 98.445 1379.17 98.3387 1379.62 98.126C1380.09 97.906 1380.32 97.6017 1380.32 97.213C1380.32 96.8243 1380.09 96.52 1379.62 96.3C1379.17 96.08 1378.56 95.97 1377.79 95.97C1376.99 95.97 1376.36 96.08 1375.91 96.3C1375.46 96.5127 1375.23 96.817 1375.23 97.213ZM1381.25 103.857V104.594H1374.46V101.745H1375.37V103.857H1381.25ZM1392.39 103.593H1383.43V102.856H1387.44V100.997H1384.55V97.95H1390.4V96.41H1384.53V95.673H1391.28V98.676H1385.44V100.271H1391.51V100.997H1388.36V102.856H1392.39V103.593Z" fill="black" fill-opacity="0.6"/>
<path d="M1424.36 96.883V96.157H1426.81V94.958H1427.71V96.157H1430.18V96.883H1424.36ZM1433.44 98.962H1431.98V102.35H1431.08V94.958H1431.98V98.203H1433.44V98.962ZM1429.63 99.259C1429.63 99.5377 1429.57 99.7907 1429.45 100.018C1429.34 100.245 1429.18 100.44 1428.97 100.601C1428.76 100.755 1428.51 100.876 1428.22 100.964C1427.93 101.052 1427.61 101.096 1427.26 101.096C1426.91 101.096 1426.59 101.052 1426.31 100.964C1426.02 100.876 1425.77 100.755 1425.56 100.601C1425.35 100.44 1425.19 100.245 1425.07 100.018C1424.96 99.7907 1424.91 99.5377 1424.91 99.259C1424.91 98.9803 1424.96 98.731 1425.07 98.511C1425.19 98.2837 1425.35 98.093 1425.56 97.939C1425.77 97.7777 1426.02 97.653 1426.31 97.565C1426.59 97.477 1426.91 97.433 1427.26 97.433C1427.61 97.433 1427.93 97.477 1428.22 97.565C1428.51 97.653 1428.76 97.7777 1428.97 97.939C1429.18 98.093 1429.34 98.2837 1429.45 98.511C1429.57 98.731 1429.63 98.9803 1429.63 99.259ZM1425.77 99.259C1425.77 99.611 1425.9 99.8897 1426.16 100.095C1426.43 100.293 1426.8 100.392 1427.26 100.392C1427.71 100.392 1428.07 100.293 1428.35 100.095C1428.63 99.8897 1428.77 99.611 1428.77 99.259C1428.77 98.907 1428.63 98.632 1428.35 98.434C1428.07 98.236 1427.71 98.137 1427.26 98.137C1426.8 98.137 1426.43 98.236 1426.16 98.434C1425.9 98.632 1425.77 98.907 1425.77 99.259ZM1432.42 103.857V104.594H1425.84V101.767H1426.75V103.857H1432.42ZM1442.04 99.633V104.814H1441.13V94.947H1442.04V98.885H1443.62V99.633H1442.04ZM1435.73 101.558C1436.44 101.558 1437.17 101.525 1437.9 101.459C1438.64 101.393 1439.41 101.279 1440.21 101.118L1440.32 101.866C1439.48 102.035 1438.67 102.152 1437.9 102.218C1437.14 102.284 1436.38 102.317 1435.62 102.317H1434.84V95.904H1435.73V101.558ZM1445.62 96.058V95.343H1452.43V97.917H1446.56V99.182H1452.65V99.919H1445.65V97.224H1451.52V96.058H1445.62ZM1449.47 101.668V104.825H1448.57V101.668H1444.55V100.931H1453.51V101.668H1449.47ZM1463.64 103.593H1454.67V102.856H1458.69V100.997H1455.79V97.95H1461.65V96.41H1455.77V95.673H1462.53V98.676H1456.69V100.271H1462.76V100.997H1459.6V102.856H1463.64V103.593Z" fill="black" fill-opacity="0.6"/>
<path d="M1498.62 95.244H1499.62V104H1498.62V95.244ZM1502.99 104.143C1502.74 104.143 1502.51 104.103 1502.3 104.022C1502.09 103.941 1501.9 103.828 1501.75 103.681C1501.6 103.527 1501.48 103.344 1501.39 103.131C1501.3 102.911 1501.26 102.665 1501.26 102.394C1501.26 101.624 1501.57 101.074 1502.2 100.744C1502.84 100.407 1503.75 100.231 1504.93 100.216C1504.93 100.025 1504.91 99.8383 1504.87 99.655C1504.84 99.4717 1504.77 99.3103 1504.68 99.171C1504.59 99.0317 1504.46 98.9217 1504.3 98.841C1504.14 98.753 1503.94 98.709 1503.7 98.709C1503.35 98.709 1503.01 98.7677 1502.69 98.885C1502.36 98.995 1502.08 99.1307 1501.85 99.292L1501.45 98.577C1501.73 98.401 1502.08 98.2397 1502.5 98.093C1502.92 97.9463 1503.38 97.873 1503.86 97.873C1504.23 97.873 1504.54 97.9317 1504.8 98.049C1505.06 98.1663 1505.27 98.335 1505.44 98.555C1505.6 98.7677 1505.73 99.0243 1505.81 99.325C1505.89 99.6257 1505.93 99.9593 1505.93 100.326V104H1505.11L1505.02 103.362H1504.98C1504.7 103.597 1504.39 103.787 1504.05 103.934C1503.72 104.073 1503.37 104.143 1502.99 104.143ZM1503.28 103.34C1503.57 103.34 1503.85 103.289 1504.1 103.186C1504.36 103.083 1504.64 102.904 1504.93 102.647V100.876C1504.4 100.913 1503.96 100.968 1503.61 101.041C1503.26 101.107 1502.99 101.199 1502.78 101.316C1502.58 101.426 1502.44 101.565 1502.36 101.734C1502.27 101.895 1502.23 102.093 1502.23 102.328C1502.23 102.68 1502.33 102.937 1502.52 103.098C1502.72 103.259 1502.97 103.34 1503.28 103.34ZM1510.47 104.143C1510.19 104.143 1509.9 104.077 1509.6 103.945C1509.3 103.813 1509.03 103.626 1508.76 103.384H1508.73L1508.64 104H1507.84V95.244H1508.84V97.642L1508.81 98.72C1509.08 98.4853 1509.37 98.2873 1509.7 98.126C1510.02 97.9573 1510.35 97.873 1510.68 97.873C1511.06 97.873 1511.41 97.9463 1511.7 98.093C1512 98.2397 1512.25 98.445 1512.45 98.709C1512.65 98.973 1512.81 99.292 1512.91 99.666C1513.01 100.04 1513.06 100.454 1513.06 100.909C1513.06 101.422 1512.99 101.881 1512.84 102.284C1512.7 102.687 1512.51 103.028 1512.27 103.307C1512.04 103.578 1511.76 103.787 1511.45 103.934C1511.14 104.073 1510.81 104.143 1510.47 104.143ZM1510.3 103.307C1510.55 103.307 1510.78 103.252 1510.98 103.142C1511.2 103.032 1511.38 102.878 1511.53 102.68C1511.69 102.475 1511.81 102.225 1511.89 101.932C1511.97 101.639 1512.02 101.305 1512.02 100.931C1512.02 100.601 1511.99 100.3 1511.93 100.029C1511.87 99.7577 1511.78 99.5267 1511.65 99.336C1511.53 99.138 1511.37 98.9877 1511.17 98.885C1510.97 98.775 1510.73 98.72 1510.44 98.72C1510.19 98.72 1509.93 98.7897 1509.66 98.929C1509.4 99.0683 1509.12 99.2737 1508.84 99.545V102.68C1509.1 102.915 1509.36 103.08 1509.62 103.175C1509.88 103.263 1510.1 103.307 1510.3 103.307ZM1517.05 104.143C1516.65 104.143 1516.28 104.073 1515.92 103.934C1515.58 103.795 1515.28 103.593 1515.02 103.329C1514.77 103.058 1514.56 102.728 1514.41 102.339C1514.26 101.95 1514.19 101.51 1514.19 101.019C1514.19 100.535 1514.26 100.099 1514.41 99.71C1514.56 99.3213 1514.76 98.9913 1515.01 98.72C1515.26 98.4487 1515.55 98.2397 1515.87 98.093C1516.2 97.9463 1516.54 97.873 1516.88 97.873C1517.26 97.873 1517.6 97.939 1517.89 98.071C1518.19 98.203 1518.43 98.3937 1518.63 98.643C1518.84 98.885 1518.99 99.1783 1519.09 99.523C1519.2 99.8677 1519.26 100.253 1519.26 100.678C1519.26 100.788 1519.25 100.894 1519.25 100.997C1519.24 101.092 1519.23 101.177 1519.21 101.25H1515.19C1515.22 101.895 1515.42 102.405 1515.77 102.779C1516.13 103.153 1516.6 103.34 1517.17 103.34C1517.46 103.34 1517.73 103.3 1517.97 103.219C1518.21 103.131 1518.44 103.014 1518.66 102.867L1519.03 103.527C1518.76 103.696 1518.47 103.842 1518.15 103.967C1517.83 104.084 1517.46 104.143 1517.05 104.143ZM1518.38 100.535C1518.38 99.9117 1518.25 99.446 1517.98 99.138C1517.73 98.83 1517.36 98.676 1516.89 98.676C1516.68 98.676 1516.47 98.72 1516.28 98.808C1516.09 98.8887 1515.91 99.0097 1515.76 99.171C1515.61 99.325 1515.48 99.5193 1515.37 99.754C1515.27 99.9813 1515.21 100.242 1515.18 100.535H1518.38ZM1520.73 95.244H1521.73V104H1520.73V95.244Z" fill="black" fill-opacity="0.6"/>
<path d="M1564.81 95.244H1565.81V104H1564.81V95.244ZM1569.18 104.143C1568.93 104.143 1568.7 104.103 1568.49 104.022C1568.27 103.941 1568.09 103.828 1567.94 103.681C1567.78 103.527 1567.66 103.344 1567.57 103.131C1567.48 102.911 1567.44 102.665 1567.44 102.394C1567.44 101.624 1567.76 101.074 1568.39 100.744C1569.02 100.407 1569.93 100.231 1571.11 100.216C1571.11 100.025 1571.1 99.8383 1571.06 99.655C1571.02 99.4717 1570.96 99.3103 1570.86 99.171C1570.77 99.0317 1570.65 98.9217 1570.49 98.841C1570.33 98.753 1570.12 98.709 1569.88 98.709C1569.53 98.709 1569.19 98.7677 1568.87 98.885C1568.55 98.995 1568.27 99.1307 1568.03 99.292L1567.64 98.577C1567.92 98.401 1568.27 98.2397 1568.68 98.093C1569.11 97.9463 1569.56 97.873 1570.05 97.873C1570.41 97.873 1570.73 97.9317 1570.98 98.049C1571.25 98.1663 1571.46 98.335 1571.62 98.555C1571.79 98.7677 1571.91 99.0243 1571.99 99.325C1572.08 99.6257 1572.12 99.9593 1572.12 100.326V104H1571.29L1571.2 103.362H1571.17C1570.88 103.597 1570.57 103.787 1570.23 103.934C1569.9 104.073 1569.55 104.143 1569.18 104.143ZM1569.46 103.34C1569.76 103.34 1570.03 103.289 1570.29 103.186C1570.55 103.083 1570.82 102.904 1571.11 102.647V100.876C1570.59 100.913 1570.15 100.968 1569.79 101.041C1569.45 101.107 1569.17 101.199 1568.97 101.316C1568.76 101.426 1568.62 101.565 1568.54 101.734C1568.46 101.895 1568.42 102.093 1568.42 102.328C1568.42 102.68 1568.51 102.937 1568.71 103.098C1568.9 103.259 1569.16 103.34 1569.46 103.34ZM1576.65 104.143C1576.37 104.143 1576.08 104.077 1575.78 103.945C1575.49 103.813 1575.21 103.626 1574.95 103.384H1574.91L1574.83 104H1574.02V95.244H1575.02V97.642L1574.99 98.72C1575.26 98.4853 1575.56 98.2873 1575.88 98.126C1576.21 97.9573 1576.53 97.873 1576.86 97.873C1577.25 97.873 1577.59 97.9463 1577.88 98.093C1578.19 98.2397 1578.43 98.445 1578.63 98.709C1578.84 98.973 1578.99 99.292 1579.09 99.666C1579.2 100.04 1579.25 100.454 1579.25 100.909C1579.25 101.422 1579.18 101.881 1579.03 102.284C1578.89 102.687 1578.7 103.028 1578.46 103.307C1578.22 103.578 1577.95 103.787 1577.63 103.934C1577.32 104.073 1577 104.143 1576.65 104.143ZM1576.49 103.307C1576.74 103.307 1576.96 103.252 1577.17 103.142C1577.38 103.032 1577.57 102.878 1577.72 102.68C1577.87 102.475 1577.99 102.225 1578.07 101.932C1578.16 101.639 1578.2 101.305 1578.2 100.931C1578.2 100.601 1578.17 100.3 1578.12 100.029C1578.06 99.7577 1577.97 99.5267 1577.84 99.336C1577.72 99.138 1577.55 98.9877 1577.36 98.885C1577.16 98.775 1576.92 98.72 1576.63 98.72C1576.37 98.72 1576.11 98.7897 1575.85 98.929C1575.59 99.0683 1575.31 99.2737 1575.02 99.545V102.68C1575.29 102.915 1575.55 103.08 1575.81 103.175C1576.06 103.263 1576.29 103.307 1576.49 103.307ZM1583.23 104.143C1582.84 104.143 1582.46 104.073 1582.11 103.934C1581.77 103.795 1581.47 103.593 1581.21 103.329C1580.95 103.058 1580.75 102.728 1580.59 102.339C1580.45 101.95 1580.37 101.51 1580.37 101.019C1580.37 100.535 1580.45 100.099 1580.59 99.71C1580.75 99.3213 1580.95 98.9913 1581.2 98.72C1581.45 98.4487 1581.73 98.2397 1582.06 98.093C1582.39 97.9463 1582.72 97.873 1583.07 97.873C1583.45 97.873 1583.79 97.939 1584.08 98.071C1584.37 98.203 1584.62 98.3937 1584.82 98.643C1585.02 98.885 1585.18 99.1783 1585.28 99.523C1585.39 99.8677 1585.44 100.253 1585.44 100.678C1585.44 100.788 1585.44 100.894 1585.43 100.997C1585.43 101.092 1585.41 101.177 1585.4 101.25H1581.37C1581.41 101.895 1581.6 102.405 1581.96 102.779C1582.32 103.153 1582.78 103.34 1583.35 103.34C1583.65 103.34 1583.91 103.3 1584.16 103.219C1584.4 103.131 1584.63 103.014 1584.85 102.867L1585.21 103.527C1584.95 103.696 1584.66 103.842 1584.33 103.967C1584.02 104.084 1583.65 104.143 1583.23 104.143ZM1584.56 100.535C1584.56 99.9117 1584.43 99.446 1584.17 99.138C1583.91 98.83 1583.55 98.676 1583.08 98.676C1582.87 98.676 1582.66 98.72 1582.46 98.808C1582.27 98.8887 1582.1 99.0097 1581.95 99.171C1581.79 99.325 1581.66 99.5193 1581.56 99.754C1581.46 99.9813 1581.39 100.242 1581.36 100.535H1584.56ZM1586.91 95.244H1587.92V104H1586.91V95.244Z" fill="black" fill-opacity="0.6"/>
<path d="M1630.99 95.244H1631.99V104H1630.99V95.244ZM1635.36 104.143C1635.11 104.143 1634.88 104.103 1634.67 104.022C1634.46 103.941 1634.27 103.828 1634.12 103.681C1633.97 103.527 1633.85 103.344 1633.76 103.131C1633.67 102.911 1633.63 102.665 1633.63 102.394C1633.63 101.624 1633.94 101.074 1634.57 100.744C1635.21 100.407 1636.12 100.231 1637.3 100.216C1637.3 100.025 1637.28 99.8383 1637.24 99.655C1637.21 99.4717 1637.14 99.3103 1637.05 99.171C1636.96 99.0317 1636.83 98.9217 1636.67 98.841C1636.51 98.753 1636.31 98.709 1636.07 98.709C1635.72 98.709 1635.38 98.7677 1635.06 98.885C1634.73 98.995 1634.45 99.1307 1634.22 99.292L1633.82 98.577C1634.1 98.401 1634.45 98.2397 1634.87 98.093C1635.29 97.9463 1635.75 97.873 1636.23 97.873C1636.6 97.873 1636.91 97.9317 1637.17 98.049C1637.43 98.1663 1637.64 98.335 1637.81 98.555C1637.97 98.7677 1638.1 99.0243 1638.18 99.325C1638.26 99.6257 1638.3 99.9593 1638.3 100.326V104H1637.48L1637.39 103.362H1637.35C1637.07 103.597 1636.76 103.787 1636.42 103.934C1636.09 104.073 1635.74 104.143 1635.36 104.143ZM1635.65 103.34C1635.94 103.34 1636.22 103.289 1636.47 103.186C1636.73 103.083 1637.01 102.904 1637.3 102.647V100.876C1636.77 100.913 1636.33 100.968 1635.98 101.041C1635.63 101.107 1635.36 101.199 1635.15 101.316C1634.95 101.426 1634.81 101.565 1634.73 101.734C1634.64 101.895 1634.6 102.093 1634.6 102.328C1634.6 102.68 1634.7 102.937 1634.89 103.098C1635.09 103.259 1635.34 103.34 1635.65 103.34ZM1642.84 104.143C1642.56 104.143 1642.27 104.077 1641.97 103.945C1641.67 103.813 1641.4 103.626 1641.13 103.384H1641.1L1641.01 104H1640.21V95.244H1641.21V97.642L1641.18 98.72C1641.45 98.4853 1641.74 98.2873 1642.07 98.126C1642.39 97.9573 1642.72 97.873 1643.05 97.873C1643.43 97.873 1643.78 97.9463 1644.07 98.093C1644.37 98.2397 1644.62 98.445 1644.82 98.709C1645.02 98.973 1645.18 99.292 1645.28 99.666C1645.38 100.04 1645.43 100.454 1645.43 100.909C1645.43 101.422 1645.36 101.881 1645.21 102.284C1645.07 102.687 1644.88 103.028 1644.64 103.307C1644.41 103.578 1644.13 103.787 1643.82 103.934C1643.51 104.073 1643.18 104.143 1642.84 104.143ZM1642.67 103.307C1642.92 103.307 1643.15 103.252 1643.35 103.142C1643.57 103.032 1643.75 102.878 1643.9 102.68C1644.06 102.475 1644.18 102.225 1644.26 101.932C1644.34 101.639 1644.39 101.305 1644.39 100.931C1644.39 100.601 1644.36 100.3 1644.3 100.029C1644.24 99.7577 1644.15 99.5267 1644.03 99.336C1643.9 99.138 1643.74 98.9877 1643.54 98.885C1643.34 98.775 1643.1 98.72 1642.82 98.72C1642.56 98.72 1642.3 98.7897 1642.03 98.929C1641.77 99.0683 1641.5 99.2737 1641.21 99.545V102.68C1641.47 102.915 1641.73 103.08 1641.99 103.175C1642.25 103.263 1642.47 103.307 1642.67 103.307ZM1649.42 104.143C1649.02 104.143 1648.65 104.073 1648.29 103.934C1647.95 103.795 1647.65 103.593 1647.39 103.329C1647.14 103.058 1646.93 102.728 1646.78 102.339C1646.63 101.95 1646.56 101.51 1646.56 101.019C1646.56 100.535 1646.63 100.099 1646.78 99.71C1646.93 99.3213 1647.13 98.9913 1647.38 98.72C1647.63 98.4487 1647.92 98.2397 1648.24 98.093C1648.57 97.9463 1648.91 97.873 1649.25 97.873C1649.63 97.873 1649.97 97.939 1650.26 98.071C1650.56 98.203 1650.8 98.3937 1651 98.643C1651.21 98.885 1651.36 99.1783 1651.46 99.523C1651.57 99.8677 1651.63 100.253 1651.63 100.678C1651.63 100.788 1651.62 100.894 1651.62 100.997C1651.61 101.092 1651.6 101.177 1651.58 101.25H1647.56C1647.59 101.895 1647.79 102.405 1648.14 102.779C1648.5 103.153 1648.97 103.34 1649.54 103.34C1649.83 103.34 1650.1 103.3 1650.34 103.219C1650.58 103.131 1650.81 103.014 1651.03 102.867L1651.4 103.527C1651.13 103.696 1650.84 103.842 1650.52 103.967C1650.2 104.084 1649.83 104.143 1649.42 104.143ZM1650.75 100.535C1650.75 99.9117 1650.62 99.446 1650.35 99.138C1650.1 98.83 1649.73 98.676 1649.26 98.676C1649.05 98.676 1648.84 98.72 1648.65 98.808C1648.46 98.8887 1648.28 99.0097 1648.13 99.171C1647.98 99.325 1647.85 99.5193 1647.74 99.754C1647.64 99.9813 1647.58 100.242 1647.55 100.535H1650.75ZM1653.1 95.244H1654.1V104H1653.1V95.244Z" fill="black" fill-opacity="0.6"/>
<path d="M1697.18 95.244H1698.18V104H1697.18V95.244ZM1701.55 104.143C1701.3 104.143 1701.07 104.103 1700.86 104.022C1700.64 103.941 1700.46 103.828 1700.31 103.681C1700.15 103.527 1700.03 103.344 1699.94 103.131C1699.85 102.911 1699.81 102.665 1699.81 102.394C1699.81 101.624 1700.13 101.074 1700.76 100.744C1701.39 100.407 1702.3 100.231 1703.48 100.216C1703.48 100.025 1703.47 99.8383 1703.43 99.655C1703.39 99.4717 1703.33 99.3103 1703.23 99.171C1703.14 99.0317 1703.02 98.9217 1702.86 98.841C1702.7 98.753 1702.49 98.709 1702.25 98.709C1701.9 98.709 1701.56 98.7677 1701.24 98.885C1700.92 98.995 1700.64 99.1307 1700.4 99.292L1700.01 98.577C1700.29 98.401 1700.64 98.2397 1701.05 98.093C1701.48 97.9463 1701.93 97.873 1702.42 97.873C1702.78 97.873 1703.1 97.9317 1703.35 98.049C1703.62 98.1663 1703.83 98.335 1703.99 98.555C1704.16 98.7677 1704.28 99.0243 1704.36 99.325C1704.45 99.6257 1704.49 99.9593 1704.49 100.326V104H1703.66L1703.57 103.362H1703.54C1703.25 103.597 1702.94 103.787 1702.6 103.934C1702.27 104.073 1701.92 104.143 1701.55 104.143ZM1701.83 103.34C1702.13 103.34 1702.4 103.289 1702.66 103.186C1702.92 103.083 1703.19 102.904 1703.48 102.647V100.876C1702.96 100.913 1702.52 100.968 1702.16 101.041C1701.82 101.107 1701.55 101.199 1701.34 101.316C1701.13 101.426 1700.99 101.565 1700.91 101.734C1700.83 101.895 1700.79 102.093 1700.79 102.328C1700.79 102.68 1700.89 102.937 1701.08 103.098C1701.27 103.259 1701.53 103.34 1701.83 103.34ZM1709.02 104.143C1708.74 104.143 1708.45 104.077 1708.15 103.945C1707.86 103.813 1707.58 103.626 1707.32 103.384H1707.28L1707.2 104H1706.39V95.244H1707.39V97.642L1707.36 98.72C1707.63 98.4853 1707.93 98.2873 1708.25 98.126C1708.58 97.9573 1708.9 97.873 1709.23 97.873C1709.62 97.873 1709.96 97.9463 1710.25 98.093C1710.56 98.2397 1710.8 98.445 1711 98.709C1711.21 98.973 1711.36 99.292 1711.46 99.666C1711.57 100.04 1711.62 100.454 1711.62 100.909C1711.62 101.422 1711.55 101.881 1711.4 102.284C1711.26 102.687 1711.07 103.028 1710.83 103.307C1710.59 103.578 1710.32 103.787 1710 103.934C1709.69 104.073 1709.37 104.143 1709.02 104.143ZM1708.86 103.307C1709.11 103.307 1709.33 103.252 1709.54 103.142C1709.75 103.032 1709.94 102.878 1710.09 102.68C1710.24 102.475 1710.36 102.225 1710.44 101.932C1710.53 101.639 1710.57 101.305 1710.57 100.931C1710.57 100.601 1710.54 100.3 1710.49 100.029C1710.43 99.7577 1710.34 99.5267 1710.21 99.336C1710.09 99.138 1709.92 98.9877 1709.73 98.885C1709.53 98.775 1709.29 98.72 1709 98.72C1708.74 98.72 1708.48 98.7897 1708.22 98.929C1707.96 99.0683 1707.68 99.2737 1707.39 99.545V102.68C1707.66 102.915 1707.92 103.08 1708.18 103.175C1708.43 103.263 1708.66 103.307 1708.86 103.307ZM1715.6 104.143C1715.21 104.143 1714.83 104.073 1714.48 103.934C1714.14 103.795 1713.84 103.593 1713.58 103.329C1713.32 103.058 1713.12 102.728 1712.96 102.339C1712.82 101.95 1712.74 101.51 1712.74 101.019C1712.74 100.535 1712.82 100.099 1712.96 99.71C1713.12 99.3213 1713.32 98.9913 1713.57 98.72C1713.82 98.4487 1714.1 98.2397 1714.43 98.093C1714.76 97.9463 1715.09 97.873 1715.44 97.873C1715.82 97.873 1716.16 97.939 1716.45 98.071C1716.74 98.203 1716.99 98.3937 1717.19 98.643C1717.39 98.885 1717.55 99.1783 1717.65 99.523C1717.76 99.8677 1717.81 100.253 1717.81 100.678C1717.81 100.788 1717.81 100.894 1717.8 100.997C1717.8 101.092 1717.78 101.177 1717.77 101.25H1713.74C1713.78 101.895 1713.97 102.405 1714.33 102.779C1714.69 103.153 1715.15 103.34 1715.72 103.34C1716.02 103.34 1716.28 103.3 1716.53 103.219C1716.77 103.131 1717 103.014 1717.22 102.867L1717.58 103.527C1717.32 103.696 1717.03 103.842 1716.7 103.967C1716.39 104.084 1716.02 104.143 1715.6 104.143ZM1716.93 100.535C1716.93 99.9117 1716.8 99.446 1716.54 99.138C1716.28 98.83 1715.92 98.676 1715.45 98.676C1715.24 98.676 1715.03 98.72 1714.83 98.808C1714.64 98.8887 1714.47 99.0097 1714.32 99.171C1714.16 99.325 1714.03 99.5193 1713.93 99.754C1713.83 99.9813 1713.76 100.242 1713.73 100.535H1716.93ZM1719.28 95.244H1720.29V104H1719.28V95.244Z" fill="black" fill-opacity="0.6"/>
<path d="M1763.36 95.244H1764.36V104H1763.36V95.244ZM1767.73 104.143C1767.48 104.143 1767.25 104.103 1767.04 104.022C1766.83 103.941 1766.64 103.828 1766.49 103.681C1766.34 103.527 1766.22 103.344 1766.13 103.131C1766.04 102.911 1766 102.665 1766 102.394C1766 101.624 1766.31 101.074 1766.94 100.744C1767.58 100.407 1768.49 100.231 1769.67 100.216C1769.67 100.025 1769.65 99.8383 1769.61 99.655C1769.58 99.4717 1769.51 99.3103 1769.42 99.171C1769.33 99.0317 1769.2 98.9217 1769.04 98.841C1768.88 98.753 1768.68 98.709 1768.44 98.709C1768.09 98.709 1767.75 98.7677 1767.43 98.885C1767.1 98.995 1766.82 99.1307 1766.59 99.292L1766.19 98.577C1766.47 98.401 1766.82 98.2397 1767.24 98.093C1767.66 97.9463 1768.12 97.873 1768.6 97.873C1768.97 97.873 1769.28 97.9317 1769.54 98.049C1769.8 98.1663 1770.01 98.335 1770.18 98.555C1770.34 98.7677 1770.47 99.0243 1770.55 99.325C1770.63 99.6257 1770.67 99.9593 1770.67 100.326V104H1769.85L1769.76 103.362H1769.72C1769.44 103.597 1769.13 103.787 1768.79 103.934C1768.46 104.073 1768.11 104.143 1767.73 104.143ZM1768.02 103.34C1768.31 103.34 1768.59 103.289 1768.84 103.186C1769.1 103.083 1769.38 102.904 1769.67 102.647V100.876C1769.14 100.913 1768.7 100.968 1768.35 101.041C1768 101.107 1767.73 101.199 1767.52 101.316C1767.32 101.426 1767.18 101.565 1767.1 101.734C1767.01 101.895 1766.97 102.093 1766.97 102.328C1766.97 102.68 1767.07 102.937 1767.26 103.098C1767.46 103.259 1767.71 103.34 1768.02 103.34ZM1775.21 104.143C1774.93 104.143 1774.64 104.077 1774.34 103.945C1774.04 103.813 1773.77 103.626 1773.5 103.384H1773.47L1773.38 104H1772.58V95.244H1773.58V97.642L1773.55 98.72C1773.82 98.4853 1774.11 98.2873 1774.44 98.126C1774.76 97.9573 1775.09 97.873 1775.42 97.873C1775.8 97.873 1776.15 97.9463 1776.44 98.093C1776.74 98.2397 1776.99 98.445 1777.19 98.709C1777.39 98.973 1777.55 99.292 1777.65 99.666C1777.75 100.04 1777.8 100.454 1777.8 100.909C1777.8 101.422 1777.73 101.881 1777.58 102.284C1777.44 102.687 1777.25 103.028 1777.01 103.307C1776.78 103.578 1776.5 103.787 1776.19 103.934C1775.88 104.073 1775.55 104.143 1775.21 104.143ZM1775.04 103.307C1775.29 103.307 1775.52 103.252 1775.72 103.142C1775.94 103.032 1776.12 102.878 1776.27 102.68C1776.43 102.475 1776.55 102.225 1776.63 101.932C1776.71 101.639 1776.76 101.305 1776.76 100.931C1776.76 100.601 1776.73 100.3 1776.67 100.029C1776.61 99.7577 1776.52 99.5267 1776.4 99.336C1776.27 99.138 1776.11 98.9877 1775.91 98.885C1775.71 98.775 1775.47 98.72 1775.19 98.72C1774.93 98.72 1774.67 98.7897 1774.4 98.929C1774.14 99.0683 1773.87 99.2737 1773.58 99.545V102.68C1773.84 102.915 1774.1 103.08 1774.36 103.175C1774.62 103.263 1774.84 103.307 1775.04 103.307ZM1781.79 104.143C1781.39 104.143 1781.02 104.073 1780.67 103.934C1780.32 103.795 1780.02 103.593 1779.76 103.329C1779.51 103.058 1779.3 102.728 1779.15 102.339C1779 101.95 1778.93 101.51 1778.93 101.019C1778.93 100.535 1779 100.099 1779.15 99.71C1779.3 99.3213 1779.5 98.9913 1779.75 98.72C1780 98.4487 1780.29 98.2397 1780.61 98.093C1780.94 97.9463 1781.28 97.873 1781.62 97.873C1782 97.873 1782.34 97.939 1782.63 98.071C1782.93 98.203 1783.17 98.3937 1783.37 98.643C1783.58 98.885 1783.73 99.1783 1783.83 99.523C1783.94 99.8677 1784 100.253 1784 100.678C1784 100.788 1783.99 100.894 1783.99 100.997C1783.98 101.092 1783.97 101.177 1783.95 101.25H1779.93C1779.96 101.895 1780.16 102.405 1780.51 102.779C1780.87 103.153 1781.34 103.34 1781.91 103.34C1782.2 103.34 1782.47 103.3 1782.71 103.219C1782.95 103.131 1783.18 103.014 1783.4 102.867L1783.77 103.527C1783.5 103.696 1783.21 103.842 1782.89 103.967C1782.57 104.084 1782.21 104.143 1781.79 104.143ZM1783.12 100.535C1783.12 99.9117 1782.99 99.446 1782.72 99.138C1782.47 98.83 1782.1 98.676 1781.63 98.676C1781.42 98.676 1781.22 98.72 1781.02 98.808C1780.83 98.8887 1780.65 99.0097 1780.5 99.171C1780.35 99.325 1780.22 99.5193 1780.12 99.754C1780.01 99.9813 1779.95 100.242 1779.92 100.535H1783.12ZM1785.47 95.244H1786.47V104H1785.47V95.244Z" fill="black" fill-opacity="0.6"/>
</svg>
