<svg width="1816" height="108" viewBox="0 0 1816 108" fill="none" xmlns="http://www.w3.org/2000/svg">
<path d="M37.5039 19L111.254 21.5L184.502 19L258.252 24.5L332.002 21L406.253 24.5L480.003 21L553.753 18.5H627.503L701.252 24L775.002 21L848.752 24L923.004 18.5L996.252 21.5L1070 24L1143.75 18L1218 21.5L1291.25 24L1365.5 18.5H1439.25L1513 22L1586.75 24L1660.5 18.5L1734.25 21L1808 24.5" stroke="#00B8E6" stroke-width="2"/>
<path d="M37.5039 30L111.254 32.5L184.502 30L258.252 35.5L332.002 32L406.253 35.5L480.003 32L553.753 29.5H627.503L701.252 35L775.002 32L848.752 35L923.004 29.5L996.252 32.5L1070 35L1143.75 29L1218 32.5L1291.25 35L1365.5 29.5H1439.25L1513 33L1586.75 35L1660.5 29.5L1734.25 32L1808 35.5" stroke="#0068E6" stroke-width="2"/>
<path d="M37.5039 56L111.254 58.5L184.502 56L258.252 61.5L332.002 58L406.253 61.5L480.003 58L553.753 55.5H627.503L701.252 61L775.002 58L848.752 61L923.004 55.5L996.252 58.5L1070 61L1143.75 55L1218 58.5L1291.25 61L1365.5 55.5H1439.25L1513 59L1586.75 61L1660.5 55.5L1734.25 58L1808 61.5" stroke="#6440F5" stroke-width="2"/>
<path d="M37 43L111.252 46L185.001 49L258.751 43L332.501 46L406.251 49.5L480.001 43L553.751 46L627.5 49L701.25 43L775 46L848.75 49L922.5 43L996.25 46L1070 49L1143.75 43L1217.5 46L1291.75 49L1365.5 43H1439.25L1513 46L1586.75 49L1660.5 43L1734.25 46L1808 49" stroke="#114FE8" stroke-width="2"/>
<path d="M37 70.5L110.75 73L184.5 76.5L258.25 70L332.501 73.5L405.749 70L480.001 76L553.751 73.5L627.5 76H701.25L775 70L848.75 73L922.5 70L996.25 73L1070 76H1143.75L1217.5 70L1291.75 73.5L1365 70H1439.25L1513 73.5L1586.75 70L1660.5 76.5H1734.25L1808 73" stroke="#6440F5" stroke-width="2"/>
<path d="M37 4.5L110.75 7L184.5 10.5L258.25 4L332.501 7.5L405.749 4L480.001 10L553.751 7.5L627.5 10H701.25L775 4L848.75 7L922.5 4L996.25 7L1070 10H1143.75L1217.5 4L1291.75 7.5L1365 4H1439.25L1513 7.5L1586.75 4L1660.5 10.5H1734.25L1808 7" stroke="#16D9AB" stroke-width="2"/>
<path d="M7.27453 9.855H6.05353V12H5.16253V9.855H1.13653V9.107L5.10753 3.849H6.05353V9.063H7.27453V9.855ZM5.16253 5.697C5.16253 5.60167 5.1662 5.49533 5.17353 5.378C5.18086 5.25333 5.19186 5.13233 5.20653 5.015L2.23653 9.063H5.16253V5.697ZM13.7063 7.985C13.7063 8.69633 13.6293 9.316 13.4753 9.844C13.3213 10.3647 13.1123 10.7973 12.8483 11.142C12.5843 11.4867 12.2726 11.7433 11.9133 11.912C11.5539 12.0733 11.1653 12.154 10.7473 12.154C10.3293 12.154 9.9406 12.0733 9.58127 11.912C9.22193 11.7433 8.9066 11.4867 8.63527 11.142C8.37127 10.7973 8.16227 10.3647 8.00827 9.844C7.8616 9.316 7.78827 8.69633 7.78827 7.985C7.78827 7.26633 7.8616 6.64667 8.00827 6.126C8.16227 5.598 8.37127 5.16167 8.63527 4.817C8.9066 4.47233 9.22193 4.21933 9.58127 4.058C9.9406 3.88933 10.3293 3.805 10.7473 3.805C11.1653 3.805 11.5539 3.88933 11.9133 4.058C12.2726 4.21933 12.5843 4.47233 12.8483 4.817C13.1123 5.16167 13.3213 5.598 13.4753 6.126C13.6293 6.64667 13.7063 7.26633 13.7063 7.985ZM12.6943 7.985C12.6943 7.35433 12.6393 6.82633 12.5293 6.401C12.4266 5.96833 12.2836 5.62367 12.1003 5.367C11.9243 5.103 11.7189 4.916 11.4843 4.806C11.2496 4.68867 11.0039 4.63 10.7473 4.63C10.4906 4.63 10.2449 4.68867 10.0103 4.806C9.7756 4.916 9.57027 5.103 9.39427 5.367C9.21827 5.62367 9.07527 5.96833 8.96527 6.401C8.8626 6.82633 8.81127 7.35433 8.81127 7.985C8.81127 8.60833 8.8626 9.13633 8.96527 9.569C9.07527 9.99433 9.21827 10.339 9.39427 10.603C9.57027 10.867 9.7756 11.0577 10.0103 11.175C10.2449 11.285 10.4906 11.34 10.7473 11.34C11.0039 11.34 11.2496 11.285 11.4843 11.175C11.7189 11.0577 11.9243 10.867 12.1003 10.603C12.2836 10.339 12.4266 9.99433 12.5293 9.569C12.6393 9.13633 12.6943 8.60833 12.6943 7.985Z" fill="black" fill-opacity="0.6"/>
<path d="M6.88953 49.25H1.47753V48.546L4.26053 45.873C4.4732 45.6457 4.66753 45.433 4.84353 45.235C5.02686 45.0297 5.18086 44.8243 5.30553 44.619C5.43753 44.4137 5.5402 44.2083 5.61353 44.003C5.68686 43.7903 5.72353 43.5667 5.72353 43.332C5.70886 42.848 5.5622 42.4923 5.28353 42.265C5.00486 42.0303 4.65653 41.913 4.23853 41.913C4.0112 41.913 3.79853 41.9533 3.60053 42.034C3.40253 42.1073 3.2302 42.2173 3.08353 42.364C2.9442 42.5033 2.8342 42.6683 2.75353 42.859C2.67286 43.0497 2.63253 43.2623 2.63253 43.497L1.64253 43.332C1.69386 42.958 1.79653 42.6317 1.95053 42.353C2.10453 42.067 2.2952 41.8287 2.52253 41.638C2.7572 41.44 3.02486 41.2933 3.32553 41.198C3.6262 41.0953 3.94886 41.044 4.29353 41.044C4.6382 41.044 4.9572 41.0953 5.25053 41.198C5.5512 41.3007 5.81153 41.451 6.03153 41.649C6.25153 41.8397 6.42386 42.0743 6.54853 42.353C6.6732 42.6317 6.73553 42.9507 6.73553 43.31C6.73553 43.6107 6.69153 43.8893 6.60353 44.146C6.51553 44.4027 6.39453 44.652 6.24053 44.894C6.08653 45.1287 5.90686 45.3597 5.70153 45.587C5.4962 45.807 5.27986 46.0307 5.05253 46.258L2.79753 48.491C2.95153 48.447 3.10553 48.414 3.25953 48.392C3.42086 48.37 3.5712 48.359 3.71053 48.359H6.88953V49.25ZM13.7063 45.235C13.7063 45.9463 13.6293 46.566 13.4753 47.094C13.3213 47.6147 13.1123 48.0473 12.8483 48.392C12.5843 48.7367 12.2726 48.9933 11.9133 49.162C11.5539 49.3233 11.1653 49.404 10.7473 49.404C10.3293 49.404 9.9406 49.3233 9.58127 49.162C9.22193 48.9933 8.9066 48.7367 8.63527 48.392C8.37127 48.0473 8.16227 47.6147 8.00827 47.094C7.8616 46.566 7.78827 45.9463 7.78827 45.235C7.78827 44.5163 7.8616 43.8967 8.00827 43.376C8.16227 42.848 8.37127 42.4117 8.63527 42.067C8.9066 41.7223 9.22193 41.4693 9.58127 41.308C9.9406 41.1393 10.3293 41.055 10.7473 41.055C11.1653 41.055 11.5539 41.1393 11.9133 41.308C12.2726 41.4693 12.5843 41.7223 12.8483 42.067C13.1123 42.4117 13.3213 42.848 13.4753 43.376C13.6293 43.8967 13.7063 44.5163 13.7063 45.235ZM12.6943 45.235C12.6943 44.6043 12.6393 44.0763 12.5293 43.651C12.4266 43.2183 12.2836 42.8737 12.1003 42.617C11.9243 42.353 11.7189 42.166 11.4843 42.056C11.2496 41.9387 11.0039 41.88 10.7473 41.88C10.4906 41.88 10.2449 41.9387 10.0103 42.056C9.7756 42.166 9.57027 42.353 9.39427 42.617C9.21827 42.8737 9.07527 43.2183 8.96527 43.651C8.8626 44.0763 8.81127 44.6043 8.81127 45.235C8.81127 45.8583 8.8626 46.3863 8.96527 46.819C9.07527 47.2443 9.21827 47.589 9.39427 47.853C9.57027 48.117 9.7756 48.3077 10.0103 48.425C10.2449 48.535 10.4906 48.59 10.7473 48.59C11.0039 48.59 11.2496 48.535 11.4843 48.425C11.7189 48.3077 11.9243 48.117 12.1003 47.853C12.2836 47.589 12.4266 47.2443 12.5293 46.819C12.6393 46.3863 12.6943 45.8583 12.6943 45.235Z" fill="black" fill-opacity="0.6"/>
<path d="M13.7063 82.485C13.7063 83.1963 13.6293 83.816 13.4753 84.344C13.3213 84.8647 13.1123 85.2973 12.8483 85.642C12.5843 85.9867 12.2726 86.2433 11.9133 86.412C11.5539 86.5733 11.1653 86.654 10.7473 86.654C10.3293 86.654 9.9406 86.5733 9.58127 86.412C9.22193 86.2433 8.9066 85.9867 8.63527 85.642C8.37127 85.2973 8.16227 84.8647 8.00827 84.344C7.8616 83.816 7.78827 83.1963 7.78827 82.485C7.78827 81.7663 7.8616 81.1467 8.00827 80.626C8.16227 80.098 8.37127 79.6617 8.63527 79.317C8.9066 78.9723 9.22193 78.7193 9.58127 78.558C9.9406 78.3893 10.3293 78.305 10.7473 78.305C11.1653 78.305 11.5539 78.3893 11.9133 78.558C12.2726 78.7193 12.5843 78.9723 12.8483 79.317C13.1123 79.6617 13.3213 80.098 13.4753 80.626C13.6293 81.1467 13.7063 81.7663 13.7063 82.485ZM12.6943 82.485C12.6943 81.8543 12.6393 81.3263 12.5293 80.901C12.4266 80.4683 12.2836 80.1237 12.1003 79.867C11.9243 79.603 11.7189 79.416 11.4843 79.306C11.2496 79.1887 11.0039 79.13 10.7473 79.13C10.4906 79.13 10.2449 79.1887 10.0103 79.306C9.7756 79.416 9.57027 79.603 9.39427 79.867C9.21827 80.1237 9.07527 80.4683 8.96527 80.901C8.8626 81.3263 8.81127 81.8543 8.81127 82.485C8.81127 83.1083 8.8626 83.6363 8.96527 84.069C9.07527 84.4943 9.21827 84.839 9.39427 85.103C9.57027 85.367 9.7756 85.5577 10.0103 85.675C10.2449 85.785 10.4906 85.84 10.7473 85.84C11.0039 85.84 11.2496 85.785 11.4843 85.675C11.7189 85.5577 11.9243 85.367 12.1003 85.103C12.2836 84.839 12.4266 84.4943 12.5293 84.069C12.6393 83.6363 12.6943 83.1083 12.6943 82.485Z" fill="black" fill-opacity="0.6"/>
<mask id="path-10-inside-1_5151_70432" fill="white">
<path d="M21 1H1816V89.5H21V1Z"/>
</mask>
<path d="M21 89.5H20V90.5H21V89.5ZM1816 88.5H21V90.5H1816V88.5ZM22 89.5V1H20V89.5H22Z" fill="white" fill-opacity="0.2" mask="url(#path-10-inside-1_5151_70432)"/>
<path d="M37 9C39.2091 9 41 7.20914 41 5C41 2.79086 39.2091 1 37 1C34.7909 1 33 2.79086 33 5C33 7.20914 34.7909 9 37 9Z" fill="white" stroke="#16D9AB" stroke-miterlimit="10"/>
<path d="M110.792 11C113.001 11 114.792 9.20914 114.792 7C114.792 4.79086 113.001 3 110.792 3C108.583 3 106.792 4.79086 106.792 7C106.792 9.20914 108.583 11 110.792 11Z" fill="white" stroke="#16D9AB" stroke-miterlimit="10"/>
<path d="M184.583 13C186.792 13 188.583 11.2091 188.583 9C188.583 6.79086 186.792 5 184.583 5C182.374 5 180.583 6.79086 180.583 9C180.583 11.2091 182.374 13 184.583 13Z" fill="white" stroke="#16D9AB" stroke-miterlimit="10"/>
<path d="M258.375 9C260.584 9 262.375 7.20914 262.375 5C262.375 2.79086 260.584 1 258.375 1C256.166 1 254.375 2.79086 254.375 5C254.375 7.20914 256.166 9 258.375 9Z" fill="white" stroke="#16D9AB" stroke-miterlimit="10"/>
<path d="M332.167 11C334.376 11 336.167 9.20914 336.167 7C336.167 4.79086 334.376 3 332.167 3C329.958 3 328.167 4.79086 328.167 7C328.167 9.20914 329.958 11 332.167 11Z" fill="white" stroke="#16D9AB" stroke-miterlimit="10"/>
<path d="M405.958 9C408.167 9 409.958 7.20914 409.958 5C409.958 2.79086 408.167 1 405.958 1C403.749 1 401.958 2.79086 401.958 5C401.958 7.20914 403.749 9 405.958 9Z" fill="white" stroke="#16D9AB" stroke-miterlimit="10"/>
<path d="M479.75 13C481.959 13 483.75 11.2091 483.75 9C483.75 6.79086 481.959 5 479.75 5C477.541 5 475.75 6.79086 475.75 9C475.75 11.2091 477.541 13 479.75 13Z" fill="white" stroke="#16D9AB" stroke-miterlimit="10"/>
<path d="M553.542 11C555.751 11 557.542 9.20914 557.542 7C557.542 4.79086 555.751 3 553.542 3C551.333 3 549.542 4.79086 549.542 7C549.542 9.20914 551.333 11 553.542 11Z" fill="#16D9AB" stroke="white" stroke-miterlimit="10"/>
<path d="M627.333 13C629.542 13 631.333 11.2091 631.333 9C631.333 6.79086 629.542 5 627.333 5C625.124 5 623.333 6.79086 623.333 9C623.333 11.2091 625.124 13 627.333 13Z" fill="white" stroke="#16D9AB" stroke-miterlimit="10"/>
<path d="M701.125 13C703.334 13 705.125 11.2091 705.125 9C705.125 6.79086 703.334 5 701.125 5C698.916 5 697.125 6.79086 697.125 9C697.125 11.2091 698.916 13 701.125 13Z" fill="white" stroke="#16D9AB" stroke-miterlimit="10"/>
<path d="M774.917 9C777.126 9 778.917 7.20914 778.917 5C778.917 2.79086 777.126 1 774.917 1C772.708 1 770.917 2.79086 770.917 5C770.917 7.20914 772.708 9 774.917 9Z" fill="white" stroke="#16D9AB" stroke-miterlimit="10"/>
<path d="M848.708 11C850.917 11 852.708 9.20914 852.708 7C852.708 4.79086 850.917 3 848.708 3C846.499 3 844.708 4.79086 844.708 7C844.708 9.20914 846.499 11 848.708 11Z" fill="white" stroke="#16D9AB" stroke-miterlimit="10"/>
<path d="M922.5 9C924.709 9 926.5 7.20914 926.5 5C926.5 2.79086 924.709 1 922.5 1C920.291 1 918.5 2.79086 918.5 5C918.5 7.20914 920.291 9 922.5 9Z" fill="white" stroke="#16D9AB" stroke-miterlimit="10"/>
<path d="M996.292 11C998.501 11 1000.29 9.20914 1000.29 7C1000.29 4.79086 998.501 3 996.292 3C994.083 3 992.292 4.79086 992.292 7C992.292 9.20914 994.083 11 996.292 11Z" fill="white" stroke="#16D9AB" stroke-miterlimit="10"/>
<path d="M1070.08 13C1072.29 13 1074.08 11.2091 1074.08 9C1074.08 6.79086 1072.29 5 1070.08 5C1067.87 5 1066.08 6.79086 1066.08 9C1066.08 11.2091 1067.87 13 1070.08 13Z" fill="white" stroke="#16D9AB" stroke-miterlimit="10"/>
<path d="M1143.88 13C1146.08 13 1147.88 11.2091 1147.88 9C1147.88 6.79086 1146.08 5 1143.88 5C1141.67 5 1139.88 6.79086 1139.88 9C1139.88 11.2091 1141.67 13 1143.88 13Z" fill="white" stroke="#16D9AB" stroke-miterlimit="10"/>
<path d="M1217.67 9C1219.88 9 1221.67 7.20914 1221.67 5C1221.67 2.79086 1219.88 1 1217.67 1C1215.46 1 1213.67 2.79086 1213.67 5C1213.67 7.20914 1215.46 9 1217.67 9Z" fill="white" stroke="#16D9AB" stroke-miterlimit="10"/>
<path d="M1291.46 11C1293.67 11 1295.46 9.20914 1295.46 7C1295.46 4.79086 1293.67 3 1291.46 3C1289.25 3 1287.46 4.79086 1287.46 7C1287.46 9.20914 1289.25 11 1291.46 11Z" fill="white" stroke="#16D9AB" stroke-miterlimit="10"/>
<path d="M1365.25 9C1367.46 9 1369.25 7.20914 1369.25 5C1369.25 2.79086 1367.46 1 1365.25 1C1363.04 1 1361.25 2.79086 1361.25 5C1361.25 7.20914 1363.04 9 1365.25 9Z" fill="white" stroke="#16D9AB" stroke-miterlimit="10"/>
<path d="M1439.04 9C1441.25 9 1443.04 7.20914 1443.04 5C1443.04 2.79086 1441.25 1 1439.04 1C1436.83 1 1435.04 2.79086 1435.04 5C1435.04 7.20914 1436.83 9 1439.04 9Z" fill="white" stroke="#16D9AB" stroke-miterlimit="10"/>
<path d="M1512.83 11C1515.04 11 1516.83 9.20914 1516.83 7C1516.83 4.79086 1515.04 3 1512.83 3C1510.62 3 1508.83 4.79086 1508.83 7C1508.83 9.20914 1510.62 11 1512.83 11Z" fill="white" stroke="#16D9AB" stroke-miterlimit="10"/>
<path d="M1586.62 9C1588.83 9 1590.62 7.20914 1590.62 5C1590.62 2.79086 1588.83 1 1586.62 1C1584.42 1 1582.62 2.79086 1582.62 5C1582.62 7.20914 1584.42 9 1586.62 9Z" fill="white" stroke="#16D9AB" stroke-miterlimit="10"/>
<path d="M1660.42 13C1662.63 13 1664.42 11.2091 1664.42 9C1664.42 6.79086 1662.63 5 1660.42 5C1658.21 5 1656.42 6.79086 1656.42 9C1656.42 11.2091 1658.21 13 1660.42 13Z" fill="white" stroke="#16D9AB" stroke-miterlimit="10"/>
<path d="M1734.21 13C1736.42 13 1738.21 11.2091 1738.21 9C1738.21 6.79086 1736.42 5 1734.21 5C1732 5 1730.21 6.79086 1730.21 9C1730.21 11.2091 1732 13 1734.21 13Z" fill="white" stroke="#16D9AB" stroke-miterlimit="10"/>
<path d="M1808 11C1810.21 11 1812 9.20914 1812 7C1812 4.79086 1810.21 3 1808 3C1805.79 3 1804 4.79086 1804 7C1804 9.20914 1805.79 11 1808 11Z" fill="white" stroke="#16D9AB" stroke-miterlimit="10"/>
<path d="M37 22.3335C39.2091 22.3335 41 20.5426 41 18.3335C41 16.1244 39.2091 14.3335 37 14.3335C34.7909 14.3335 33 16.1244 33 18.3335C33 20.5426 34.7909 22.3335 37 22.3335Z" fill="white" stroke="#00B8E6" stroke-miterlimit="10"/>
<path d="M110.792 24.3335C113.001 24.3335 114.792 22.5426 114.792 20.3335C114.792 18.1244 113.001 16.3335 110.792 16.3335C108.583 16.3335 106.792 18.1244 106.792 20.3335C106.792 22.5426 108.583 24.3335 110.792 24.3335Z" fill="white" stroke="#00B8E6" stroke-miterlimit="10"/>
<path d="M184.583 22.3335C186.792 22.3335 188.583 20.5426 188.583 18.3335C188.583 16.1244 186.792 14.3335 184.583 14.3335C182.374 14.3335 180.583 16.1244 180.583 18.3335C180.583 20.5426 182.374 22.3335 184.583 22.3335Z" fill="white" stroke="#00B8E6" stroke-miterlimit="10"/>
<path d="M258.375 26.3335C260.584 26.3335 262.375 24.5426 262.375 22.3335C262.375 20.1244 260.584 18.3335 258.375 18.3335C256.166 18.3335 254.375 20.1244 254.375 22.3335C254.375 24.5426 256.166 26.3335 258.375 26.3335Z" fill="white" stroke="#00B8E6" stroke-miterlimit="10"/>
<path d="M332.167 24.3335C334.376 24.3335 336.167 22.5426 336.167 20.3335C336.167 18.1244 334.376 16.3335 332.167 16.3335C329.958 16.3335 328.167 18.1244 328.167 20.3335C328.167 22.5426 329.958 24.3335 332.167 24.3335Z" fill="white" stroke="#00B8E6" stroke-miterlimit="10"/>
<path d="M405.958 26.3335C408.167 26.3335 409.958 24.5426 409.958 22.3335C409.958 20.1244 408.167 18.3335 405.958 18.3335C403.749 18.3335 401.958 20.1244 401.958 22.3335C401.958 24.5426 403.749 26.3335 405.958 26.3335Z" fill="white" stroke="#00B8E6" stroke-miterlimit="10"/>
<path d="M479.75 24.3335C481.959 24.3335 483.75 22.5426 483.75 20.3335C483.75 18.1244 481.959 16.3335 479.75 16.3335C477.541 16.3335 475.75 18.1244 475.75 20.3335C475.75 22.5426 477.541 24.3335 479.75 24.3335Z" fill="white" stroke="#00B8E6" stroke-miterlimit="10"/>
<path d="M553.542 22.3335C555.751 22.3335 557.542 20.5426 557.542 18.3335C557.542 16.1244 555.751 14.3335 553.542 14.3335C551.333 14.3335 549.542 16.1244 549.542 18.3335C549.542 20.5426 551.333 22.3335 553.542 22.3335Z" fill="white" stroke="#00B8E6" stroke-miterlimit="10"/>
<path d="M627.333 22.3335C629.542 22.3335 631.333 20.5426 631.333 18.3335C631.333 16.1244 629.542 14.3335 627.333 14.3335C625.124 14.3335 623.333 16.1244 623.333 18.3335C623.333 20.5426 625.124 22.3335 627.333 22.3335Z" fill="white" stroke="#00B8E6" stroke-miterlimit="10"/>
<path d="M701.125 26.3335C703.334 26.3335 705.125 24.5426 705.125 22.3335C705.125 20.1244 703.334 18.3335 701.125 18.3335C698.916 18.3335 697.125 20.1244 697.125 22.3335C697.125 24.5426 698.916 26.3335 701.125 26.3335Z" fill="white" stroke="#00B8E6" stroke-miterlimit="10"/>
<path d="M774.917 24.3335C777.126 24.3335 778.917 22.5426 778.917 20.3335C778.917 18.1244 777.126 16.3335 774.917 16.3335C772.708 16.3335 770.917 18.1244 770.917 20.3335C770.917 22.5426 772.708 24.3335 774.917 24.3335Z" fill="white" stroke="#00B8E6" stroke-miterlimit="10"/>
<path d="M848.708 26.3335C850.917 26.3335 852.708 24.5426 852.708 22.3335C852.708 20.1244 850.917 18.3335 848.708 18.3335C846.499 18.3335 844.708 20.1244 844.708 22.3335C844.708 24.5426 846.499 26.3335 848.708 26.3335Z" fill="white" stroke="#00B8E6" stroke-miterlimit="10"/>
<path d="M922.5 22.3335C924.709 22.3335 926.5 20.5426 926.5 18.3335C926.5 16.1244 924.709 14.3335 922.5 14.3335C920.291 14.3335 918.5 16.1244 918.5 18.3335C918.5 20.5426 920.291 22.3335 922.5 22.3335Z" fill="white" stroke="#00B8E6" stroke-miterlimit="10"/>
<path d="M996.292 24.3335C998.501 24.3335 1000.29 22.5426 1000.29 20.3335C1000.29 18.1244 998.501 16.3335 996.292 16.3335C994.083 16.3335 992.292 18.1244 992.292 20.3335C992.292 22.5426 994.083 24.3335 996.292 24.3335Z" fill="white" stroke="#00B8E6" stroke-miterlimit="10"/>
<path d="M1070.08 26.3335C1072.29 26.3335 1074.08 24.5426 1074.08 22.3335C1074.08 20.1244 1072.29 18.3335 1070.08 18.3335C1067.87 18.3335 1066.08 20.1244 1066.08 22.3335C1066.08 24.5426 1067.87 26.3335 1070.08 26.3335Z" fill="white" stroke="#00B8E6" stroke-miterlimit="10"/>
<path d="M1143.88 22.3335C1146.08 22.3335 1147.88 20.5426 1147.88 18.3335C1147.88 16.1244 1146.08 14.3335 1143.88 14.3335C1141.67 14.3335 1139.88 16.1244 1139.88 18.3335C1139.88 20.5426 1141.67 22.3335 1143.88 22.3335Z" fill="white" stroke="#00B8E6" stroke-miterlimit="10"/>
<path d="M1217.67 24.3335C1219.88 24.3335 1221.67 22.5426 1221.67 20.3335C1221.67 18.1244 1219.88 16.3335 1217.67 16.3335C1215.46 16.3335 1213.67 18.1244 1213.67 20.3335C1213.67 22.5426 1215.46 24.3335 1217.67 24.3335Z" fill="white" stroke="#00B8E6" stroke-miterlimit="10"/>
<path d="M1291.46 26.3335C1293.67 26.3335 1295.46 24.5426 1295.46 22.3335C1295.46 20.1244 1293.67 18.3335 1291.46 18.3335C1289.25 18.3335 1287.46 20.1244 1287.46 22.3335C1287.46 24.5426 1289.25 26.3335 1291.46 26.3335Z" fill="white" stroke="#00B8E6" stroke-miterlimit="10"/>
<path d="M1365.25 22.3335C1367.46 22.3335 1369.25 20.5426 1369.25 18.3335C1369.25 16.1244 1367.46 14.3335 1365.25 14.3335C1363.04 14.3335 1361.25 16.1244 1361.25 18.3335C1361.25 20.5426 1363.04 22.3335 1365.25 22.3335Z" fill="white" stroke="#00B8E6" stroke-miterlimit="10"/>
<path d="M1439.04 22.3335C1441.25 22.3335 1443.04 20.5426 1443.04 18.3335C1443.04 16.1244 1441.25 14.3335 1439.04 14.3335C1436.83 14.3335 1435.04 16.1244 1435.04 18.3335C1435.04 20.5426 1436.83 22.3335 1439.04 22.3335Z" fill="white" stroke="#00B8E6" stroke-miterlimit="10"/>
<path d="M1512.83 24.3335C1515.04 24.3335 1516.83 22.5426 1516.83 20.3335C1516.83 18.1244 1515.04 16.3335 1512.83 16.3335C1510.62 16.3335 1508.83 18.1244 1508.83 20.3335C1508.83 22.5426 1510.62 24.3335 1512.83 24.3335Z" fill="white" stroke="#00B8E6" stroke-miterlimit="10"/>
<path d="M1586.62 26.3335C1588.83 26.3335 1590.62 24.5426 1590.62 22.3335C1590.62 20.1244 1588.83 18.3335 1586.62 18.3335C1584.42 18.3335 1582.62 20.1244 1582.62 22.3335C1582.62 24.5426 1584.42 26.3335 1586.62 26.3335Z" fill="white" stroke="#00B8E6" stroke-miterlimit="10"/>
<path d="M1660.42 22.3335C1662.63 22.3335 1664.42 20.5426 1664.42 18.3335C1664.42 16.1244 1662.63 14.3335 1660.42 14.3335C1658.21 14.3335 1656.42 16.1244 1656.42 18.3335C1656.42 20.5426 1658.21 22.3335 1660.42 22.3335Z" fill="white" stroke="#00B8E6" stroke-miterlimit="10"/>
<path d="M1734.21 24.3335C1736.42 24.3335 1738.21 22.5426 1738.21 20.3335C1738.21 18.1244 1736.42 16.3335 1734.21 16.3335C1732 16.3335 1730.21 18.1244 1730.21 20.3335C1730.21 22.5426 1732 24.3335 1734.21 24.3335Z" fill="white" stroke="#00B8E6" stroke-miterlimit="10"/>
<path d="M1808 26.3335C1810.21 26.3335 1812 24.5426 1812 22.3335C1812 20.1244 1810.21 18.3335 1808 18.3335C1805.79 18.3335 1804 20.1244 1804 22.3335C1804 24.5426 1805.79 26.3335 1808 26.3335Z" fill="white" stroke="#00B8E6" stroke-miterlimit="10"/>
<path d="M37 35.7666C39.2091 35.7666 41 33.9757 41 31.7666C41 29.5575 39.2091 27.7666 37 27.7666C34.7909 27.7666 33 29.5575 33 31.7666C33 33.9757 34.7909 35.7666 37 35.7666Z" fill="white" stroke="#0068E6" stroke-miterlimit="10"/>
<path d="M110.792 37.7666C113.001 37.7666 114.792 35.9757 114.792 33.7666C114.792 31.5575 113.001 29.7666 110.792 29.7666C108.583 29.7666 106.792 31.5575 106.792 33.7666C106.792 35.9757 108.583 37.7666 110.792 37.7666Z" fill="white" stroke="#0068E6" stroke-miterlimit="10"/>
<path d="M184.583 35.7666C186.792 35.7666 188.583 33.9757 188.583 31.7666C188.583 29.5575 186.792 27.7666 184.583 27.7666C182.374 27.7666 180.583 29.5575 180.583 31.7666C180.583 33.9757 182.374 35.7666 184.583 35.7666Z" fill="white" stroke="#0068E6" stroke-miterlimit="10"/>
<path d="M258.375 39.7666C260.584 39.7666 262.375 37.9757 262.375 35.7666C262.375 33.5575 260.584 31.7666 258.375 31.7666C256.166 31.7666 254.375 33.5575 254.375 35.7666C254.375 37.9757 256.166 39.7666 258.375 39.7666Z" fill="white" stroke="#0068E6" stroke-miterlimit="10"/>
<path d="M332.167 37.7666C334.376 37.7666 336.167 35.9757 336.167 33.7666C336.167 31.5575 334.376 29.7666 332.167 29.7666C329.958 29.7666 328.167 31.5575 328.167 33.7666C328.167 35.9757 329.958 37.7666 332.167 37.7666Z" fill="white" stroke="#0068E6" stroke-miterlimit="10"/>
<path d="M405.958 39.7666C408.167 39.7666 409.958 37.9757 409.958 35.7666C409.958 33.5575 408.167 31.7666 405.958 31.7666C403.749 31.7666 401.958 33.5575 401.958 35.7666C401.958 37.9757 403.749 39.7666 405.958 39.7666Z" fill="white" stroke="#0068E6" stroke-miterlimit="10"/>
<path d="M479.75 37.7666C481.959 37.7666 483.75 35.9757 483.75 33.7666C483.75 31.5575 481.959 29.7666 479.75 29.7666C477.541 29.7666 475.75 31.5575 475.75 33.7666C475.75 35.9757 477.541 37.7666 479.75 37.7666Z" fill="white" stroke="#0068E6" stroke-miterlimit="10"/>
<path d="M553.542 35.7666C555.751 35.7666 557.542 33.9757 557.542 31.7666C557.542 29.5575 555.751 27.7666 553.542 27.7666C551.333 27.7666 549.542 29.5575 549.542 31.7666C549.542 33.9757 551.333 35.7666 553.542 35.7666Z" fill="white" stroke="#0068E6" stroke-miterlimit="10"/>
<path d="M627.333 35.7666C629.542 35.7666 631.333 33.9757 631.333 31.7666C631.333 29.5575 629.542 27.7666 627.333 27.7666C625.124 27.7666 623.333 29.5575 623.333 31.7666C623.333 33.9757 625.124 35.7666 627.333 35.7666Z" fill="white" stroke="#0068E6" stroke-miterlimit="10"/>
<path d="M701.125 39.7666C703.334 39.7666 705.125 37.9757 705.125 35.7666C705.125 33.5575 703.334 31.7666 701.125 31.7666C698.916 31.7666 697.125 33.5575 697.125 35.7666C697.125 37.9757 698.916 39.7666 701.125 39.7666Z" fill="white" stroke="#0068E6" stroke-miterlimit="10"/>
<path d="M774.917 37.7666C777.126 37.7666 778.917 35.9757 778.917 33.7666C778.917 31.5575 777.126 29.7666 774.917 29.7666C772.708 29.7666 770.917 31.5575 770.917 33.7666C770.917 35.9757 772.708 37.7666 774.917 37.7666Z" fill="white" stroke="#0068E6" stroke-miterlimit="10"/>
<path d="M848.708 39.7666C850.917 39.7666 852.708 37.9757 852.708 35.7666C852.708 33.5575 850.917 31.7666 848.708 31.7666C846.499 31.7666 844.708 33.5575 844.708 35.7666C844.708 37.9757 846.499 39.7666 848.708 39.7666Z" fill="white" stroke="#0068E6" stroke-miterlimit="10"/>
<path d="M922.5 35.7666C924.709 35.7666 926.5 33.9757 926.5 31.7666C926.5 29.5575 924.709 27.7666 922.5 27.7666C920.291 27.7666 918.5 29.5575 918.5 31.7666C918.5 33.9757 920.291 35.7666 922.5 35.7666Z" fill="white" stroke="#0068E6" stroke-miterlimit="10"/>
<path d="M996.292 37.7666C998.501 37.7666 1000.29 35.9757 1000.29 33.7666C1000.29 31.5575 998.501 29.7666 996.292 29.7666C994.083 29.7666 992.292 31.5575 992.292 33.7666C992.292 35.9757 994.083 37.7666 996.292 37.7666Z" fill="white" stroke="#0068E6" stroke-miterlimit="10"/>
<path d="M1070.08 39.7666C1072.29 39.7666 1074.08 37.9757 1074.08 35.7666C1074.08 33.5575 1072.29 31.7666 1070.08 31.7666C1067.87 31.7666 1066.08 33.5575 1066.08 35.7666C1066.08 37.9757 1067.87 39.7666 1070.08 39.7666Z" fill="white" stroke="#0068E6" stroke-miterlimit="10"/>
<path d="M1143.88 35.7666C1146.08 35.7666 1147.88 33.9757 1147.88 31.7666C1147.88 29.5575 1146.08 27.7666 1143.88 27.7666C1141.67 27.7666 1139.88 29.5575 1139.88 31.7666C1139.88 33.9757 1141.67 35.7666 1143.88 35.7666Z" fill="white" stroke="#0068E6" stroke-miterlimit="10"/>
<path d="M1217.67 37.7666C1219.88 37.7666 1221.67 35.9757 1221.67 33.7666C1221.67 31.5575 1219.88 29.7666 1217.67 29.7666C1215.46 29.7666 1213.67 31.5575 1213.67 33.7666C1213.67 35.9757 1215.46 37.7666 1217.67 37.7666Z" fill="white" stroke="#0068E6" stroke-miterlimit="10"/>
<path d="M1291.46 39.7666C1293.67 39.7666 1295.46 37.9757 1295.46 35.7666C1295.46 33.5575 1293.67 31.7666 1291.46 31.7666C1289.25 31.7666 1287.46 33.5575 1287.46 35.7666C1287.46 37.9757 1289.25 39.7666 1291.46 39.7666Z" fill="white" stroke="#0068E6" stroke-miterlimit="10"/>
<path d="M1365.25 35.7666C1367.46 35.7666 1369.25 33.9757 1369.25 31.7666C1369.25 29.5575 1367.46 27.7666 1365.25 27.7666C1363.04 27.7666 1361.25 29.5575 1361.25 31.7666C1361.25 33.9757 1363.04 35.7666 1365.25 35.7666Z" fill="white" stroke="#0068E6" stroke-miterlimit="10"/>
<path d="M1439.04 35.7666C1441.25 35.7666 1443.04 33.9757 1443.04 31.7666C1443.04 29.5575 1441.25 27.7666 1439.04 27.7666C1436.83 27.7666 1435.04 29.5575 1435.04 31.7666C1435.04 33.9757 1436.83 35.7666 1439.04 35.7666Z" fill="white" stroke="#0068E6" stroke-miterlimit="10"/>
<path d="M1512.83 37.7666C1515.04 37.7666 1516.83 35.9757 1516.83 33.7666C1516.83 31.5575 1515.04 29.7666 1512.83 29.7666C1510.62 29.7666 1508.83 31.5575 1508.83 33.7666C1508.83 35.9757 1510.62 37.7666 1512.83 37.7666Z" fill="white" stroke="#0068E6" stroke-miterlimit="10"/>
<path d="M1586.62 39.7666C1588.83 39.7666 1590.62 37.9757 1590.62 35.7666C1590.62 33.5575 1588.83 31.7666 1586.62 31.7666C1584.42 31.7666 1582.62 33.5575 1582.62 35.7666C1582.62 37.9757 1584.42 39.7666 1586.62 39.7666Z" fill="white" stroke="#0068E6" stroke-miterlimit="10"/>
<path d="M1660.42 35.7666C1662.63 35.7666 1664.42 33.9757 1664.42 31.7666C1664.42 29.5575 1662.63 27.7666 1660.42 27.7666C1658.21 27.7666 1656.42 29.5575 1656.42 31.7666C1656.42 33.9757 1658.21 35.7666 1660.42 35.7666Z" fill="white" stroke="#0068E6" stroke-miterlimit="10"/>
<path d="M1734.21 37.7666C1736.42 37.7666 1738.21 35.9757 1738.21 33.7666C1738.21 31.5575 1736.42 29.7666 1734.21 29.7666C1732 29.7666 1730.21 31.5575 1730.21 33.7666C1730.21 35.9757 1732 37.7666 1734.21 37.7666Z" fill="white" stroke="#0068E6" stroke-miterlimit="10"/>
<path d="M1808 39.7666C1810.21 39.7666 1812 37.9757 1812 35.7666C1812 33.5575 1810.21 31.7666 1808 31.7666C1805.79 31.7666 1804 33.5575 1804 35.7666C1804 37.9757 1805.79 39.7666 1808 39.7666Z" fill="white" stroke="#0068E6" stroke-miterlimit="10"/>
<path d="M37 49.2002C39.2091 49.2002 41 47.4093 41 45.2002C41 42.9911 39.2091 41.2002 37 41.2002C34.7909 41.2002 33 42.9911 33 45.2002C33 47.4093 34.7909 49.2002 37 49.2002Z" fill="white" stroke="#114FE8" stroke-miterlimit="10"/>
<path d="M110.792 51.2002C113.001 51.2002 114.792 49.4093 114.792 47.2002C114.792 44.9911 113.001 43.2002 110.792 43.2002C108.583 43.2002 106.792 44.9911 106.792 47.2002C106.792 49.4093 108.583 51.2002 110.792 51.2002Z" fill="white" stroke="#114FE8" stroke-miterlimit="10"/>
<path d="M184.583 53.2002C186.792 53.2002 188.583 51.4093 188.583 49.2002C188.583 46.9911 186.792 45.2002 184.583 45.2002C182.374 45.2002 180.583 46.9911 180.583 49.2002C180.583 51.4093 182.374 53.2002 184.583 53.2002Z" fill="white" stroke="#114FE8" stroke-miterlimit="10"/>
<path d="M258.375 49.2002C260.584 49.2002 262.375 47.4093 262.375 45.2002C262.375 42.9911 260.584 41.2002 258.375 41.2002C256.166 41.2002 254.375 42.9911 254.375 45.2002C254.375 47.4093 256.166 49.2002 258.375 49.2002Z" fill="white" stroke="#114FE8" stroke-miterlimit="10"/>
<path d="M332.167 51.2002C334.376 51.2002 336.167 49.4093 336.167 47.2002C336.167 44.9911 334.376 43.2002 332.167 43.2002C329.958 43.2002 328.167 44.9911 328.167 47.2002C328.167 49.4093 329.958 51.2002 332.167 51.2002Z" fill="white" stroke="#114FE8" stroke-miterlimit="10"/>
<path d="M405.958 53.2002C408.167 53.2002 409.958 51.4093 409.958 49.2002C409.958 46.9911 408.167 45.2002 405.958 45.2002C403.749 45.2002 401.958 46.9911 401.958 49.2002C401.958 51.4093 403.749 53.2002 405.958 53.2002Z" fill="white" stroke="#114FE8" stroke-miterlimit="10"/>
<path d="M479.75 49.2002C481.959 49.2002 483.75 47.4093 483.75 45.2002C483.75 42.9911 481.959 41.2002 479.75 41.2002C477.541 41.2002 475.75 42.9911 475.75 45.2002C475.75 47.4093 477.541 49.2002 479.75 49.2002Z" fill="white" stroke="#114FE8" stroke-miterlimit="10"/>
<path d="M553.542 51.2002C555.751 51.2002 557.542 49.4093 557.542 47.2002C557.542 44.9911 555.751 43.2002 553.542 43.2002C551.333 43.2002 549.542 44.9911 549.542 47.2002C549.542 49.4093 551.333 51.2002 553.542 51.2002Z" fill="white" stroke="#114FE8" stroke-miterlimit="10"/>
<path d="M627.333 53.2002C629.542 53.2002 631.333 51.4093 631.333 49.2002C631.333 46.9911 629.542 45.2002 627.333 45.2002C625.124 45.2002 623.333 46.9911 623.333 49.2002C623.333 51.4093 625.124 53.2002 627.333 53.2002Z" fill="white" stroke="#114FE8" stroke-miterlimit="10"/>
<path d="M701.125 49.2002C703.334 49.2002 705.125 47.4093 705.125 45.2002C705.125 42.9911 703.334 41.2002 701.125 41.2002C698.916 41.2002 697.125 42.9911 697.125 45.2002C697.125 47.4093 698.916 49.2002 701.125 49.2002Z" fill="white" stroke="#114FE8" stroke-miterlimit="10"/>
<path d="M774.917 51.2002C777.126 51.2002 778.917 49.4093 778.917 47.2002C778.917 44.9911 777.126 43.2002 774.917 43.2002C772.708 43.2002 770.917 44.9911 770.917 47.2002C770.917 49.4093 772.708 51.2002 774.917 51.2002Z" fill="white" stroke="#114FE8" stroke-miterlimit="10"/>
<path d="M848.708 53.2002C850.917 53.2002 852.708 51.4093 852.708 49.2002C852.708 46.9911 850.917 45.2002 848.708 45.2002C846.499 45.2002 844.708 46.9911 844.708 49.2002C844.708 51.4093 846.499 53.2002 848.708 53.2002Z" fill="white" stroke="#114FE8" stroke-miterlimit="10"/>
<path d="M922.5 49.2002C924.709 49.2002 926.5 47.4093 926.5 45.2002C926.5 42.9911 924.709 41.2002 922.5 41.2002C920.291 41.2002 918.5 42.9911 918.5 45.2002C918.5 47.4093 920.291 49.2002 922.5 49.2002Z" fill="white" stroke="#114FE8" stroke-miterlimit="10"/>
<path d="M996.292 51.2002C998.501 51.2002 1000.29 49.4093 1000.29 47.2002C1000.29 44.9911 998.501 43.2002 996.292 43.2002C994.083 43.2002 992.292 44.9911 992.292 47.2002C992.292 49.4093 994.083 51.2002 996.292 51.2002Z" fill="white" stroke="#114FE8" stroke-miterlimit="10"/>
<path d="M1070.08 53.2002C1072.29 53.2002 1074.08 51.4093 1074.08 49.2002C1074.08 46.9911 1072.29 45.2002 1070.08 45.2002C1067.87 45.2002 1066.08 46.9911 1066.08 49.2002C1066.08 51.4093 1067.87 53.2002 1070.08 53.2002Z" fill="white" stroke="#114FE8" stroke-miterlimit="10"/>
<path d="M1143.88 49.2002C1146.08 49.2002 1147.88 47.4093 1147.88 45.2002C1147.88 42.9911 1146.08 41.2002 1143.88 41.2002C1141.67 41.2002 1139.88 42.9911 1139.88 45.2002C1139.88 47.4093 1141.67 49.2002 1143.88 49.2002Z" fill="white" stroke="#114FE8" stroke-miterlimit="10"/>
<path d="M1217.67 51.2002C1219.88 51.2002 1221.67 49.4093 1221.67 47.2002C1221.67 44.9911 1219.88 43.2002 1217.67 43.2002C1215.46 43.2002 1213.67 44.9911 1213.67 47.2002C1213.67 49.4093 1215.46 51.2002 1217.67 51.2002Z" fill="white" stroke="#114FE8" stroke-miterlimit="10"/>
<path d="M1291.46 53.2002C1293.67 53.2002 1295.46 51.4093 1295.46 49.2002C1295.46 46.9911 1293.67 45.2002 1291.46 45.2002C1289.25 45.2002 1287.46 46.9911 1287.46 49.2002C1287.46 51.4093 1289.25 53.2002 1291.46 53.2002Z" fill="white" stroke="#114FE8" stroke-miterlimit="10"/>
<path d="M1365.25 49.2002C1367.46 49.2002 1369.25 47.4093 1369.25 45.2002C1369.25 42.9911 1367.46 41.2002 1365.25 41.2002C1363.04 41.2002 1361.25 42.9911 1361.25 45.2002C1361.25 47.4093 1363.04 49.2002 1365.25 49.2002Z" fill="white" stroke="#114FE8" stroke-miterlimit="10"/>
<path d="M1439.04 49.2002C1441.25 49.2002 1443.04 47.4093 1443.04 45.2002C1443.04 42.9911 1441.25 41.2002 1439.04 41.2002C1436.83 41.2002 1435.04 42.9911 1435.04 45.2002C1435.04 47.4093 1436.83 49.2002 1439.04 49.2002Z" fill="white" stroke="#114FE8" stroke-miterlimit="10"/>
<path d="M1512.83 51.2002C1515.04 51.2002 1516.83 49.4093 1516.83 47.2002C1516.83 44.9911 1515.04 43.2002 1512.83 43.2002C1510.62 43.2002 1508.83 44.9911 1508.83 47.2002C1508.83 49.4093 1510.62 51.2002 1512.83 51.2002Z" fill="white" stroke="#114FE8" stroke-miterlimit="10"/>
<path d="M1586.62 53.2002C1588.83 53.2002 1590.62 51.4093 1590.62 49.2002C1590.62 46.9911 1588.83 45.2002 1586.62 45.2002C1584.42 45.2002 1582.62 46.9911 1582.62 49.2002C1582.62 51.4093 1584.42 53.2002 1586.62 53.2002Z" fill="white" stroke="#114FE8" stroke-miterlimit="10"/>
<path d="M1660.42 49.2002C1662.63 49.2002 1664.42 47.4093 1664.42 45.2002C1664.42 42.9911 1662.63 41.2002 1660.42 41.2002C1658.21 41.2002 1656.42 42.9911 1656.42 45.2002C1656.42 47.4093 1658.21 49.2002 1660.42 49.2002Z" fill="white" stroke="#114FE8" stroke-miterlimit="10"/>
<path d="M1734.21 51.2002C1736.42 51.2002 1738.21 49.4093 1738.21 47.2002C1738.21 44.9911 1736.42 43.2002 1734.21 43.2002C1732 43.2002 1730.21 44.9911 1730.21 47.2002C1730.21 49.4093 1732 51.2002 1734.21 51.2002Z" fill="white" stroke="#114FE8" stroke-miterlimit="10"/>
<path d="M1808 53.2002C1810.21 53.2002 1812 51.4093 1812 49.2002C1812 46.9911 1810.21 45.2002 1808 45.2002C1805.79 45.2002 1804 46.9911 1804 49.2002C1804 51.4093 1805.79 53.2002 1808 53.2002Z" fill="white" stroke="#114FE8" stroke-miterlimit="10"/>
<path d="M37 62.6333C39.2091 62.6333 41 60.8424 41 58.6333C41 56.4242 39.2091 54.6333 37 54.6333C34.7909 54.6333 33 56.4242 33 58.6333C33 60.8424 34.7909 62.6333 37 62.6333Z" fill="white" stroke="#6440F5" stroke-miterlimit="10"/>
<path d="M110.792 64.6333C113.001 64.6333 114.792 62.8424 114.792 60.6333C114.792 58.4242 113.001 56.6333 110.792 56.6333C108.583 56.6333 106.792 58.4242 106.792 60.6333C106.792 62.8424 108.583 64.6333 110.792 64.6333Z" fill="white" stroke="#6440F5" stroke-miterlimit="10"/>
<path d="M184.583 62.6333C186.792 62.6333 188.583 60.8424 188.583 58.6333C188.583 56.4242 186.792 54.6333 184.583 54.6333C182.374 54.6333 180.583 56.4242 180.583 58.6333C180.583 60.8424 182.374 62.6333 184.583 62.6333Z" fill="white" stroke="#6440F5" stroke-miterlimit="10"/>
<path d="M258.375 66.6333C260.584 66.6333 262.375 64.8424 262.375 62.6333C262.375 60.4242 260.584 58.6333 258.375 58.6333C256.166 58.6333 254.375 60.4242 254.375 62.6333C254.375 64.8424 256.166 66.6333 258.375 66.6333Z" fill="white" stroke="#6440F5" stroke-miterlimit="10"/>
<path d="M332.167 64.6333C334.376 64.6333 336.167 62.8424 336.167 60.6333C336.167 58.4242 334.376 56.6333 332.167 56.6333C329.958 56.6333 328.167 58.4242 328.167 60.6333C328.167 62.8424 329.958 64.6333 332.167 64.6333Z" fill="white" stroke="#6440F5" stroke-miterlimit="10"/>
<path d="M405.958 66.6333C408.167 66.6333 409.958 64.8424 409.958 62.6333C409.958 60.4242 408.167 58.6333 405.958 58.6333C403.749 58.6333 401.958 60.4242 401.958 62.6333C401.958 64.8424 403.749 66.6333 405.958 66.6333Z" fill="white" stroke="#6440F5" stroke-miterlimit="10"/>
<path d="M479.75 64.6333C481.959 64.6333 483.75 62.8424 483.75 60.6333C483.75 58.4242 481.959 56.6333 479.75 56.6333C477.541 56.6333 475.75 58.4242 475.75 60.6333C475.75 62.8424 477.541 64.6333 479.75 64.6333Z" fill="white" stroke="#6440F5" stroke-miterlimit="10"/>
<path d="M553.542 62.6333C555.751 62.6333 557.542 60.8424 557.542 58.6333C557.542 56.4242 555.751 54.6333 553.542 54.6333C551.333 54.6333 549.542 56.4242 549.542 58.6333C549.542 60.8424 551.333 62.6333 553.542 62.6333Z" fill="white" stroke="#6440F5" stroke-miterlimit="10"/>
<path d="M627.333 62.6333C629.542 62.6333 631.333 60.8424 631.333 58.6333C631.333 56.4242 629.542 54.6333 627.333 54.6333C625.124 54.6333 623.333 56.4242 623.333 58.6333C623.333 60.8424 625.124 62.6333 627.333 62.6333Z" fill="white" stroke="#6440F5" stroke-miterlimit="10"/>
<path d="M701.125 66.6333C703.334 66.6333 705.125 64.8424 705.125 62.6333C705.125 60.4242 703.334 58.6333 701.125 58.6333C698.916 58.6333 697.125 60.4242 697.125 62.6333C697.125 64.8424 698.916 66.6333 701.125 66.6333Z" fill="white" stroke="#6440F5" stroke-miterlimit="10"/>
<path d="M774.917 64.6333C777.126 64.6333 778.917 62.8424 778.917 60.6333C778.917 58.4242 777.126 56.6333 774.917 56.6333C772.708 56.6333 770.917 58.4242 770.917 60.6333C770.917 62.8424 772.708 64.6333 774.917 64.6333Z" fill="white" stroke="#6440F5" stroke-miterlimit="10"/>
<path d="M848.708 66.6333C850.917 66.6333 852.708 64.8424 852.708 62.6333C852.708 60.4242 850.917 58.6333 848.708 58.6333C846.499 58.6333 844.708 60.4242 844.708 62.6333C844.708 64.8424 846.499 66.6333 848.708 66.6333Z" fill="white" stroke="#6440F5" stroke-miterlimit="10"/>
<path d="M922.5 62.6333C924.709 62.6333 926.5 60.8424 926.5 58.6333C926.5 56.4242 924.709 54.6333 922.5 54.6333C920.291 54.6333 918.5 56.4242 918.5 58.6333C918.5 60.8424 920.291 62.6333 922.5 62.6333Z" fill="white" stroke="#6440F5" stroke-miterlimit="10"/>
<path d="M996.292 64.6333C998.501 64.6333 1000.29 62.8424 1000.29 60.6333C1000.29 58.4242 998.501 56.6333 996.292 56.6333C994.083 56.6333 992.292 58.4242 992.292 60.6333C992.292 62.8424 994.083 64.6333 996.292 64.6333Z" fill="white" stroke="#6440F5" stroke-miterlimit="10"/>
<path d="M1070.08 66.6333C1072.29 66.6333 1074.08 64.8424 1074.08 62.6333C1074.08 60.4242 1072.29 58.6333 1070.08 58.6333C1067.87 58.6333 1066.08 60.4242 1066.08 62.6333C1066.08 64.8424 1067.87 66.6333 1070.08 66.6333Z" fill="white" stroke="#6440F5" stroke-miterlimit="10"/>
<path d="M1143.88 62.6333C1146.08 62.6333 1147.88 60.8424 1147.88 58.6333C1147.88 56.4242 1146.08 54.6333 1143.88 54.6333C1141.67 54.6333 1139.88 56.4242 1139.88 58.6333C1139.88 60.8424 1141.67 62.6333 1143.88 62.6333Z" fill="white" stroke="#6440F5" stroke-miterlimit="10"/>
<path d="M1217.67 64.6333C1219.88 64.6333 1221.67 62.8424 1221.67 60.6333C1221.67 58.4242 1219.88 56.6333 1217.67 56.6333C1215.46 56.6333 1213.67 58.4242 1213.67 60.6333C1213.67 62.8424 1215.46 64.6333 1217.67 64.6333Z" fill="white" stroke="#6440F5" stroke-miterlimit="10"/>
<path d="M1291.46 66.6333C1293.67 66.6333 1295.46 64.8424 1295.46 62.6333C1295.46 60.4242 1293.67 58.6333 1291.46 58.6333C1289.25 58.6333 1287.46 60.4242 1287.46 62.6333C1287.46 64.8424 1289.25 66.6333 1291.46 66.6333Z" fill="white" stroke="#6440F5" stroke-miterlimit="10"/>
<path d="M1365.25 62.6333C1367.46 62.6333 1369.25 60.8424 1369.25 58.6333C1369.25 56.4242 1367.46 54.6333 1365.25 54.6333C1363.04 54.6333 1361.25 56.4242 1361.25 58.6333C1361.25 60.8424 1363.04 62.6333 1365.25 62.6333Z" fill="white" stroke="#6440F5" stroke-miterlimit="10"/>
<path d="M1439.04 62.6333C1441.25 62.6333 1443.04 60.8424 1443.04 58.6333C1443.04 56.4242 1441.25 54.6333 1439.04 54.6333C1436.83 54.6333 1435.04 56.4242 1435.04 58.6333C1435.04 60.8424 1436.83 62.6333 1439.04 62.6333Z" fill="white" stroke="#6440F5" stroke-miterlimit="10"/>
<path d="M1512.83 64.6333C1515.04 64.6333 1516.83 62.8424 1516.83 60.6333C1516.83 58.4242 1515.04 56.6333 1512.83 56.6333C1510.62 56.6333 1508.83 58.4242 1508.83 60.6333C1508.83 62.8424 1510.62 64.6333 1512.83 64.6333Z" fill="white" stroke="#6440F5" stroke-miterlimit="10"/>
<path d="M1586.62 66.6333C1588.83 66.6333 1590.62 64.8424 1590.62 62.6333C1590.62 60.4242 1588.83 58.6333 1586.62 58.6333C1584.42 58.6333 1582.62 60.4242 1582.62 62.6333C1582.62 64.8424 1584.42 66.6333 1586.62 66.6333Z" fill="white" stroke="#6440F5" stroke-miterlimit="10"/>
<path d="M1660.42 62.6333C1662.63 62.6333 1664.42 60.8424 1664.42 58.6333C1664.42 56.4242 1662.63 54.6333 1660.42 54.6333C1658.21 54.6333 1656.42 56.4242 1656.42 58.6333C1656.42 60.8424 1658.21 62.6333 1660.42 62.6333Z" fill="white" stroke="#6440F5" stroke-miterlimit="10"/>
<path d="M1734.21 64.6333C1736.42 64.6333 1738.21 62.8424 1738.21 60.6333C1738.21 58.4242 1736.42 56.6333 1734.21 56.6333C1732 56.6333 1730.21 58.4242 1730.21 60.6333C1730.21 62.8424 1732 64.6333 1734.21 64.6333Z" fill="white" stroke="#6440F5" stroke-miterlimit="10"/>
<path d="M1808 66.6333C1810.21 66.6333 1812 64.8424 1812 62.6333C1812 60.4242 1810.21 58.6333 1808 58.6333C1805.79 58.6333 1804 60.4242 1804 62.6333C1804 64.8424 1805.79 66.6333 1808 66.6333Z" fill="white" stroke="#6440F5" stroke-miterlimit="10"/>
<path d="M37 76.0669C39.2091 76.0669 41 74.276 41 72.0669C41 69.8578 39.2091 68.0669 37 68.0669C34.7909 68.0669 33 69.8578 33 72.0669C33 74.276 34.7909 76.0669 37 76.0669Z" fill="white" stroke="#7451FE" stroke-miterlimit="10"/>
<path d="M110.792 78.0669C113.001 78.0669 114.792 76.276 114.792 74.0669C114.792 71.8578 113.001 70.0669 110.792 70.0669C108.583 70.0669 106.792 71.8578 106.792 74.0669C106.792 76.276 108.583 78.0669 110.792 78.0669Z" fill="white" stroke="#7451FE" stroke-miterlimit="10"/>
<path d="M184.583 80.0669C186.792 80.0669 188.583 78.276 188.583 76.0669C188.583 73.8578 186.792 72.0669 184.583 72.0669C182.374 72.0669 180.583 73.8578 180.583 76.0669C180.583 78.276 182.374 80.0669 184.583 80.0669Z" fill="white" stroke="#7451FE" stroke-miterlimit="10"/>
<path d="M258.375 76.0669C260.584 76.0669 262.375 74.276 262.375 72.0669C262.375 69.8578 260.584 68.0669 258.375 68.0669C256.166 68.0669 254.375 69.8578 254.375 72.0669C254.375 74.276 256.166 76.0669 258.375 76.0669Z" fill="white" stroke="#7451FE" stroke-miterlimit="10"/>
<path d="M332.167 78.0669C334.376 78.0669 336.167 76.276 336.167 74.0669C336.167 71.8578 334.376 70.0669 332.167 70.0669C329.958 70.0669 328.167 71.8578 328.167 74.0669C328.167 76.276 329.958 78.0669 332.167 78.0669Z" fill="white" stroke="#7451FE" stroke-miterlimit="10"/>
<path d="M405.958 76.0669C408.167 76.0669 409.958 74.276 409.958 72.0669C409.958 69.8578 408.167 68.0669 405.958 68.0669C403.749 68.0669 401.958 69.8578 401.958 72.0669C401.958 74.276 403.749 76.0669 405.958 76.0669Z" fill="white" stroke="#7451FE" stroke-miterlimit="10"/>
<path d="M479.75 80.0669C481.959 80.0669 483.75 78.276 483.75 76.0669C483.75 73.8578 481.959 72.0669 479.75 72.0669C477.541 72.0669 475.75 73.8578 475.75 76.0669C475.75 78.276 477.541 80.0669 479.75 80.0669Z" fill="white" stroke="#7451FE" stroke-miterlimit="10"/>
<path d="M553.542 78.0669C555.751 78.0669 557.542 76.276 557.542 74.0669C557.542 71.8578 555.751 70.0669 553.542 70.0669C551.333 70.0669 549.542 71.8578 549.542 74.0669C549.542 76.276 551.333 78.0669 553.542 78.0669Z" fill="white" stroke="#7451FE" stroke-miterlimit="10"/>
<path d="M627.333 80.0669C629.542 80.0669 631.333 78.276 631.333 76.0669C631.333 73.8578 629.542 72.0669 627.333 72.0669C625.124 72.0669 623.333 73.8578 623.333 76.0669C623.333 78.276 625.124 80.0669 627.333 80.0669Z" fill="white" stroke="#7451FE" stroke-miterlimit="10"/>
<path d="M701.125 80.0669C703.334 80.0669 705.125 78.276 705.125 76.0669C705.125 73.8578 703.334 72.0669 701.125 72.0669C698.916 72.0669 697.125 73.8578 697.125 76.0669C697.125 78.276 698.916 80.0669 701.125 80.0669Z" fill="white" stroke="#7451FE" stroke-miterlimit="10"/>
<path d="M774.917 76.0669C777.126 76.0669 778.917 74.276 778.917 72.0669C778.917 69.8578 777.126 68.0669 774.917 68.0669C772.708 68.0669 770.917 69.8578 770.917 72.0669C770.917 74.276 772.708 76.0669 774.917 76.0669Z" fill="white" stroke="#7451FE" stroke-miterlimit="10"/>
<path d="M848.708 78.0669C850.917 78.0669 852.708 76.276 852.708 74.0669C852.708 71.8578 850.917 70.0669 848.708 70.0669C846.499 70.0669 844.708 71.8578 844.708 74.0669C844.708 76.276 846.499 78.0669 848.708 78.0669Z" fill="white" stroke="#7451FE" stroke-miterlimit="10"/>
<path d="M922.5 76.0669C924.709 76.0669 926.5 74.276 926.5 72.0669C926.5 69.8578 924.709 68.0669 922.5 68.0669C920.291 68.0669 918.5 69.8578 918.5 72.0669C918.5 74.276 920.291 76.0669 922.5 76.0669Z" fill="white" stroke="#7451FE" stroke-miterlimit="10"/>
<path d="M996.292 78.0669C998.501 78.0669 1000.29 76.276 1000.29 74.0669C1000.29 71.8578 998.501 70.0669 996.292 70.0669C994.083 70.0669 992.292 71.8578 992.292 74.0669C992.292 76.276 994.083 78.0669 996.292 78.0669Z" fill="white" stroke="#7451FE" stroke-miterlimit="10"/>
<path d="M1070.08 80.0669C1072.29 80.0669 1074.08 78.276 1074.08 76.0669C1074.08 73.8578 1072.29 72.0669 1070.08 72.0669C1067.87 72.0669 1066.08 73.8578 1066.08 76.0669C1066.08 78.276 1067.87 80.0669 1070.08 80.0669Z" fill="white" stroke="#7451FE" stroke-miterlimit="10"/>
<path d="M1143.88 80.0669C1146.08 80.0669 1147.88 78.276 1147.88 76.0669C1147.88 73.8578 1146.08 72.0669 1143.88 72.0669C1141.67 72.0669 1139.88 73.8578 1139.88 76.0669C1139.88 78.276 1141.67 80.0669 1143.88 80.0669Z" fill="white" stroke="#7451FE" stroke-miterlimit="10"/>
<path d="M1217.67 76.0669C1219.88 76.0669 1221.67 74.276 1221.67 72.0669C1221.67 69.8578 1219.88 68.0669 1217.67 68.0669C1215.46 68.0669 1213.67 69.8578 1213.67 72.0669C1213.67 74.276 1215.46 76.0669 1217.67 76.0669Z" fill="white" stroke="#7451FE" stroke-miterlimit="10"/>
<path d="M1291.46 78.0669C1293.67 78.0669 1295.46 76.276 1295.46 74.0669C1295.46 71.8578 1293.67 70.0669 1291.46 70.0669C1289.25 70.0669 1287.46 71.8578 1287.46 74.0669C1287.46 76.276 1289.25 78.0669 1291.46 78.0669Z" fill="white" stroke="#7451FE" stroke-miterlimit="10"/>
<path d="M1365.25 76.0669C1367.46 76.0669 1369.25 74.276 1369.25 72.0669C1369.25 69.8578 1367.46 68.0669 1365.25 68.0669C1363.04 68.0669 1361.25 69.8578 1361.25 72.0669C1361.25 74.276 1363.04 76.0669 1365.25 76.0669Z" fill="white" stroke="#7451FE" stroke-miterlimit="10"/>
<path d="M1439.04 76.0669C1441.25 76.0669 1443.04 74.276 1443.04 72.0669C1443.04 69.8578 1441.25 68.0669 1439.04 68.0669C1436.83 68.0669 1435.04 69.8578 1435.04 72.0669C1435.04 74.276 1436.83 76.0669 1439.04 76.0669Z" fill="white" stroke="#7451FE" stroke-miterlimit="10"/>
<path d="M1512.83 78.0669C1515.04 78.0669 1516.83 76.276 1516.83 74.0669C1516.83 71.8578 1515.04 70.0669 1512.83 70.0669C1510.62 70.0669 1508.83 71.8578 1508.83 74.0669C1508.83 76.276 1510.62 78.0669 1512.83 78.0669Z" fill="white" stroke="#7451FE" stroke-miterlimit="10"/>
<path d="M1586.62 76.0669C1588.83 76.0669 1590.62 74.276 1590.62 72.0669C1590.62 69.8578 1588.83 68.0669 1586.62 68.0669C1584.42 68.0669 1582.62 69.8578 1582.62 72.0669C1582.62 74.276 1584.42 76.0669 1586.62 76.0669Z" fill="white" stroke="#7451FE" stroke-miterlimit="10"/>
<path d="M1660.42 80.0669C1662.63 80.0669 1664.42 78.276 1664.42 76.0669C1664.42 73.8578 1662.63 72.0669 1660.42 72.0669C1658.21 72.0669 1656.42 73.8578 1656.42 76.0669C1656.42 78.276 1658.21 80.0669 1660.42 80.0669Z" fill="white" stroke="#7451FE" stroke-miterlimit="10"/>
<path d="M1734.21 80.0669C1736.42 80.0669 1738.21 78.276 1738.21 76.0669C1738.21 73.8578 1736.42 72.0669 1734.21 72.0669C1732 72.0669 1730.21 73.8578 1730.21 76.0669C1730.21 78.276 1732 80.0669 1734.21 80.0669Z" fill="white" stroke="#7451FE" stroke-miterlimit="10"/>
<path d="M1808 78.0669C1810.21 78.0669 1812 76.276 1812 74.0669C1812 71.8578 1810.21 70.0669 1808 70.0669C1805.79 70.0669 1804 71.8578 1804 74.0669C1804 76.276 1805.79 78.0669 1808 78.0669Z" fill="white" stroke="#7451FE" stroke-miterlimit="10"/>
<path d="M35.7063 100.485C35.7063 101.196 35.6293 101.816 35.4753 102.344C35.3213 102.865 35.1123 103.297 34.8483 103.642C34.5843 103.987 34.2726 104.243 33.9133 104.412C33.5539 104.573 33.1653 104.654 32.7473 104.654C32.3293 104.654 31.9406 104.573 31.5813 104.412C31.2219 104.243 30.9066 103.987 30.6353 103.642C30.3713 103.297 30.1623 102.865 30.0083 102.344C29.8616 101.816 29.7883 101.196 29.7883 100.485C29.7883 99.7663 29.8616 99.1467 30.0083 98.626C30.1623 98.098 30.3713 97.6617 30.6353 97.317C30.9066 96.9723 31.2219 96.7193 31.5813 96.558C31.9406 96.3893 32.3293 96.305 32.7473 96.305C33.1653 96.305 33.5539 96.3893 33.9133 96.558C34.2726 96.7193 34.5843 96.9723 34.8483 97.317C35.1123 97.6617 35.3213 98.098 35.4753 98.626C35.6293 99.1467 35.7063 99.7663 35.7063 100.485ZM34.6943 100.485C34.6943 99.8543 34.6393 99.3263 34.5293 98.901C34.4266 98.4683 34.2836 98.1237 34.1003 97.867C33.9243 97.603 33.7189 97.416 33.4843 97.306C33.2496 97.1887 33.0039 97.13 32.7473 97.13C32.4906 97.13 32.2449 97.1887 32.0103 97.306C31.7756 97.416 31.5703 97.603 31.3943 97.867C31.2183 98.1237 31.0753 98.4683 30.9653 98.901C30.8626 99.3263 30.8113 99.8543 30.8113 100.485C30.8113 101.108 30.8626 101.636 30.9653 102.069C31.0753 102.494 31.2183 102.839 31.3943 103.103C31.5703 103.367 31.7756 103.558 32.0103 103.675C32.2449 103.785 32.4906 103.84 32.7473 103.84C33.0039 103.84 33.2496 103.785 33.4843 103.675C33.7189 103.558 33.9243 103.367 34.1003 103.103C34.2836 102.839 34.4266 102.494 34.5293 102.069C34.6393 101.636 34.6943 101.108 34.6943 100.485ZM42.259 100.485C42.259 101.196 42.182 101.816 42.028 102.344C41.874 102.865 41.665 103.297 41.401 103.642C41.137 103.987 40.8253 104.243 40.466 104.412C40.1067 104.573 39.718 104.654 39.3 104.654C38.882 104.654 38.4933 104.573 38.134 104.412C37.7747 104.243 37.4593 103.987 37.188 103.642C36.924 103.297 36.715 102.865 36.561 102.344C36.4143 101.816 36.341 101.196 36.341 100.485C36.341 99.7663 36.4143 99.1467 36.561 98.626C36.715 98.098 36.924 97.6617 37.188 97.317C37.4593 96.9723 37.7747 96.7193 38.134 96.558C38.4933 96.3893 38.882 96.305 39.3 96.305C39.718 96.305 40.1067 96.3893 40.466 96.558C40.8253 96.7193 41.137 96.9723 41.401 97.317C41.665 97.6617 41.874 98.098 42.028 98.626C42.182 99.1467 42.259 99.7663 42.259 100.485ZM41.247 100.485C41.247 99.8543 41.192 99.3263 41.082 98.901C40.9793 98.4683 40.8363 98.1237 40.653 97.867C40.477 97.603 40.2717 97.416 40.037 97.306C39.8023 97.1887 39.5567 97.13 39.3 97.13C39.0433 97.13 38.7977 97.1887 38.563 97.306C38.3283 97.416 38.123 97.603 37.947 97.867C37.771 98.1237 37.628 98.4683 37.518 98.901C37.4153 99.3263 37.364 99.8543 37.364 100.485C37.364 101.108 37.4153 101.636 37.518 102.069C37.628 102.494 37.771 102.839 37.947 103.103C38.123 103.367 38.3283 103.558 38.563 103.675C38.7977 103.785 39.0433 103.84 39.3 103.84C39.5567 103.84 39.8023 103.785 40.037 103.675C40.2717 103.558 40.477 103.367 40.653 103.103C40.8363 102.839 40.9793 102.494 41.082 102.069C41.192 101.636 41.247 101.108 41.247 100.485Z" fill="black" fill-opacity="0.6"/>
<path d="M109.581 100.485C109.581 101.196 109.504 101.816 109.35 102.344C109.196 102.865 108.987 103.297 108.723 103.642C108.459 103.987 108.148 104.243 107.788 104.412C107.429 104.573 107.04 104.654 106.622 104.654C106.204 104.654 105.816 104.573 105.456 104.412C105.097 104.243 104.782 103.987 104.51 103.642C104.246 103.297 104.037 102.865 103.883 102.344C103.737 101.816 103.663 101.196 103.663 100.485C103.663 99.7663 103.737 99.1467 103.883 98.626C104.037 98.098 104.246 97.6617 104.51 97.317C104.782 96.9723 105.097 96.7193 105.456 96.558C105.816 96.3893 106.204 96.305 106.622 96.305C107.04 96.305 107.429 96.3893 107.788 96.558C108.148 96.7193 108.459 96.9723 108.723 97.317C108.987 97.6617 109.196 98.098 109.35 98.626C109.504 99.1467 109.581 99.7663 109.581 100.485ZM108.569 100.485C108.569 99.8543 108.514 99.3263 108.404 98.901C108.302 98.4683 108.159 98.1237 107.975 97.867C107.799 97.603 107.594 97.416 107.359 97.306C107.125 97.1887 106.879 97.13 106.622 97.13C106.366 97.13 106.12 97.1887 105.885 97.306C105.651 97.416 105.445 97.603 105.269 97.867C105.093 98.1237 104.95 98.4683 104.84 98.901C104.738 99.3263 104.686 99.8543 104.686 100.485C104.686 101.108 104.738 101.636 104.84 102.069C104.95 102.494 105.093 102.839 105.269 103.103C105.445 103.367 105.651 103.558 105.885 103.675C106.12 103.785 106.366 103.84 106.622 103.84C106.879 103.84 107.125 103.785 107.359 103.675C107.594 103.558 107.799 103.367 107.975 103.103C108.159 102.839 108.302 102.494 108.404 102.069C108.514 101.636 108.569 101.108 108.569 100.485ZM115.661 104.5H111.305V103.686H113.098V97.724C113.098 97.68 113.102 97.6397 113.109 97.603L111.646 98.912L111.107 98.263L113.274 96.393H114.077V103.686H115.661V104.5Z" fill="black" fill-opacity="0.6"/>
<path d="M183.456 100.485C183.456 101.196 183.379 101.816 183.225 102.344C183.071 102.865 182.862 103.297 182.598 103.642C182.334 103.987 182.023 104.243 181.663 104.412C181.304 104.573 180.915 104.654 180.497 104.654C180.079 104.654 179.691 104.573 179.331 104.412C178.972 104.243 178.657 103.987 178.385 103.642C178.121 103.297 177.912 102.865 177.758 102.344C177.612 101.816 177.538 101.196 177.538 100.485C177.538 99.7663 177.612 99.1467 177.758 98.626C177.912 98.098 178.121 97.6617 178.385 97.317C178.657 96.9723 178.972 96.7193 179.331 96.558C179.691 96.3893 180.079 96.305 180.497 96.305C180.915 96.305 181.304 96.3893 181.663 96.558C182.023 96.7193 182.334 96.9723 182.598 97.317C182.862 97.6617 183.071 98.098 183.225 98.626C183.379 99.1467 183.456 99.7663 183.456 100.485ZM182.444 100.485C182.444 99.8543 182.389 99.3263 182.279 98.901C182.177 98.4683 182.034 98.1237 181.85 97.867C181.674 97.603 181.469 97.416 181.234 97.306C181 97.1887 180.754 97.13 180.497 97.13C180.241 97.13 179.995 97.1887 179.76 97.306C179.526 97.416 179.32 97.603 179.144 97.867C178.968 98.1237 178.825 98.4683 178.715 98.901C178.613 99.3263 178.561 99.8543 178.561 100.485C178.561 101.108 178.613 101.636 178.715 102.069C178.825 102.494 178.968 102.839 179.144 103.103C179.32 103.367 179.526 103.558 179.76 103.675C179.995 103.785 180.241 103.84 180.497 103.84C180.754 103.84 181 103.785 181.234 103.675C181.469 103.558 181.674 103.367 181.85 103.103C182.034 102.839 182.177 102.494 182.279 102.069C182.389 101.636 182.444 101.108 182.444 100.485ZM189.745 104.5H184.333V103.796L187.116 101.123C187.329 100.896 187.523 100.683 187.699 100.485C187.882 100.28 188.036 100.074 188.161 99.869C188.293 99.6637 188.396 99.4583 188.469 99.253C188.542 99.0403 188.579 98.8167 188.579 98.582C188.564 98.098 188.418 97.7423 188.139 97.515C187.86 97.2803 187.512 97.163 187.094 97.163C186.867 97.163 186.654 97.2033 186.456 97.284C186.258 97.3573 186.086 97.4673 185.939 97.614C185.8 97.7533 185.69 97.9183 185.609 98.109C185.528 98.2997 185.488 98.5123 185.488 98.747L184.498 98.582C184.549 98.208 184.652 97.8817 184.806 97.603C184.96 97.317 185.151 97.0787 185.378 96.888C185.613 96.69 185.88 96.5433 186.181 96.448C186.482 96.3453 186.804 96.294 187.149 96.294C187.494 96.294 187.813 96.3453 188.106 96.448C188.407 96.5507 188.667 96.701 188.887 96.899C189.107 97.0897 189.279 97.3243 189.404 97.603C189.529 97.8817 189.591 98.2007 189.591 98.56C189.591 98.8607 189.547 99.1393 189.459 99.396C189.371 99.6527 189.25 99.902 189.096 100.144C188.942 100.379 188.762 100.61 188.557 100.837C188.352 101.057 188.135 101.281 187.908 101.508L185.653 103.741C185.807 103.697 185.961 103.664 186.115 103.642C186.276 103.62 186.427 103.609 186.566 103.609H189.745V104.5Z" fill="black" fill-opacity="0.6"/>
<path d="M257.331 100.485C257.331 101.196 257.254 101.816 257.1 102.344C256.946 102.865 256.737 103.297 256.473 103.642C256.209 103.987 255.898 104.243 255.538 104.412C255.179 104.573 254.79 104.654 254.372 104.654C253.954 104.654 253.566 104.573 253.206 104.412C252.847 104.243 252.532 103.987 252.26 103.642C251.996 103.297 251.787 102.865 251.633 102.344C251.487 101.816 251.413 101.196 251.413 100.485C251.413 99.7663 251.487 99.1467 251.633 98.626C251.787 98.098 251.996 97.6617 252.26 97.317C252.532 96.9723 252.847 96.7193 253.206 96.558C253.566 96.3893 253.954 96.305 254.372 96.305C254.79 96.305 255.179 96.3893 255.538 96.558C255.898 96.7193 256.209 96.9723 256.473 97.317C256.737 97.6617 256.946 98.098 257.1 98.626C257.254 99.1467 257.331 99.7663 257.331 100.485ZM256.319 100.485C256.319 99.8543 256.264 99.3263 256.154 98.901C256.052 98.4683 255.909 98.1237 255.725 97.867C255.549 97.603 255.344 97.416 255.109 97.306C254.875 97.1887 254.629 97.13 254.372 97.13C254.116 97.13 253.87 97.1887 253.635 97.306C253.401 97.416 253.195 97.603 253.019 97.867C252.843 98.1237 252.7 98.4683 252.59 98.901C252.488 99.3263 252.436 99.8543 252.436 100.485C252.436 101.108 252.488 101.636 252.59 102.069C252.7 102.494 252.843 102.839 253.019 103.103C253.195 103.367 253.401 103.558 253.635 103.675C253.87 103.785 254.116 103.84 254.372 103.84C254.629 103.84 254.875 103.785 255.109 103.675C255.344 103.558 255.549 103.367 255.725 103.103C255.909 102.839 256.052 102.494 256.154 102.069C256.264 101.636 256.319 101.108 256.319 100.485ZM258.406 98.604C258.457 98.2373 258.56 97.911 258.714 97.625C258.868 97.339 259.059 97.1007 259.286 96.91C259.521 96.712 259.788 96.5617 260.089 96.459C260.39 96.3563 260.712 96.305 261.057 96.305C261.409 96.305 261.728 96.3563 262.014 96.459C262.307 96.5617 262.56 96.7047 262.773 96.888C262.986 97.0713 263.151 97.2913 263.268 97.548C263.385 97.8047 263.444 98.087 263.444 98.395C263.444 98.923 263.316 99.3337 263.059 99.627C262.81 99.913 262.465 100.129 262.025 100.276C262.553 100.408 262.953 100.639 263.224 100.969C263.495 101.299 263.631 101.717 263.631 102.223C263.631 102.59 263.558 102.923 263.411 103.224C263.272 103.525 263.077 103.781 262.828 103.994C262.586 104.199 262.296 104.361 261.959 104.478C261.629 104.588 261.277 104.643 260.903 104.643C260.47 104.643 260.1 104.588 259.792 104.478C259.491 104.368 259.235 104.218 259.022 104.027C258.809 103.836 258.633 103.613 258.494 103.356C258.362 103.092 258.248 102.813 258.153 102.52L259.055 102.146C259.077 102.263 259.132 102.428 259.22 102.641C259.389 102.993 259.605 103.272 259.869 103.477C260.133 103.675 260.474 103.774 260.892 103.774C261.178 103.774 261.427 103.73 261.64 103.642C261.86 103.547 262.04 103.426 262.179 103.279C262.326 103.132 262.432 102.967 262.498 102.784C262.571 102.601 262.608 102.421 262.608 102.245C262.608 102.025 262.579 101.823 262.52 101.64C262.469 101.457 262.366 101.299 262.212 101.167C262.058 101.035 261.845 100.932 261.574 100.859C261.303 100.778 260.951 100.738 260.518 100.738V100.012C260.87 100.005 261.167 99.9643 261.409 99.891C261.658 99.8177 261.86 99.7187 262.014 99.594C262.168 99.462 262.278 99.308 262.344 99.132C262.41 98.956 262.443 98.7653 262.443 98.56C262.443 98.098 262.307 97.7533 262.036 97.526C261.772 97.2987 261.427 97.185 261.002 97.185C260.775 97.185 260.562 97.2253 260.364 97.306C260.166 97.3867 259.997 97.5003 259.858 97.647C259.719 97.7863 259.609 97.9513 259.528 98.142C259.447 98.3327 259.407 98.5417 259.407 98.769L258.406 98.604Z" fill="black" fill-opacity="0.6"/>
<path d="M331.206 100.485C331.206 101.196 331.129 101.816 330.975 102.344C330.821 102.865 330.612 103.297 330.348 103.642C330.084 103.987 329.773 104.243 329.413 104.412C329.054 104.573 328.665 104.654 328.247 104.654C327.829 104.654 327.441 104.573 327.081 104.412C326.722 104.243 326.407 103.987 326.135 103.642C325.871 103.297 325.662 102.865 325.508 102.344C325.362 101.816 325.288 101.196 325.288 100.485C325.288 99.7663 325.362 99.1467 325.508 98.626C325.662 98.098 325.871 97.6617 326.135 97.317C326.407 96.9723 326.722 96.7193 327.081 96.558C327.441 96.3893 327.829 96.305 328.247 96.305C328.665 96.305 329.054 96.3893 329.413 96.558C329.773 96.7193 330.084 96.9723 330.348 97.317C330.612 97.6617 330.821 98.098 330.975 98.626C331.129 99.1467 331.206 99.7663 331.206 100.485ZM330.194 100.485C330.194 99.8543 330.139 99.3263 330.029 98.901C329.927 98.4683 329.784 98.1237 329.6 97.867C329.424 97.603 329.219 97.416 328.984 97.306C328.75 97.1887 328.504 97.13 328.247 97.13C327.991 97.13 327.745 97.1887 327.51 97.306C327.276 97.416 327.07 97.603 326.894 97.867C326.718 98.1237 326.575 98.4683 326.465 98.901C326.363 99.3263 326.311 99.8543 326.311 100.485C326.311 101.108 326.363 101.636 326.465 102.069C326.575 102.494 326.718 102.839 326.894 103.103C327.07 103.367 327.276 103.558 327.51 103.675C327.745 103.785 327.991 103.84 328.247 103.84C328.504 103.84 328.75 103.785 328.984 103.675C329.219 103.558 329.424 103.367 329.6 103.103C329.784 102.839 329.927 102.494 330.029 102.069C330.139 101.636 330.194 101.108 330.194 100.485ZM337.88 102.355H336.659V104.5H335.768V102.355H331.742V101.607L335.713 96.349H336.659V101.563H337.88V102.355ZM335.768 98.197C335.768 98.1017 335.772 97.9953 335.779 97.878C335.786 97.7533 335.797 97.6323 335.812 97.515L332.842 101.563H335.768V98.197Z" fill="black" fill-opacity="0.6"/>
<path d="M405.081 100.485C405.081 101.196 405.004 101.816 404.85 102.344C404.696 102.865 404.487 103.297 404.223 103.642C403.959 103.987 403.648 104.243 403.288 104.412C402.929 104.573 402.54 104.654 402.122 104.654C401.704 104.654 401.316 104.573 400.956 104.412C400.597 104.243 400.282 103.987 400.01 103.642C399.746 103.297 399.537 102.865 399.383 102.344C399.237 101.816 399.163 101.196 399.163 100.485C399.163 99.7663 399.237 99.1467 399.383 98.626C399.537 98.098 399.746 97.6617 400.01 97.317C400.282 96.9723 400.597 96.7193 400.956 96.558C401.316 96.3893 401.704 96.305 402.122 96.305C402.54 96.305 402.929 96.3893 403.288 96.558C403.648 96.7193 403.959 96.9723 404.223 97.317C404.487 97.6617 404.696 98.098 404.85 98.626C405.004 99.1467 405.081 99.7663 405.081 100.485ZM404.069 100.485C404.069 99.8543 404.014 99.3263 403.904 98.901C403.802 98.4683 403.659 98.1237 403.475 97.867C403.299 97.603 403.094 97.416 402.859 97.306C402.625 97.1887 402.379 97.13 402.122 97.13C401.866 97.13 401.62 97.1887 401.385 97.306C401.151 97.416 400.945 97.603 400.769 97.867C400.593 98.1237 400.45 98.4683 400.34 98.901C400.238 99.3263 400.186 99.8543 400.186 100.485C400.186 101.108 400.238 101.636 400.34 102.069C400.45 102.494 400.593 102.839 400.769 103.103C400.945 103.367 401.151 103.558 401.385 103.675C401.62 103.785 401.866 103.84 402.122 103.84C402.379 103.84 402.625 103.785 402.859 103.675C403.094 103.558 403.299 103.367 403.475 103.103C403.659 102.839 403.802 102.494 403.904 102.069C404.014 101.636 404.069 101.108 404.069 100.485ZM407.476 99.44C407.835 99.3447 408.22 99.297 408.631 99.297C409.056 99.297 409.43 99.3593 409.753 99.484C410.083 99.6087 410.358 99.781 410.578 100.001C410.798 100.221 410.963 100.481 411.073 100.782C411.19 101.083 411.249 101.409 411.249 101.761C411.249 102.186 411.172 102.575 411.018 102.927C410.871 103.279 410.666 103.58 410.402 103.829C410.138 104.071 409.826 104.262 409.467 104.401C409.115 104.533 408.734 104.599 408.323 104.599C407.839 104.599 407.399 104.515 407.003 104.346C406.614 104.17 406.295 103.965 406.046 103.73L406.585 102.993C406.827 103.198 407.102 103.367 407.41 103.499C407.718 103.631 408.037 103.697 408.367 103.697C408.646 103.697 408.902 103.657 409.137 103.576C409.372 103.488 409.573 103.363 409.742 103.202C409.911 103.041 410.043 102.843 410.138 102.608C410.233 102.373 410.281 102.109 410.281 101.816C410.281 101.288 410.12 100.877 409.797 100.584C409.474 100.291 409.023 100.144 408.444 100.144C408.231 100.144 408.015 100.17 407.795 100.221C407.582 100.265 407.359 100.327 407.124 100.408L406.475 100.221L407.135 96.404H410.996V97.328H407.839L407.476 99.44Z" fill="black" fill-opacity="0.6"/>
<path d="M478.956 100.485C478.956 101.196 478.879 101.816 478.725 102.344C478.571 102.865 478.362 103.297 478.098 103.642C477.834 103.987 477.523 104.243 477.163 104.412C476.804 104.573 476.415 104.654 475.997 104.654C475.579 104.654 475.191 104.573 474.831 104.412C474.472 104.243 474.157 103.987 473.885 103.642C473.621 103.297 473.412 102.865 473.258 102.344C473.112 101.816 473.038 101.196 473.038 100.485C473.038 99.7663 473.112 99.1467 473.258 98.626C473.412 98.098 473.621 97.6617 473.885 97.317C474.157 96.9723 474.472 96.7193 474.831 96.558C475.191 96.3893 475.579 96.305 475.997 96.305C476.415 96.305 476.804 96.3893 477.163 96.558C477.523 96.7193 477.834 96.9723 478.098 97.317C478.362 97.6617 478.571 98.098 478.725 98.626C478.879 99.1467 478.956 99.7663 478.956 100.485ZM477.944 100.485C477.944 99.8543 477.889 99.3263 477.779 98.901C477.677 98.4683 477.534 98.1237 477.35 97.867C477.174 97.603 476.969 97.416 476.734 97.306C476.5 97.1887 476.254 97.13 475.997 97.13C475.741 97.13 475.495 97.1887 475.26 97.306C475.026 97.416 474.82 97.603 474.644 97.867C474.468 98.1237 474.325 98.4683 474.215 98.901C474.113 99.3263 474.061 99.8543 474.061 100.485C474.061 101.108 474.113 101.636 474.215 102.069C474.325 102.494 474.468 102.839 474.644 103.103C474.82 103.367 475.026 103.558 475.26 103.675C475.495 103.785 475.741 103.84 475.997 103.84C476.254 103.84 476.5 103.785 476.734 103.675C476.969 103.558 477.174 103.367 477.35 103.103C477.534 102.839 477.677 102.494 477.779 102.069C477.889 101.636 477.944 101.108 477.944 100.485ZM481.901 99.44C481.806 99.572 481.725 99.682 481.659 99.77C481.6 99.858 481.553 99.924 481.516 99.968C481.714 99.836 481.927 99.7333 482.154 99.66C482.381 99.5867 482.631 99.55 482.902 99.55C483.232 99.55 483.544 99.605 483.837 99.715C484.13 99.8177 484.387 99.9753 484.607 100.188C484.827 100.393 484.999 100.646 485.124 100.947C485.256 101.248 485.322 101.592 485.322 101.981C485.322 102.355 485.252 102.703 485.113 103.026C484.981 103.349 484.79 103.631 484.541 103.873C484.299 104.115 484.006 104.306 483.661 104.445C483.316 104.577 482.939 104.643 482.528 104.643C482.117 104.643 481.743 104.577 481.406 104.445C481.076 104.313 480.794 104.126 480.559 103.884C480.324 103.642 480.141 103.352 480.009 103.015C479.884 102.67 479.822 102.289 479.822 101.871C479.822 101.512 479.899 101.13 480.053 100.727C480.214 100.316 480.471 99.88 480.823 99.418L483.067 96.393H484.332L481.901 99.44ZM482.506 103.796C482.77 103.796 483.012 103.752 483.232 103.664C483.459 103.576 483.65 103.455 483.804 103.301C483.965 103.147 484.09 102.964 484.178 102.751C484.266 102.538 484.31 102.307 484.31 102.058C484.31 101.794 484.266 101.556 484.178 101.343C484.09 101.123 483.969 100.94 483.815 100.793C483.661 100.646 483.478 100.533 483.265 100.452C483.052 100.371 482.821 100.331 482.572 100.331C482.301 100.331 482.055 100.379 481.835 100.474C481.622 100.562 481.439 100.687 481.285 100.848C481.131 101.002 481.01 101.182 480.922 101.387C480.841 101.592 480.801 101.809 480.801 102.036C480.801 102.564 480.948 102.989 481.241 103.312C481.534 103.635 481.956 103.796 482.506 103.796Z" fill="black" fill-opacity="0.6"/>
<path d="M552.831 100.485C552.831 101.196 552.754 101.816 552.6 102.344C552.446 102.865 552.237 103.297 551.973 103.642C551.709 103.987 551.398 104.243 551.038 104.412C550.679 104.573 550.29 104.654 549.872 104.654C549.454 104.654 549.066 104.573 548.706 104.412C548.347 104.243 548.032 103.987 547.76 103.642C547.496 103.297 547.287 102.865 547.133 102.344C546.987 101.816 546.913 101.196 546.913 100.485C546.913 99.7663 546.987 99.1467 547.133 98.626C547.287 98.098 547.496 97.6617 547.76 97.317C548.032 96.9723 548.347 96.7193 548.706 96.558C549.066 96.3893 549.454 96.305 549.872 96.305C550.29 96.305 550.679 96.3893 551.038 96.558C551.398 96.7193 551.709 96.9723 551.973 97.317C552.237 97.6617 552.446 98.098 552.6 98.626C552.754 99.1467 552.831 99.7663 552.831 100.485ZM551.819 100.485C551.819 99.8543 551.764 99.3263 551.654 98.901C551.552 98.4683 551.409 98.1237 551.225 97.867C551.049 97.603 550.844 97.416 550.609 97.306C550.375 97.1887 550.129 97.13 549.872 97.13C549.616 97.13 549.37 97.1887 549.135 97.306C548.901 97.416 548.695 97.603 548.519 97.867C548.343 98.1237 548.2 98.4683 548.09 98.901C547.988 99.3263 547.936 99.8543 547.936 100.485C547.936 101.108 547.988 101.636 548.09 102.069C548.2 102.494 548.343 102.839 548.519 103.103C548.695 103.367 548.901 103.558 549.135 103.675C549.37 103.785 549.616 103.84 549.872 103.84C550.129 103.84 550.375 103.785 550.609 103.675C550.844 103.558 551.049 103.367 551.225 103.103C551.409 102.839 551.552 102.494 551.654 102.069C551.764 101.636 551.819 101.108 551.819 100.485ZM559.186 97.086L555.545 104.5H554.434L557.723 97.911L558.097 97.295H553.884V96.437H559.186V97.086Z" fill="black" fill-opacity="0.6"/>
<path d="M626.706 100.485C626.706 101.196 626.629 101.816 626.475 102.344C626.321 102.865 626.112 103.297 625.848 103.642C625.584 103.987 625.273 104.243 624.913 104.412C624.554 104.573 624.165 104.654 623.747 104.654C623.329 104.654 622.941 104.573 622.581 104.412C622.222 104.243 621.907 103.987 621.635 103.642C621.371 103.297 621.162 102.865 621.008 102.344C620.862 101.816 620.788 101.196 620.788 100.485C620.788 99.7663 620.862 99.1467 621.008 98.626C621.162 98.098 621.371 97.6617 621.635 97.317C621.907 96.9723 622.222 96.7193 622.581 96.558C622.941 96.3893 623.329 96.305 623.747 96.305C624.165 96.305 624.554 96.3893 624.913 96.558C625.273 96.7193 625.584 96.9723 625.848 97.317C626.112 97.6617 626.321 98.098 626.475 98.626C626.629 99.1467 626.706 99.7663 626.706 100.485ZM625.694 100.485C625.694 99.8543 625.639 99.3263 625.529 98.901C625.427 98.4683 625.284 98.1237 625.1 97.867C624.924 97.603 624.719 97.416 624.484 97.306C624.25 97.1887 624.004 97.13 623.747 97.13C623.491 97.13 623.245 97.1887 623.01 97.306C622.776 97.416 622.57 97.603 622.394 97.867C622.218 98.1237 622.075 98.4683 621.965 98.901C621.863 99.3263 621.811 99.8543 621.811 100.485C621.811 101.108 621.863 101.636 621.965 102.069C622.075 102.494 622.218 102.839 622.394 103.103C622.57 103.367 622.776 103.558 623.01 103.675C623.245 103.785 623.491 103.84 623.747 103.84C624.004 103.84 624.25 103.785 624.484 103.675C624.719 103.558 624.924 103.367 625.1 103.103C625.284 102.839 625.427 102.494 625.529 102.069C625.639 101.636 625.694 101.108 625.694 100.485ZM631.455 100.298C631.968 100.437 632.361 100.679 632.632 101.024C632.911 101.369 633.05 101.805 633.05 102.333C633.05 102.692 632.98 103.019 632.841 103.312C632.709 103.598 632.518 103.844 632.269 104.049C632.027 104.254 631.737 104.412 631.4 104.522C631.063 104.632 630.689 104.687 630.278 104.687C629.867 104.687 629.49 104.632 629.145 104.522C628.8 104.412 628.503 104.254 628.254 104.049C628.012 103.844 627.821 103.598 627.682 103.312C627.55 103.019 627.484 102.692 627.484 102.333C627.484 101.805 627.623 101.369 627.902 101.024C628.181 100.679 628.573 100.437 629.079 100.298C628.661 100.137 628.338 99.8983 628.111 99.583C627.891 99.2603 627.781 98.868 627.781 98.406C627.781 98.1053 627.84 97.8267 627.957 97.57C628.074 97.306 628.239 97.075 628.452 96.877C628.672 96.679 628.936 96.525 629.244 96.415C629.552 96.2977 629.897 96.239 630.278 96.239C630.645 96.239 630.982 96.2977 631.29 96.415C631.598 96.525 631.862 96.679 632.082 96.877C632.302 97.075 632.471 97.306 632.588 97.57C632.713 97.8267 632.775 98.1053 632.775 98.406C632.775 99.3447 632.335 99.9753 631.455 100.298ZM630.278 97.042C630.029 97.042 629.809 97.0787 629.618 97.152C629.427 97.2253 629.27 97.3243 629.145 97.449C629.028 97.5737 628.936 97.724 628.87 97.9C628.811 98.0687 628.782 98.2483 628.782 98.439C628.782 98.6223 628.808 98.802 628.859 98.978C628.91 99.154 628.995 99.3117 629.112 99.451C629.229 99.5903 629.383 99.704 629.574 99.792C629.765 99.8727 629.999 99.913 630.278 99.913C630.549 99.913 630.777 99.8727 630.96 99.792C631.151 99.704 631.305 99.5903 631.422 99.451C631.539 99.3117 631.624 99.154 631.675 98.978C631.726 98.802 631.752 98.6223 631.752 98.439C631.752 98.2483 631.719 98.0687 631.653 97.9C631.594 97.724 631.503 97.5737 631.378 97.449C631.261 97.3243 631.11 97.2253 630.927 97.152C630.744 97.0787 630.527 97.042 630.278 97.042ZM630.278 103.862C630.828 103.862 631.25 103.723 631.543 103.444C631.836 103.158 631.983 102.784 631.983 102.322C631.983 102.036 631.935 101.794 631.84 101.596C631.752 101.391 631.627 101.226 631.466 101.101C631.312 100.969 631.132 100.874 630.927 100.815C630.722 100.749 630.505 100.716 630.278 100.716C630.051 100.716 629.831 100.749 629.618 100.815C629.413 100.874 629.229 100.969 629.068 101.101C628.907 101.226 628.778 101.391 628.683 101.596C628.595 101.794 628.551 102.036 628.551 102.322C628.551 102.784 628.701 103.158 629.002 103.444C629.303 103.723 629.728 103.862 630.278 103.862Z" fill="black" fill-opacity="0.6"/>
<path d="M700.581 100.485C700.581 101.196 700.504 101.816 700.35 102.344C700.196 102.865 699.987 103.297 699.723 103.642C699.459 103.987 699.148 104.243 698.788 104.412C698.429 104.573 698.04 104.654 697.622 104.654C697.204 104.654 696.816 104.573 696.456 104.412C696.097 104.243 695.782 103.987 695.51 103.642C695.246 103.297 695.037 102.865 694.883 102.344C694.737 101.816 694.663 101.196 694.663 100.485C694.663 99.7663 694.737 99.1467 694.883 98.626C695.037 98.098 695.246 97.6617 695.51 97.317C695.782 96.9723 696.097 96.7193 696.456 96.558C696.816 96.3893 697.204 96.305 697.622 96.305C698.04 96.305 698.429 96.3893 698.788 96.558C699.148 96.7193 699.459 96.9723 699.723 97.317C699.987 97.6617 700.196 98.098 700.35 98.626C700.504 99.1467 700.581 99.7663 700.581 100.485ZM699.569 100.485C699.569 99.8543 699.514 99.3263 699.404 98.901C699.302 98.4683 699.159 98.1237 698.975 97.867C698.799 97.603 698.594 97.416 698.359 97.306C698.125 97.1887 697.879 97.13 697.622 97.13C697.366 97.13 697.12 97.1887 696.885 97.306C696.651 97.416 696.445 97.603 696.269 97.867C696.093 98.1237 695.95 98.4683 695.84 98.901C695.738 99.3263 695.686 99.8543 695.686 100.485C695.686 101.108 695.738 101.636 695.84 102.069C695.95 102.494 696.093 102.839 696.269 103.103C696.445 103.367 696.651 103.558 696.885 103.675C697.12 103.785 697.366 103.84 697.622 103.84C697.879 103.84 698.125 103.785 698.359 103.675C698.594 103.558 698.799 103.367 698.975 103.103C699.159 102.839 699.302 102.494 699.404 102.069C699.514 101.636 699.569 101.108 699.569 100.485ZM704.89 101.299C705.007 101.145 705.099 101.017 705.165 100.914C705.238 100.811 705.293 100.734 705.33 100.683C704.897 101.028 704.38 101.2 703.779 101.2C703.464 101.2 703.163 101.149 702.877 101.046C702.598 100.943 702.353 100.793 702.14 100.595C701.935 100.39 701.77 100.14 701.645 99.847C701.52 99.5537 701.458 99.2163 701.458 98.835C701.458 98.4757 701.524 98.1383 701.656 97.823C701.795 97.5077 701.986 97.2327 702.228 96.998C702.47 96.7633 702.756 96.58 703.086 96.448C703.423 96.3087 703.794 96.239 704.197 96.239C704.593 96.239 704.952 96.305 705.275 96.437C705.598 96.569 705.873 96.7523 706.1 96.987C706.335 97.2217 706.514 97.504 706.639 97.834C706.764 98.1567 706.826 98.516 706.826 98.912C706.826 99.3887 706.742 99.825 706.573 100.221C706.404 100.617 706.166 101.028 705.858 101.453L703.647 104.5H702.382L704.89 101.299ZM702.481 98.758C702.481 99.2933 702.624 99.704 702.91 99.99C703.203 100.269 703.603 100.408 704.109 100.408C704.388 100.408 704.633 100.364 704.846 100.276C705.059 100.188 705.238 100.071 705.385 99.924C705.539 99.77 705.653 99.5977 705.726 99.407C705.807 99.209 705.847 99.0037 705.847 98.791C705.847 98.527 705.803 98.2923 705.715 98.087C705.634 97.8743 705.521 97.6983 705.374 97.559C705.227 97.4123 705.051 97.3023 704.846 97.229C704.641 97.1483 704.421 97.108 704.186 97.108C703.673 97.108 703.258 97.262 702.943 97.57C702.635 97.8707 702.481 98.2667 702.481 98.758Z" fill="black" fill-opacity="0.6"/>
<path d="M773.983 104.5H769.627V103.686H771.42V97.724C771.42 97.68 771.424 97.6397 771.431 97.603L769.968 98.912L769.429 98.263L771.596 96.393H772.399V103.686H773.983V104.5ZM781.009 100.485C781.009 101.196 780.932 101.816 780.778 102.344C780.624 102.865 780.415 103.297 780.151 103.642C779.887 103.987 779.575 104.243 779.216 104.412C778.857 104.573 778.468 104.654 778.05 104.654C777.632 104.654 777.243 104.573 776.884 104.412C776.525 104.243 776.209 103.987 775.938 103.642C775.674 103.297 775.465 102.865 775.311 102.344C775.164 101.816 775.091 101.196 775.091 100.485C775.091 99.7663 775.164 99.1467 775.311 98.626C775.465 98.098 775.674 97.6617 775.938 97.317C776.209 96.9723 776.525 96.7193 776.884 96.558C777.243 96.3893 777.632 96.305 778.05 96.305C778.468 96.305 778.857 96.3893 779.216 96.558C779.575 96.7193 779.887 96.9723 780.151 97.317C780.415 97.6617 780.624 98.098 780.778 98.626C780.932 99.1467 781.009 99.7663 781.009 100.485ZM779.997 100.485C779.997 99.8543 779.942 99.3263 779.832 98.901C779.729 98.4683 779.586 98.1237 779.403 97.867C779.227 97.603 779.022 97.416 778.787 97.306C778.552 97.1887 778.307 97.13 778.05 97.13C777.793 97.13 777.548 97.1887 777.313 97.306C777.078 97.416 776.873 97.603 776.697 97.867C776.521 98.1237 776.378 98.4683 776.268 98.901C776.165 99.3263 776.114 99.8543 776.114 100.485C776.114 101.108 776.165 101.636 776.268 102.069C776.378 102.494 776.521 102.839 776.697 103.103C776.873 103.367 777.078 103.558 777.313 103.675C777.548 103.785 777.793 103.84 778.05 103.84C778.307 103.84 778.552 103.785 778.787 103.675C779.022 103.558 779.227 103.367 779.403 103.103C779.586 102.839 779.729 102.494 779.832 102.069C779.942 101.636 779.997 101.108 779.997 100.485Z" fill="black" fill-opacity="0.6"/>
<path d="M847.858 104.5H843.502V103.686H845.295V97.724C845.295 97.68 845.299 97.6397 845.306 97.603L843.843 98.912L843.304 98.263L845.471 96.393H846.274V103.686H847.858V104.5ZM854.411 104.5H850.055V103.686H851.848V97.724C851.848 97.68 851.852 97.6397 851.859 97.603L850.396 98.912L849.857 98.263L852.024 96.393H852.827V103.686H854.411V104.5Z" fill="black" fill-opacity="0.6"/>
<path d="M921.733 104.5H917.377V103.686H919.17V97.724C919.17 97.68 919.174 97.6397 919.181 97.603L917.718 98.912L917.179 98.263L919.346 96.393H920.149V103.686H921.733V104.5ZM928.495 104.5H923.083V103.796L925.866 101.123C926.079 100.896 926.273 100.683 926.449 100.485C926.632 100.28 926.786 100.074 926.911 99.869C927.043 99.6637 927.146 99.4583 927.219 99.253C927.292 99.0403 927.329 98.8167 927.329 98.582C927.314 98.098 927.168 97.7423 926.889 97.515C926.61 97.2803 926.262 97.163 925.844 97.163C925.617 97.163 925.404 97.2033 925.206 97.284C925.008 97.3573 924.836 97.4673 924.689 97.614C924.55 97.7533 924.44 97.9183 924.359 98.109C924.278 98.2997 924.238 98.5123 924.238 98.747L923.248 98.582C923.299 98.208 923.402 97.8817 923.556 97.603C923.71 97.317 923.901 97.0787 924.128 96.888C924.363 96.69 924.63 96.5433 924.931 96.448C925.232 96.3453 925.554 96.294 925.899 96.294C926.244 96.294 926.563 96.3453 926.856 96.448C927.157 96.5507 927.417 96.701 927.637 96.899C927.857 97.0897 928.029 97.3243 928.154 97.603C928.279 97.8817 928.341 98.2007 928.341 98.56C928.341 98.8607 928.297 99.1393 928.209 99.396C928.121 99.6527 928 99.902 927.846 100.144C927.692 100.379 927.512 100.61 927.307 100.837C927.102 101.057 926.885 101.281 926.658 101.508L924.403 103.741C924.557 103.697 924.711 103.664 924.865 103.642C925.026 103.62 925.177 103.609 925.316 103.609H928.495V104.5Z" fill="black" fill-opacity="0.6"/>
<path d="M995.608 104.5H991.252V103.686H993.045V97.724C993.045 97.68 993.049 97.6397 993.056 97.603L991.593 98.912L991.054 98.263L993.221 96.393H994.024V103.686H995.608V104.5ZM997.156 98.604C997.207 98.2373 997.31 97.911 997.464 97.625C997.618 97.339 997.809 97.1007 998.036 96.91C998.271 96.712 998.538 96.5617 998.839 96.459C999.14 96.3563 999.462 96.305 999.807 96.305C1000.16 96.305 1000.48 96.3563 1000.76 96.459C1001.06 96.5617 1001.31 96.7047 1001.52 96.888C1001.74 97.0713 1001.9 97.2913 1002.02 97.548C1002.14 97.8047 1002.19 98.087 1002.19 98.395C1002.19 98.923 1002.07 99.3337 1001.81 99.627C1001.56 99.913 1001.22 100.129 1000.78 100.276C1001.3 100.408 1001.7 100.639 1001.97 100.969C1002.25 101.299 1002.38 101.717 1002.38 102.223C1002.38 102.59 1002.31 102.923 1002.16 103.224C1002.02 103.525 1001.83 103.781 1001.58 103.994C1001.34 104.199 1001.05 104.361 1000.71 104.478C1000.38 104.588 1000.03 104.643 999.653 104.643C999.22 104.643 998.85 104.588 998.542 104.478C998.241 104.368 997.985 104.218 997.772 104.027C997.559 103.836 997.383 103.613 997.244 103.356C997.112 103.092 996.998 102.813 996.903 102.52L997.805 102.146C997.827 102.263 997.882 102.428 997.97 102.641C998.139 102.993 998.355 103.272 998.619 103.477C998.883 103.675 999.224 103.774 999.642 103.774C999.928 103.774 1000.18 103.73 1000.39 103.642C1000.61 103.547 1000.79 103.426 1000.93 103.279C1001.08 103.132 1001.18 102.967 1001.25 102.784C1001.32 102.601 1001.36 102.421 1001.36 102.245C1001.36 102.025 1001.33 101.823 1001.27 101.64C1001.22 101.457 1001.12 101.299 1000.96 101.167C1000.81 101.035 1000.6 100.932 1000.32 100.859C1000.05 100.778 999.701 100.738 999.268 100.738V100.012C999.62 100.005 999.917 99.9643 1000.16 99.891C1000.41 99.8177 1000.61 99.7187 1000.76 99.594C1000.92 99.462 1001.03 99.308 1001.09 99.132C1001.16 98.956 1001.19 98.7653 1001.19 98.56C1001.19 98.098 1001.06 97.7533 1000.79 97.526C1000.52 97.2987 1000.18 97.185 999.752 97.185C999.525 97.185 999.312 97.2253 999.114 97.306C998.916 97.3867 998.747 97.5003 998.608 97.647C998.469 97.7863 998.359 97.9513 998.278 98.142C998.197 98.3327 998.157 98.5417 998.157 98.769L997.156 98.604Z" fill="white" fill-opacity="0.6"/>
<path d="M1069.48 104.5H1065.13V103.686H1066.92V97.724C1066.92 97.68 1066.92 97.6397 1066.93 97.603L1065.47 98.912L1064.93 98.263L1067.1 96.393H1067.9V103.686H1069.48V104.5ZM1076.63 102.355H1075.41V104.5H1074.52V102.355H1070.49V101.607L1074.46 96.349H1075.41V101.563H1076.63V102.355ZM1074.52 98.197C1074.52 98.1017 1074.52 97.9953 1074.53 97.878C1074.54 97.7533 1074.55 97.6323 1074.56 97.515L1071.59 101.563H1074.52V98.197Z" fill="black" fill-opacity="0.6"/>
<path d="M1143.36 104.5H1139V103.686H1140.8V97.724C1140.8 97.68 1140.8 97.6397 1140.81 97.603L1139.34 98.912L1138.8 98.263L1140.97 96.393H1141.77V103.686H1143.36V104.5ZM1146.23 99.44C1146.59 99.3447 1146.97 99.297 1147.38 99.297C1147.81 99.297 1148.18 99.3593 1148.5 99.484C1148.83 99.6087 1149.11 99.781 1149.33 100.001C1149.55 100.221 1149.71 100.481 1149.82 100.782C1149.94 101.083 1150 101.409 1150 101.761C1150 102.186 1149.92 102.575 1149.77 102.927C1149.62 103.279 1149.42 103.58 1149.15 103.829C1148.89 104.071 1148.58 104.262 1148.22 104.401C1147.87 104.533 1147.48 104.599 1147.07 104.599C1146.59 104.599 1146.15 104.515 1145.75 104.346C1145.36 104.17 1145.05 103.965 1144.8 103.73L1145.34 102.993C1145.58 103.198 1145.85 103.367 1146.16 103.499C1146.47 103.631 1146.79 103.697 1147.12 103.697C1147.4 103.697 1147.65 103.657 1147.89 103.576C1148.12 103.488 1148.32 103.363 1148.49 103.202C1148.66 103.041 1148.79 102.843 1148.89 102.608C1148.98 102.373 1149.03 102.109 1149.03 101.816C1149.03 101.288 1148.87 100.877 1148.55 100.584C1148.22 100.291 1147.77 100.144 1147.19 100.144C1146.98 100.144 1146.77 100.17 1146.55 100.221C1146.33 100.265 1146.11 100.327 1145.87 100.408L1145.23 100.221L1145.89 96.404H1149.75V97.328H1146.59L1146.23 99.44Z" fill="black" fill-opacity="0.6"/>
<path d="M1217.23 104.5H1212.88V103.686H1214.67V97.724C1214.67 97.68 1214.67 97.6397 1214.68 97.603L1213.22 98.912L1212.68 98.263L1214.85 96.393H1215.65V103.686H1217.23V104.5ZM1220.65 99.44C1220.56 99.572 1220.48 99.682 1220.41 99.77C1220.35 99.858 1220.3 99.924 1220.27 99.968C1220.46 99.836 1220.68 99.7333 1220.9 99.66C1221.13 99.5867 1221.38 99.55 1221.65 99.55C1221.98 99.55 1222.29 99.605 1222.59 99.715C1222.88 99.8177 1223.14 99.9753 1223.36 100.188C1223.58 100.393 1223.75 100.646 1223.87 100.947C1224.01 101.248 1224.07 101.592 1224.07 101.981C1224.07 102.355 1224 102.703 1223.86 103.026C1223.73 103.349 1223.54 103.631 1223.29 103.873C1223.05 104.115 1222.76 104.306 1222.41 104.445C1222.07 104.577 1221.69 104.643 1221.28 104.643C1220.87 104.643 1220.49 104.577 1220.16 104.445C1219.83 104.313 1219.54 104.126 1219.31 103.884C1219.07 103.642 1218.89 103.352 1218.76 103.015C1218.63 102.67 1218.57 102.289 1218.57 101.871C1218.57 101.512 1218.65 101.13 1218.8 100.727C1218.96 100.316 1219.22 99.88 1219.57 99.418L1221.82 96.393H1223.08L1220.65 99.44ZM1221.26 103.796C1221.52 103.796 1221.76 103.752 1221.98 103.664C1222.21 103.576 1222.4 103.455 1222.55 103.301C1222.72 103.147 1222.84 102.964 1222.93 102.751C1223.02 102.538 1223.06 102.307 1223.06 102.058C1223.06 101.794 1223.02 101.556 1222.93 101.343C1222.84 101.123 1222.72 100.94 1222.57 100.793C1222.41 100.646 1222.23 100.533 1222.02 100.452C1221.8 100.371 1221.57 100.331 1221.32 100.331C1221.05 100.331 1220.81 100.379 1220.59 100.474C1220.37 100.562 1220.19 100.687 1220.04 100.848C1219.88 101.002 1219.76 101.182 1219.67 101.387C1219.59 101.592 1219.55 101.809 1219.55 102.036C1219.55 102.564 1219.7 102.989 1219.99 103.312C1220.28 103.635 1220.71 103.796 1221.26 103.796Z" fill="black" fill-opacity="0.6"/>
<path d="M1291.11 104.5H1286.75V103.686H1288.55V97.724C1288.55 97.68 1288.55 97.6397 1288.56 97.603L1287.09 98.912L1286.55 98.263L1288.72 96.393H1289.52V103.686H1291.11V104.5ZM1297.94 97.086L1294.3 104.5H1293.18L1296.47 97.911L1296.85 97.295H1292.63V96.437H1297.94V97.086Z" fill="black" fill-opacity="0.6"/>
<path d="M1364.98 104.5H1360.63V103.686H1362.42V97.724C1362.42 97.68 1362.42 97.6397 1362.43 97.603L1360.97 98.912L1360.43 98.263L1362.6 96.393H1363.4V103.686H1364.98V104.5ZM1370.21 100.298C1370.72 100.437 1371.11 100.679 1371.38 101.024C1371.66 101.369 1371.8 101.805 1371.8 102.333C1371.8 102.692 1371.73 103.019 1371.59 103.312C1371.46 103.598 1371.27 103.844 1371.02 104.049C1370.78 104.254 1370.49 104.412 1370.15 104.522C1369.81 104.632 1369.44 104.687 1369.03 104.687C1368.62 104.687 1368.24 104.632 1367.9 104.522C1367.55 104.412 1367.25 104.254 1367 104.049C1366.76 103.844 1366.57 103.598 1366.43 103.312C1366.3 103.019 1366.23 102.692 1366.23 102.333C1366.23 101.805 1366.37 101.369 1366.65 101.024C1366.93 100.679 1367.32 100.437 1367.83 100.298C1367.41 100.137 1367.09 99.8983 1366.86 99.583C1366.64 99.2603 1366.53 98.868 1366.53 98.406C1366.53 98.1053 1366.59 97.8267 1366.71 97.57C1366.82 97.306 1366.99 97.075 1367.2 96.877C1367.42 96.679 1367.69 96.525 1367.99 96.415C1368.3 96.2977 1368.65 96.239 1369.03 96.239C1369.39 96.239 1369.73 96.2977 1370.04 96.415C1370.35 96.525 1370.61 96.679 1370.83 96.877C1371.05 97.075 1371.22 97.306 1371.34 97.57C1371.46 97.8267 1371.53 98.1053 1371.53 98.406C1371.53 99.3447 1371.09 99.9753 1370.21 100.298ZM1369.03 97.042C1368.78 97.042 1368.56 97.0787 1368.37 97.152C1368.18 97.2253 1368.02 97.3243 1367.9 97.449C1367.78 97.5737 1367.69 97.724 1367.62 97.9C1367.56 98.0687 1367.53 98.2483 1367.53 98.439C1367.53 98.6223 1367.56 98.802 1367.61 98.978C1367.66 99.154 1367.74 99.3117 1367.86 99.451C1367.98 99.5903 1368.13 99.704 1368.32 99.792C1368.51 99.8727 1368.75 99.913 1369.03 99.913C1369.3 99.913 1369.53 99.8727 1369.71 99.792C1369.9 99.704 1370.05 99.5903 1370.17 99.451C1370.29 99.3117 1370.37 99.154 1370.43 98.978C1370.48 98.802 1370.5 98.6223 1370.5 98.439C1370.5 98.2483 1370.47 98.0687 1370.4 97.9C1370.34 97.724 1370.25 97.5737 1370.13 97.449C1370.01 97.3243 1369.86 97.2253 1369.68 97.152C1369.49 97.0787 1369.28 97.042 1369.03 97.042ZM1369.03 103.862C1369.58 103.862 1370 103.723 1370.29 103.444C1370.59 103.158 1370.73 102.784 1370.73 102.322C1370.73 102.036 1370.69 101.794 1370.59 101.596C1370.5 101.391 1370.38 101.226 1370.22 101.101C1370.06 100.969 1369.88 100.874 1369.68 100.815C1369.47 100.749 1369.26 100.716 1369.03 100.716C1368.8 100.716 1368.58 100.749 1368.37 100.815C1368.16 100.874 1367.98 100.969 1367.82 101.101C1367.66 101.226 1367.53 101.391 1367.43 101.596C1367.35 101.794 1367.3 102.036 1367.3 102.322C1367.3 102.784 1367.45 103.158 1367.75 103.444C1368.05 103.723 1368.48 103.862 1369.03 103.862Z" fill="black" fill-opacity="0.6"/>
<path d="M1438.86 104.5H1434.5V103.686H1436.3V97.724C1436.3 97.68 1436.3 97.6397 1436.31 97.603L1434.84 98.912L1434.3 98.263L1436.47 96.393H1437.27V103.686H1438.86V104.5ZM1443.64 101.299C1443.76 101.145 1443.85 101.017 1443.92 100.914C1443.99 100.811 1444.04 100.734 1444.08 100.683C1443.65 101.028 1443.13 101.2 1442.53 101.2C1442.21 101.2 1441.91 101.149 1441.63 101.046C1441.35 100.943 1441.1 100.793 1440.89 100.595C1440.68 100.39 1440.52 100.14 1440.4 99.847C1440.27 99.5537 1440.21 99.2163 1440.21 98.835C1440.21 98.4757 1440.27 98.1383 1440.41 97.823C1440.55 97.5077 1440.74 97.2327 1440.98 96.998C1441.22 96.7633 1441.51 96.58 1441.84 96.448C1442.17 96.3087 1442.54 96.239 1442.95 96.239C1443.34 96.239 1443.7 96.305 1444.03 96.437C1444.35 96.569 1444.62 96.7523 1444.85 96.987C1445.08 97.2217 1445.26 97.504 1445.39 97.834C1445.51 98.1567 1445.58 98.516 1445.58 98.912C1445.58 99.3887 1445.49 99.825 1445.32 100.221C1445.15 100.617 1444.92 101.028 1444.61 101.453L1442.4 104.5H1441.13L1443.64 101.299ZM1441.23 98.758C1441.23 99.2933 1441.37 99.704 1441.66 99.99C1441.95 100.269 1442.35 100.408 1442.86 100.408C1443.14 100.408 1443.38 100.364 1443.6 100.276C1443.81 100.188 1443.99 100.071 1444.14 99.924C1444.29 99.77 1444.4 99.5977 1444.48 99.407C1444.56 99.209 1444.6 99.0037 1444.6 98.791C1444.6 98.527 1444.55 98.2923 1444.47 98.087C1444.38 97.8743 1444.27 97.6983 1444.12 97.559C1443.98 97.4123 1443.8 97.3023 1443.6 97.229C1443.39 97.1483 1443.17 97.108 1442.94 97.108C1442.42 97.108 1442.01 97.262 1441.69 97.57C1441.39 97.8707 1441.23 98.2667 1441.23 98.758Z" fill="black" fill-opacity="0.6"/>
<path d="M1512.94 104.5H1507.53V103.796L1510.31 101.123C1510.53 100.896 1510.72 100.683 1510.9 100.485C1511.08 100.28 1511.23 100.074 1511.36 99.869C1511.49 99.6637 1511.59 99.4583 1511.67 99.253C1511.74 99.0403 1511.78 98.8167 1511.78 98.582C1511.76 98.098 1511.61 97.7423 1511.34 97.515C1511.06 97.2803 1510.71 97.163 1510.29 97.163C1510.06 97.163 1509.85 97.2033 1509.65 97.284C1509.46 97.3573 1509.28 97.4673 1509.14 97.614C1509 97.7533 1508.89 97.9183 1508.81 98.109C1508.73 98.2997 1508.69 98.5123 1508.69 98.747L1507.7 98.582C1507.75 98.208 1507.85 97.8817 1508 97.603C1508.16 97.317 1508.35 97.0787 1508.58 96.888C1508.81 96.69 1509.08 96.5433 1509.38 96.448C1509.68 96.3453 1510 96.294 1510.35 96.294C1510.69 96.294 1511.01 96.3453 1511.3 96.448C1511.6 96.5507 1511.86 96.701 1512.08 96.899C1512.3 97.0897 1512.48 97.3243 1512.6 97.603C1512.73 97.8817 1512.79 98.2007 1512.79 98.56C1512.79 98.8607 1512.74 99.1393 1512.66 99.396C1512.57 99.6527 1512.45 99.902 1512.29 100.144C1512.14 100.379 1511.96 100.61 1511.75 100.837C1511.55 101.057 1511.33 101.281 1511.11 101.508L1508.85 103.741C1509 103.697 1509.16 103.664 1509.31 103.642C1509.47 103.62 1509.62 103.609 1509.76 103.609H1512.94V104.5ZM1519.76 100.485C1519.76 101.196 1519.68 101.816 1519.53 102.344C1519.37 102.865 1519.17 103.297 1518.9 103.642C1518.64 103.987 1518.33 104.243 1517.97 104.412C1517.61 104.573 1517.22 104.654 1516.8 104.654C1516.38 104.654 1515.99 104.573 1515.63 104.412C1515.27 104.243 1514.96 103.987 1514.69 103.642C1514.42 103.297 1514.22 102.865 1514.06 102.344C1513.91 101.816 1513.84 101.196 1513.84 100.485C1513.84 99.7663 1513.91 99.1467 1514.06 98.626C1514.22 98.098 1514.42 97.6617 1514.69 97.317C1514.96 96.9723 1515.27 96.7193 1515.63 96.558C1515.99 96.3893 1516.38 96.305 1516.8 96.305C1517.22 96.305 1517.61 96.3893 1517.97 96.558C1518.33 96.7193 1518.64 96.9723 1518.9 97.317C1519.17 97.6617 1519.37 98.098 1519.53 98.626C1519.68 99.1467 1519.76 99.7663 1519.76 100.485ZM1518.75 100.485C1518.75 99.8543 1518.69 99.3263 1518.58 98.901C1518.48 98.4683 1518.34 98.1237 1518.15 97.867C1517.98 97.603 1517.77 97.416 1517.54 97.306C1517.3 97.1887 1517.06 97.13 1516.8 97.13C1516.54 97.13 1516.3 97.1887 1516.06 97.306C1515.83 97.416 1515.62 97.603 1515.45 97.867C1515.27 98.1237 1515.13 98.4683 1515.02 98.901C1514.92 99.3263 1514.86 99.8543 1514.86 100.485C1514.86 101.108 1514.92 101.636 1515.02 102.069C1515.13 102.494 1515.27 102.839 1515.45 103.103C1515.62 103.367 1515.83 103.558 1516.06 103.675C1516.3 103.785 1516.54 103.84 1516.8 103.84C1517.06 103.84 1517.3 103.785 1517.54 103.675C1517.77 103.558 1517.98 103.367 1518.15 103.103C1518.34 102.839 1518.48 102.494 1518.58 102.069C1518.69 101.636 1518.75 101.108 1518.75 100.485Z" fill="black" fill-opacity="0.6"/>
<path d="M1586.82 104.5H1581.41V103.796L1584.19 101.123C1584.4 100.896 1584.6 100.683 1584.77 100.485C1584.95 100.28 1585.11 100.074 1585.23 99.869C1585.37 99.6637 1585.47 99.4583 1585.54 99.253C1585.61 99.0403 1585.65 98.8167 1585.65 98.582C1585.64 98.098 1585.49 97.7423 1585.21 97.515C1584.93 97.2803 1584.58 97.163 1584.17 97.163C1583.94 97.163 1583.73 97.2033 1583.53 97.284C1583.33 97.3573 1583.16 97.4673 1583.01 97.614C1582.87 97.7533 1582.76 97.9183 1582.68 98.109C1582.6 98.2997 1582.56 98.5123 1582.56 98.747L1581.57 98.582C1581.62 98.208 1581.72 97.8817 1581.88 97.603C1582.03 97.317 1582.22 97.0787 1582.45 96.888C1582.68 96.69 1582.95 96.5433 1583.25 96.448C1583.55 96.3453 1583.88 96.294 1584.22 96.294C1584.57 96.294 1584.88 96.3453 1585.18 96.448C1585.48 96.5507 1585.74 96.701 1585.96 96.899C1586.18 97.0897 1586.35 97.3243 1586.48 97.603C1586.6 97.8817 1586.66 98.2007 1586.66 98.56C1586.66 98.8607 1586.62 99.1393 1586.53 99.396C1586.44 99.6527 1586.32 99.902 1586.17 100.144C1586.01 100.379 1585.83 100.61 1585.63 100.837C1585.42 101.057 1585.21 101.281 1584.98 101.508L1582.73 103.741C1582.88 103.697 1583.03 103.664 1583.19 103.642C1583.35 103.62 1583.5 103.609 1583.64 103.609H1586.82V104.5ZM1593.16 104.5H1588.81V103.686H1590.6V97.724C1590.6 97.68 1590.6 97.6397 1590.61 97.603L1589.15 98.912L1588.61 98.263L1590.77 96.393H1591.58V103.686H1593.16V104.5Z" fill="black" fill-opacity="0.6"/>
<path d="M1660.69 104.5H1655.28V103.796L1658.06 101.123C1658.28 100.896 1658.47 100.683 1658.65 100.485C1658.83 100.28 1658.98 100.074 1659.11 99.869C1659.24 99.6637 1659.34 99.4583 1659.42 99.253C1659.49 99.0403 1659.53 98.8167 1659.53 98.582C1659.51 98.098 1659.36 97.7423 1659.09 97.515C1658.81 97.2803 1658.46 97.163 1658.04 97.163C1657.81 97.163 1657.6 97.2033 1657.4 97.284C1657.21 97.3573 1657.03 97.4673 1656.89 97.614C1656.75 97.7533 1656.64 97.9183 1656.56 98.109C1656.48 98.2997 1656.44 98.5123 1656.44 98.747L1655.45 98.582C1655.5 98.208 1655.6 97.8817 1655.75 97.603C1655.91 97.317 1656.1 97.0787 1656.33 96.888C1656.56 96.69 1656.83 96.5433 1657.13 96.448C1657.43 96.3453 1657.75 96.294 1658.1 96.294C1658.44 96.294 1658.76 96.3453 1659.05 96.448C1659.35 96.5507 1659.61 96.701 1659.83 96.899C1660.05 97.0897 1660.23 97.3243 1660.35 97.603C1660.48 97.8817 1660.54 98.2007 1660.54 98.56C1660.54 98.8607 1660.49 99.1393 1660.41 99.396C1660.32 99.6527 1660.2 99.902 1660.04 100.144C1659.89 100.379 1659.71 100.61 1659.5 100.837C1659.3 101.057 1659.08 101.281 1658.86 101.508L1656.6 103.741C1656.75 103.697 1656.91 103.664 1657.06 103.642C1657.22 103.62 1657.37 103.609 1657.51 103.609H1660.69V104.5ZM1667.25 104.5H1661.83V103.796L1664.62 101.123C1664.83 100.896 1665.02 100.683 1665.2 100.485C1665.38 100.28 1665.54 100.074 1665.66 99.869C1665.79 99.6637 1665.9 99.4583 1665.97 99.253C1666.04 99.0403 1666.08 98.8167 1666.08 98.582C1666.06 98.098 1665.92 97.7423 1665.64 97.515C1665.36 97.2803 1665.01 97.163 1664.59 97.163C1664.37 97.163 1664.15 97.2033 1663.96 97.284C1663.76 97.3573 1663.59 97.4673 1663.44 97.614C1663.3 97.7533 1663.19 97.9183 1663.11 98.109C1663.03 98.2997 1662.99 98.5123 1662.99 98.747L1662 98.582C1662.05 98.208 1662.15 97.8817 1662.31 97.603C1662.46 97.317 1662.65 97.0787 1662.88 96.888C1663.11 96.69 1663.38 96.5433 1663.68 96.448C1663.98 96.3453 1664.3 96.294 1664.65 96.294C1664.99 96.294 1665.31 96.3453 1665.61 96.448C1665.91 96.5507 1666.17 96.701 1666.39 96.899C1666.61 97.0897 1666.78 97.3243 1666.9 97.603C1667.03 97.8817 1667.09 98.2007 1667.09 98.56C1667.09 98.8607 1667.05 99.1393 1666.96 99.396C1666.87 99.6527 1666.75 99.902 1666.6 100.144C1666.44 100.379 1666.26 100.61 1666.06 100.837C1665.85 101.057 1665.64 101.281 1665.41 101.508L1663.15 103.741C1663.31 103.697 1663.46 103.664 1663.62 103.642C1663.78 103.62 1663.93 103.609 1664.07 103.609H1667.25V104.5Z" fill="black" fill-opacity="0.6"/>
<path d="M1734.57 104.5H1729.16V103.796L1731.94 101.123C1732.15 100.896 1732.35 100.683 1732.52 100.485C1732.7 100.28 1732.86 100.074 1732.98 99.869C1733.12 99.6637 1733.22 99.4583 1733.29 99.253C1733.36 99.0403 1733.4 98.8167 1733.4 98.582C1733.39 98.098 1733.24 97.7423 1732.96 97.515C1732.68 97.2803 1732.33 97.163 1731.92 97.163C1731.69 97.163 1731.48 97.2033 1731.28 97.284C1731.08 97.3573 1730.91 97.4673 1730.76 97.614C1730.62 97.7533 1730.51 97.9183 1730.43 98.109C1730.35 98.2997 1730.31 98.5123 1730.31 98.747L1729.32 98.582C1729.37 98.208 1729.47 97.8817 1729.63 97.603C1729.78 97.317 1729.97 97.0787 1730.2 96.888C1730.43 96.69 1730.7 96.5433 1731 96.448C1731.3 96.3453 1731.63 96.294 1731.97 96.294C1732.32 96.294 1732.63 96.3453 1732.93 96.448C1733.23 96.5507 1733.49 96.701 1733.71 96.899C1733.93 97.0897 1734.1 97.3243 1734.23 97.603C1734.35 97.8817 1734.41 98.2007 1734.41 98.56C1734.41 98.8607 1734.37 99.1393 1734.28 99.396C1734.19 99.6527 1734.07 99.902 1733.92 100.144C1733.76 100.379 1733.58 100.61 1733.38 100.837C1733.17 101.057 1732.96 101.281 1732.73 101.508L1730.48 103.741C1730.63 103.697 1730.78 103.664 1730.94 103.642C1731.1 103.62 1731.25 103.609 1731.39 103.609H1734.57V104.5ZM1735.91 98.604C1735.96 98.2373 1736.06 97.911 1736.21 97.625C1736.37 97.339 1736.56 97.1007 1736.79 96.91C1737.02 96.712 1737.29 96.5617 1737.59 96.459C1737.89 96.3563 1738.21 96.305 1738.56 96.305C1738.91 96.305 1739.23 96.3563 1739.51 96.459C1739.81 96.5617 1740.06 96.7047 1740.27 96.888C1740.49 97.0713 1740.65 97.2913 1740.77 97.548C1740.89 97.8047 1740.94 98.087 1740.94 98.395C1740.94 98.923 1740.82 99.3337 1740.56 99.627C1740.31 99.913 1739.97 100.129 1739.53 100.276C1740.05 100.408 1740.45 100.639 1740.72 100.969C1741 101.299 1741.13 101.717 1741.13 102.223C1741.13 102.59 1741.06 102.923 1740.91 103.224C1740.77 103.525 1740.58 103.781 1740.33 103.994C1740.09 104.199 1739.8 104.361 1739.46 104.478C1739.13 104.588 1738.78 104.643 1738.4 104.643C1737.97 104.643 1737.6 104.588 1737.29 104.478C1736.99 104.368 1736.73 104.218 1736.52 104.027C1736.31 103.836 1736.13 103.613 1735.99 103.356C1735.86 103.092 1735.75 102.813 1735.65 102.52L1736.56 102.146C1736.58 102.263 1736.63 102.428 1736.72 102.641C1736.89 102.993 1737.11 103.272 1737.37 103.477C1737.63 103.675 1737.97 103.774 1738.39 103.774C1738.68 103.774 1738.93 103.73 1739.14 103.642C1739.36 103.547 1739.54 103.426 1739.68 103.279C1739.83 103.132 1739.93 102.967 1740 102.784C1740.07 102.601 1740.11 102.421 1740.11 102.245C1740.11 102.025 1740.08 101.823 1740.02 101.64C1739.97 101.457 1739.87 101.299 1739.71 101.167C1739.56 101.035 1739.35 100.932 1739.07 100.859C1738.8 100.778 1738.45 100.738 1738.02 100.738V100.012C1738.37 100.005 1738.67 99.9643 1738.91 99.891C1739.16 99.8177 1739.36 99.7187 1739.51 99.594C1739.67 99.462 1739.78 99.308 1739.84 99.132C1739.91 98.956 1739.94 98.7653 1739.94 98.56C1739.94 98.098 1739.81 97.7533 1739.54 97.526C1739.27 97.2987 1738.93 97.185 1738.5 97.185C1738.27 97.185 1738.06 97.2253 1737.86 97.306C1737.67 97.3867 1737.5 97.5003 1737.36 97.647C1737.22 97.7863 1737.11 97.9513 1737.03 98.142C1736.95 98.3327 1736.91 98.5417 1736.91 98.769L1735.91 98.604Z" fill="black" fill-opacity="0.6"/>
<path d="M1808.44 104.5H1803.03V103.796L1805.81 101.123C1806.03 100.896 1806.22 100.683 1806.4 100.485C1806.58 100.28 1806.73 100.074 1806.86 99.869C1806.99 99.6637 1807.09 99.4583 1807.17 99.253C1807.24 99.0403 1807.28 98.8167 1807.28 98.582C1807.26 98.098 1807.11 97.7423 1806.84 97.515C1806.56 97.2803 1806.21 97.163 1805.79 97.163C1805.56 97.163 1805.35 97.2033 1805.15 97.284C1804.96 97.3573 1804.78 97.4673 1804.64 97.614C1804.5 97.7533 1804.39 97.9183 1804.31 98.109C1804.23 98.2997 1804.19 98.5123 1804.19 98.747L1803.2 98.582C1803.25 98.208 1803.35 97.8817 1803.5 97.603C1803.66 97.317 1803.85 97.0787 1804.08 96.888C1804.31 96.69 1804.58 96.5433 1804.88 96.448C1805.18 96.3453 1805.5 96.294 1805.85 96.294C1806.19 96.294 1806.51 96.3453 1806.8 96.448C1807.1 96.5507 1807.36 96.701 1807.58 96.899C1807.8 97.0897 1807.98 97.3243 1808.1 97.603C1808.23 97.8817 1808.29 98.2007 1808.29 98.56C1808.29 98.8607 1808.24 99.1393 1808.16 99.396C1808.07 99.6527 1807.95 99.902 1807.79 100.144C1807.64 100.379 1807.46 100.61 1807.25 100.837C1807.05 101.057 1806.83 101.281 1806.61 101.508L1804.35 103.741C1804.5 103.697 1804.66 103.664 1804.81 103.642C1804.97 103.62 1805.12 103.609 1805.26 103.609H1808.44V104.5ZM1815.38 102.355H1814.16V104.5H1813.27V102.355H1809.24V101.607L1813.21 96.349H1814.16V101.563H1815.38V102.355ZM1813.27 98.197C1813.27 98.1017 1813.27 97.9953 1813.28 97.878C1813.29 97.7533 1813.3 97.6323 1813.31 97.515L1810.34 101.563H1813.27V98.197Z" fill="black" fill-opacity="0.6"/>
</svg>
