<svg width="20" height="20" viewBox="0 0 20 20" fill="none" xmlns="http://www.w3.org/2000/svg">
<mask id="mask0_7655_1999" style="mask-type:luminance" maskUnits="userSpaceOnUse" x="0" y="0" width="20" height="20">
<path d="M20 0H0V20H20V0Z" fill="white"/>
</mask>
<g mask="url(#mask0_7655_1999)">
<path d="M9.9985 4.03525C9.46706 4.03545 8.94762 4.19323 8.50585 4.48864C8.06409 4.78406 7.71984 5.20384 7.51665 5.6949C7.31346 6.18596 7.26045 6.72625 7.36433 7.24744C7.4682 7.76862 7.72429 8.24731 8.10021 8.62295C8.47614 8.99859 8.95501 9.25433 9.47627 9.35781C9.99754 9.4613 10.5378 9.40788 11.0287 9.20433C11.5196 9.00077 11.9391 8.65622 12.2342 8.21423C12.5293 7.77225 12.6867 7.25269 12.6865 6.72125C12.6892 6.3676 12.6214 6.01697 12.4873 5.68975C12.3531 5.36254 12.1552 5.06528 11.905 4.81531C11.6549 4.56533 11.3575 4.36762 11.0301 4.2337C10.7028 4.09978 10.3521 4.03232 9.9985 4.03525ZM9.9985 8.40925C9.55108 8.40925 9.12199 8.23151 8.80561 7.91514C8.48924 7.59876 8.3115 7.16967 8.3115 6.72225C8.3115 6.27483 8.48924 5.84573 8.80561 5.52936C9.12199 5.21298 9.55108 5.03525 9.9985 5.03525C10.4459 5.03525 10.875 5.21298 11.1914 5.52936C11.5078 5.84573 11.6855 6.27483 11.6855 6.72225C11.6855 7.16967 11.5078 7.59876 11.1914 7.91514C10.875 8.23151 10.4459 8.40925 9.9985 8.40925Z" fill="white"/>
<path d="M9.99951 10.6016C9.46807 10.6016 8.94856 10.7591 8.50669 11.0544C8.06481 11.3497 7.72041 11.7693 7.51704 12.2603C7.31366 12.7513 7.26045 13.2915 7.36413 13.8128C7.46781 14.334 7.72372 14.8128 8.09951 15.1886C8.34819 15.4392 8.64425 15.6378 8.97044 15.773C9.29663 15.9081 9.64644 15.9769 9.99951 15.9756C10.7121 15.9756 11.3956 15.6925 11.8995 15.1886C12.4034 14.6846 12.6865 14.0012 12.6865 13.2886C12.6865 12.5759 12.4034 11.8925 11.8995 11.3886C11.3956 10.8847 10.7121 10.6016 9.99951 10.6016ZM9.99951 14.9756C9.66589 14.9754 9.33983 14.8763 9.06253 14.6908C8.78524 14.5053 8.56917 14.2417 8.44164 13.9335C8.31411 13.6252 8.28084 13.286 8.34605 12.9588C8.41125 12.6317 8.572 12.3312 8.80797 12.0953C9.04394 11.8595 9.34454 11.6989 9.67176 11.6339C9.99898 11.5689 10.3381 11.6024 10.6463 11.7301C10.9545 11.8578 11.2179 12.074 11.4033 12.3514C11.5886 12.6288 11.6875 12.9549 11.6875 13.2886C11.6888 13.5105 11.6461 13.7305 11.5617 13.9358C11.4773 14.1411 11.353 14.3276 11.1959 14.4844C11.0389 14.6413 10.8523 14.7654 10.6469 14.8495C10.4415 14.9336 10.2215 14.9762 9.99951 14.9746" fill="white"/>
<path d="M16.5 13H15V7H16.5C16.6326 7 16.7598 6.94732 16.8536 6.85355C16.9473 6.75979 17 6.63261 17 6.5C17 6.36739 16.9473 6.24021 16.8536 6.14645C16.7598 6.05268 16.6326 6 16.5 6H15V2.5C15 2.36739 14.9473 2.24021 14.8536 2.14645C14.7598 2.05268 14.6326 2 14.5 2H5.5C5.36739 2 5.24021 2.05268 5.14645 2.14645C5.05268 2.24021 5 2.36739 5 2.5V6H3.5C3.36739 6 3.24021 6.05268 3.14645 6.14645C3.05268 6.24021 3 6.36739 3 6.5C3 6.63261 3.05268 6.75979 3.14645 6.85355C3.24021 6.94732 3.36739 7 3.5 7H5V13H3.5C3.36739 13 3.24021 13.0527 3.14645 13.1464C3.05268 13.2402 3 13.3674 3 13.5C3 13.6326 3.05268 13.7598 3.14645 13.8536C3.24021 13.9473 3.36739 14 3.5 14H5V17.5C5 17.6326 5.05268 17.7598 5.14645 17.8536C5.24021 17.9473 5.36739 18 5.5 18H14.5C14.6326 18 14.7598 17.9473 14.8536 17.8536C14.9473 17.7598 15 17.6326 15 17.5V14H16.5C16.6326 14 16.7598 13.9473 16.8536 13.8536C16.9473 13.7598 17 13.6326 17 13.5C17 13.3674 16.9473 13.2402 16.8536 13.1464C16.7598 13.0527 16.6326 13 16.5 13ZM14 17H6V3H14V17Z" fill="white"/>
</g>
</svg>
